<svg xmlns="http://www.w3.org/2000/svg" xmlns:xlink="http://www.w3.org/1999/xlink" width="1920" zoomAndPan="magnify" viewBox="0 0 1440 809.999993" height="1080" preserveAspectRatio="xMidYMid meet" version="1.0"><defs><filter x="0%" y="0%" width="100%" height="100%" id="bf7e7a5738"><feColorMatrix values="0 0 0 0 1 0 0 0 0 1 0 0 0 0 1 0 0 0 1 0" color-interpolation-filters="sRGB"/></filter><mask id="c7847f254b"><g filter="url(#bf7e7a5738)"><rect x="-144" width="1728" fill="#000000" y="-80.999999" height="971.999992" fill-opacity="0.1686"/></g></mask><clipPath id="c6cd7d805b"><path d="M 595 774 L 723 774 L 723 810 L 595 810 Z M 595 774 " clip-rule="nonzero"/></clipPath><clipPath id="8757ab292b"><path d="M 953 0 L 1074 0 L 1074 39 L 953 39 Z M 953 0 " clip-rule="nonzero"/></clipPath><clipPath id="405eb2ae00"><path d="M 1381 786 L 1438 786 L 1438 810 L 1381 810 Z M 1381 786 " clip-rule="nonzero"/></clipPath><clipPath id="a5e1678465"><path d="M 777 0 L 887 0 L 887 40 L 777 40 Z M 777 0 " clip-rule="nonzero"/></clipPath><clipPath id="cc490eb199"><path d="M 261 0 L 377 0 L 377 24 L 261 24 Z M 261 0 " clip-rule="nonzero"/></clipPath><clipPath id="72aaa0fd46"><path d="M 1163 0 L 1261 0 L 1261 50 L 1163 50 Z M 1163 0 " clip-rule="nonzero"/></clipPath><clipPath id="821d4e8527"><path d="M 595 0 L 698 0 L 698 83 L 595 83 Z M 595 0 " clip-rule="nonzero"/></clipPath><clipPath id="69ad0e26df"><path d="M 130 753 L 243 753 L 243 810 L 130 810 Z M 130 753 " clip-rule="nonzero"/></clipPath><clipPath id="b7c8da5ccc"><path d="M 0 792 L 68 792 L 68 810 L 0 810 Z M 0 792 " clip-rule="nonzero"/></clipPath><clipPath id="c903aacfcc"><rect x="0" width="1440" y="0" height="810"/></clipPath></defs><rect x="-144" width="1728" fill="#ffffff" y="-80.999999" height="971.999992" fill-opacity="1"/><rect x="-144" width="1728" fill="#ff69b4" y="-80.999999" height="971.999992" fill-opacity="1"/><g mask="url(#c7847f254b)"><g transform="matrix(1, 0, 0, 1, 0, 0.000000000000039746)"><g clip-path="url(#c903aacfcc)"><path fill="#fef0f3" d="M 1411.910156 8.996094 C 1405.367188 13.679688 1401.269531 19.980469 1399.886719 27.921875 C 1399.257812 31.484375 1398.933594 35.101562 1398.296875 40.152344 C 1386.523438 33.402344 1375.339844 34.867188 1364.042969 36.878906 C 1357.691406 38.019531 1353.558594 41.328125 1351.257812 47.371094 C 1347.640625 56.851562 1348.472656 66.222656 1352.484375 75.105469 C 1357.90625 87.128906 1366.726562 96.03125 1378.863281 101.828125 C 1396.109375 110.066406 1414.746094 114.320312 1432.417969 121.285156 C 1434.019531 121.921875 1435.675781 122.210938 1437.355469 122.210938 L 1437.355469 109.945312 C 1428.003906 106.558594 1419.007812 102.210938 1409.292969 99.789062 C 1400.382812 97.554688 1391.757812 94.09375 1383.875 89.636719 C 1372.4375 83.191406 1363.414062 74.628906 1363.566406 59.554688 C 1363.621094 52.429688 1365.015625 48.222656 1374.367188 45.695312 C 1377.957031 44.722656 1381.605469 44.613281 1385.203125 45.6875 C 1391.824219 47.667969 1398.332031 49.707031 1403.234375 55.207031 C 1405.953125 58.261719 1410.667969 56.945312 1412.042969 53.140625 C 1412.527344 51.820312 1412.773438 50.296875 1412.667969 48.894531 C 1412.191406 42.433594 1414.96875 36.757812 1416.960938 30.921875 C 1418.5625 26.230469 1422.050781 22.910156 1426.378906 20.628906 C 1429.921875 18.765625 1433.4375 19.054688 1436.636719 21.601562 C 1436.898438 21.796875 1437.113281 22.019531 1437.355469 22.234375 L 1437.355469 6.910156 C 1428.960938 2.871094 1419.71875 3.421875 1411.910156 8.996094 " fill-opacity="1" fill-rule="nonzero"/><path fill="#fef0f3" d="M 847.148438 504.015625 C 841.929688 514.710938 843.183594 526.25 851.113281 534.992188 C 857.023438 541.5 864.363281 545.128906 873.152344 545.625 C 877.089844 545.839844 881.046875 545.738281 886.589844 545.804688 C 880.785156 559.410156 883.796875 571.347656 887.40625 583.328125 C 889.445312 590.070312 893.546875 594.109375 900.394531 595.847656 C 911.121094 598.558594 921.183594 596.472656 930.289062 591.003906 C 942.625 583.597656 951.152344 572.910156 955.90625 559.023438 C 962.636719 539.304688 964.882812 518.574219 970.195312 498.535156 C 971.035156 495.402344 970.859375 492.253906 969.585938 489.15625 C 968.304688 485.996094 966.3125 485.265625 962.898438 486.539062 C 959.980469 487.640625 958.410156 489.617188 957.765625 492.5625 C 955.296875 503.847656 951.332031 514.789062 949.835938 526.316406 C 948.546875 536.257812 945.878906 546.027344 942.0625 555.136719 C 936.519531 568.355469 928.382812 579.222656 912.027344 580.96875 C 904.3125 581.8125 899.570312 580.832031 895.644531 571.03125 C 894.136719 567.261719 893.558594 563.308594 894.269531 559.285156 C 895.570312 551.851562 896.953125 544.539062 902.292969 538.539062 C 905.257812 535.199219 903.238281 530.273438 898.933594 529.253906 C 897.4375 528.898438 895.765625 528.832031 894.257812 529.113281 C 887.300781 530.449219 880.800781 528.160156 874.230469 526.746094 C 868.945312 525.605469 864.914062 522.257812 861.882812 517.84375 C 859.414062 514.246094 859.285156 510.402344 861.632812 506.605469 C 863.765625 503.144531 866.578125 500.40625 870.179688 498.433594 C 875.835938 495.347656 881.859375 493.28125 888.191406 492.207031 C 905.105469 489.324219 922.015625 486.445312 938.960938 483.707031 C 947.246094 482.378906 955.472656 480.855469 963.421875 478.125 C 965.292969 477.488281 967.144531 476.691406 968.902344 475.785156 C 971.269531 474.570312 971.136719 471.679688 968.902344 469.933594 C 967.285156 468.660156 965.527344 467.894531 963.507812 467.621094 C 956.390625 466.660156 949.285156 466.078125 942.109375 467.203125 C 936.199219 468.128906 930.253906 468.792969 924.351562 469.753906 C 908.605469 472.316406 892.886719 475.027344 877.417969 479.011719 C 863.351562 482.628906 853.476562 490.988281 847.148438 504.015625 " fill-opacity="1" fill-rule="nonzero"/><path fill="#fef0f3" d="M 1136.960938 412.15625 C 1136.527344 415.289062 1136.003906 418.429688 1136.867188 421.65625 C 1138.0625 426.132812 1139.585938 427.6875 1144.449219 427.519531 C 1155.96875 427.125 1167.527344 426.964844 1178.984375 425.816406 C 1192.449219 424.453125 1205.871094 422.367188 1219.234375 420.167969 C 1231.691406 418.121094 1242.753906 412.820312 1253.925781 402.777344 C 1260.847656 397.445312 1265.421875 388.582031 1265.65625 377.464844 C 1265.839844 368.234375 1261.980469 361.429688 1254.085938 356.6875 C 1244.699219 351.039062 1234.578125 350.300781 1224.058594 351.777344 C 1222.105469 352.058594 1220.148438 352.5 1218.1875 352.722656 C 1216.726562 352.890625 1215.867188 351.722656 1215.839844 350.617188 C 1215.792969 348.644531 1216.25 346.671875 1216.476562 344.710938 C 1218.121094 330.589844 1211.519531 320.183594 1201.324219 311.488281 C 1200.195312 310.53125 1198.5 310.019531 1196.984375 309.71875 C 1181.519531 306.71875 1167.378906 310.671875 1158.636719 324.707031 C 1156.324219 328.421875 1154.175781 332.28125 1152.390625 336.265625 C 1147.628906 346.871094 1144.710938 358.0625 1142.972656 369.527344 C 1140.839844 383.71875 1138.894531 397.941406 1136.960938 412.15625 Z M 1150.929688 419.597656 C 1155.289062 400.140625 1157.511719 380.335938 1160.675781 360.679688 C 1162.320312 350.375 1165.808594 340.679688 1171.355469 331.722656 C 1175.394531 325.167969 1181.285156 322.980469 1188.597656 323.390625 C 1191.152344 323.519531 1193.03125 324.921875 1194.890625 326.296875 C 1199.765625 333.75 1201.878906 341.679688 1199.707031 350.28125 C 1198.546875 354.902344 1196.546875 359.296875 1195.078125 363.832031 C 1193.125 369.882812 1197.117188 374.386719 1203.195312 372.875 C 1205.878906 372.199219 1208.320312 370.695312 1210.957031 369.789062 C 1220.683594 366.421875 1230.324219 365.785156 1239.992188 370.386719 C 1244.621094 372.59375 1246.15625 375.976562 1246.164062 380.859375 C 1246.183594 388.105469 1242.59375 393.789062 1238.542969 399.1875 C 1237.234375 400.914062 1234.699219 402.019531 1232.503906 402.738281 C 1228.351562 404.09375 1224.078125 405.160156 1219.792969 406.003906 C 1211.59375 407.648438 1203.34375 409.058594 1195.117188 410.546875 C 1181.339844 413.035156 1167.949219 416.753906 1155.222656 422.703125 C 1152.25 424.085938 1150.277344 422.570312 1150.929688 419.597656 " fill-opacity="1" fill-rule="nonzero"/><g clip-path="url(#c6cd7d805b)"><path fill="#fef0f3" d="M 670.554688 889.269531 C 683.964844 887.511719 697.308594 885.546875 710.660156 883.613281 C 713.605469 883.171875 716.589844 882.828125 719.078125 881.207031 C 722.546875 878.945312 723.296875 877.152344 721.144531 872.785156 C 716.058594 862.421875 711.167969 851.949219 705.445312 841.851562 C 698.71875 829.976562 691.371094 818.335938 683.925781 806.769531 C 677.003906 795.988281 667.785156 787.320312 654.320312 779.792969 C 646.78125 774.902344 637.074219 773.058594 627.152344 775.753906 C 618.933594 777.996094 614.507812 783.269531 613.566406 791.6875 C 612.433594 801.683594 615.949219 811.078125 621.570312 820.242188 C 622.625 821.953125 623.804688 823.609375 624.816406 825.339844 C 625.554688 826.621094 624.871094 827.703125 623.917969 828.023438 C 622.195312 828.574219 620.269531 828.675781 618.4375 828.984375 C 605.296875 831.183594 598.816406 839.886719 595.339844 851.425781 C 594.957031 852.71875 595.199219 854.371094 595.554688 855.820312 C 599.277344 870.671875 608.570312 882.472656 624.554688 886.746094 C 628.78125 887.875 633.0625 888.828125 637.316406 889.410156 C 648.640625 890.960938 659.714844 890.691406 670.554688 889.269531 Z M 611.078125 859.890625 C 610.152344 857.523438 610.609375 855.449219 611.058594 853.398438 C 615.648438 847.042969 621.765625 843.039062 630.257812 842.757812 C 634.800781 842.609375 639.507812 843.273438 644.117188 843.421875 C 650.261719 843.628906 652.597656 838.8125 648.765625 833.679688 C 647.070312 831.425781 644.734375 829.59375 642.855469 827.453125 C 635.886719 819.496094 631.351562 810.902344 631.445312 800.914062 C 631.5 796.117188 633.859375 793.855469 638.148438 792.574219 C 644.546875 790.667969 651.046875 792.433594 657.46875 794.707031 C 659.546875 795.4375 661.558594 797.464844 663.089844 799.269531 C 666 802.671875 668.683594 806.28125 671.199219 809.949219 C 676.015625 816.980469 680.644531 824.105469 685.335938 831.191406 C 693.191406 843.058594 701.984375 854.242188 712.464844 864.257812 C 714.917969 866.59375 714.394531 868.78125 711.492188 868.960938 C 692.519531 870.089844 674.125 873.25 655.46875 875.503906 C 645.695312 876.691406 635.699219 876.066406 625.515625 873.371094 C 618.0625 871.410156 613.714844 866.621094 611.078125 859.890625 " fill-opacity="1" fill-rule="nonzero"/></g><path fill="#fef0f3" d="M 400.042969 754.546875 C 405.34375 740.679688 403.96875 726.925781 392.363281 716.542969 C 389.304688 713.785156 386.082031 711.167969 382.675781 708.867188 C 373.605469 702.714844 363.703125 698.199219 353.351562 694.730469 C 340.539062 690.4375 327.660156 686.332031 314.792969 682.210938 C 311.941406 681.3125 309.136719 680.320312 306.003906 680.59375 C 301.65625 680.976562 299.960938 682.144531 299.328125 686.667969 C 297.820312 697.421875 296.082031 708.167969 295.285156 718.976562 C 294.371094 731.691406 294.117188 744.464844 293.976562 757.210938 C 293.863281 769.09375 296.980469 780.214844 304.480469 792.210938 C 308.292969 799.492188 315.765625 805.167969 326.042969 807.199219 C 334.582031 808.871094 341.519531 806.402344 347.207031 799.859375 C 353.96875 792.070312 356.296875 782.804688 356.632812 772.808594 C 356.699219 770.9375 356.613281 769.066406 356.714844 767.207031 C 356.800781 765.832031 358.027344 765.222656 359.054688 765.375 C 360.886719 765.652344 362.636719 766.394531 364.421875 766.925781 C 377.261719 770.742188 387.980469 766.328125 397.703125 758.277344 C 398.78125 757.378906 399.519531 755.890625 400.042969 754.546875 Z M 388.734375 744.53125 C 388.183594 746.886719 386.585938 748.402344 385.015625 749.898438 C 377.300781 753.191406 369.601562 753.871094 361.980469 750.46875 C 357.894531 748.636719 354.136719 746.074219 350.160156 743.96875 C 344.878906 741.183594 340.042969 744.148438 340.464844 750.027344 C 340.640625 752.621094 341.652344 755.144531 342.0625 757.726562 C 343.597656 767.289062 342.632812 776.34375 336.789062 784.5625 C 333.984375 788.496094 330.589844 789.359375 326.082031 788.582031 C 319.347656 787.414062 314.652344 783.167969 310.3125 778.53125 C 308.910156 777.035156 308.3125 774.507812 307.984375 772.347656 C 307.414062 768.28125 307.125 764.15625 307.03125 760.042969 C 306.84375 752.171875 306.875 744.296875 306.84375 736.414062 C 306.769531 723.238281 305.488281 710.214844 302.046875 697.441406 C 301.242188 694.457031 302.964844 692.867188 305.609375 693.964844 C 322.957031 701.164062 340.960938 706.457031 358.679688 712.582031 C 367.964844 715.789062 376.402344 720.59375 383.808594 727.175781 C 389.230469 732 390.296875 737.828125 388.734375 744.53125 " fill-opacity="1" fill-rule="nonzero"/><path fill="#fef0f3" d="M 588.0625 279.835938 C 588.523438 282.910156 590.316406 284.773438 592.90625 286.203125 C 596.535156 288.230469 599.417969 287.269531 600.015625 283.371094 C 600.558594 279.855469 600.695312 276.246094 600.707031 272.683594 C 600.726562 264.722656 600.3125 256.75 600.519531 248.800781 C 600.96875 232.277344 604.792969 216.429688 610.863281 201.140625 C 614.949219 190.855469 621.730469 183.945312 633.6875 183.011719 C 643.621094 182.234375 646.023438 181.980469 651.101562 193.089844 C 652.785156 196.765625 653.269531 200.71875 652.664062 204.796875 C 651.589844 211.902344 650.195312 218.878906 647.625 225.65625 C 645.863281 230.324219 648.753906 233.398438 653.765625 232.679688 C 655.328125 232.457031 656.898438 232.042969 658.367188 231.457031 C 665.933594 228.398438 673.191406 229.660156 680.390625 232.78125 C 685 234.792969 685.890625 236.101562 685.429688 240.925781 C 684.457031 251.382812 679.203125 258.878906 669.609375 263.070312 C 658.996094 267.6875 648.015625 271.28125 636.765625 274.046875 C 630.96875 275.46875 625.160156 276.972656 619.523438 278.929688 C 612.265625 281.425781 606.457031 285.921875 602.148438 292.972656 C 611.058594 295.078125 619.109375 295.011719 627.515625 293.1875 C 643.59375 289.699219 659.191406 285.0625 673.761719 277.414062 C 688.125 269.859375 701.441406 250.371094 703.386719 234.652344 C 704.378906 226.660156 701.890625 221.179688 694.746094 218.121094 C 687.105469 214.867188 679.425781 211.035156 670.570312 213.398438 C 669.121094 213.78125 667.457031 213.378906 665.925781 213.351562 C 664.257812 209.144531 665.605469 205.179688 665.652344 201.261719 C 665.726562 196.082031 665.503906 190.976562 664.960938 185.796875 C 663.894531 175.621094 657.808594 170.46875 648.875 167.355469 C 639.234375 164.007812 629.996094 166.402344 620.746094 168.910156 C 614.351562 170.648438 609.355469 174.40625 605.589844 179.886719 C 601.277344 186.140625 597.609375 192.707031 594.863281 199.832031 C 585.921875 223.066406 584.425781 247.136719 586.472656 271.632812 C 586.707031 274.394531 587.660156 277.085938 588.0625 279.835938 " fill-opacity="1" fill-rule="nonzero"/><path fill="#fef0f3" d="M 809.574219 730.046875 C 813.585938 727.894531 816.847656 725.054688 819.363281 721.453125 C 823.019531 716.207031 825.976562 710.589844 827.722656 704.332031 C 831.894531 689.4375 824.777344 678.058594 809.421875 675.804688 C 804.363281 675.074219 799.203125 675.074219 793.300781 674.691406 C 795.421875 669.007812 797.246094 663.855469 799.277344 658.785156 C 801.707031 652.738281 802.746094 646.546875 802.101562 640.039062 C 801.828125 637.222656 801.4375 634.417969 799.632812 632.164062 C 787.558594 617.046875 767.675781 613.96875 752.769531 624.992188 C 748.917969 627.828125 745.8125 631.453125 743.25 635.617188 C 730.179688 656.933594 722.988281 680.628906 715.382812 704.15625 C 714.261719 707.605469 714.578125 711.253906 715.402344 714.816406 C 716.113281 717.902344 717.964844 718.816406 720.527344 717.292969 C 724.417969 714.984375 727.046875 712 728.558594 707.457031 C 733.207031 693.449219 738.25 679.574219 743.464844 665.769531 C 746.710938 657.207031 750.695312 649.070312 756.054688 641.421875 C 762.542969 632.15625 774.550781 632.117188 782.59375 637.421875 C 787.800781 640.851562 789.960938 645.648438 789.15625 651.765625 C 788.578125 656.175781 786.859375 660.21875 784.789062 664.117188 C 783.492188 666.574219 781.902344 668.921875 780.910156 671.503906 C 778.078125 678.878906 784.378906 688.597656 791.214844 688.539062 C 794.777344 688.503906 798.378906 689.101562 801.886719 689.820312 C 808.074219 691.082031 812.96875 696.199219 813.675781 701.695312 C 814.40625 707.34375 811.070312 713.105469 805.160156 716.171875 C 798.714844 719.492188 791.886719 721.585938 784.667969 722.445312 C 775.160156 723.566406 765.621094 724.203125 756.027344 724.324219 C 744.457031 724.464844 732.890625 725.027344 721.332031 725.558594 C 719.667969 725.632812 717.152344 725.0625 716.925781 728.035156 C 724.0625 733.140625 732.570312 733.441406 740.605469 735.554688 C 757.652344 740.035156 774.625 738.855469 791.644531 736.527344 C 797.976562 735.65625 803.878906 733.085938 809.574219 730.046875 " fill-opacity="1" fill-rule="nonzero"/><path fill="#fef0f3" d="M 1237.878906 446.144531 C 1219.886719 437.8125 1201.820312 454.269531 1203.851562 471.464844 C 1205.046875 481.695312 1208.683594 490.617188 1216.074219 498.011719 C 1218.558594 500.507812 1222.132812 501.957031 1223.636719 505.59375 C 1221.207031 509.457031 1216.847656 510.953125 1213.511719 513.703125 C 1201.773438 523.363281 1198.699219 547.410156 1220 555.398438 C 1228.894531 558.726562 1237.816406 559.34375 1246.886719 556.460938 C 1257.144531 553.199219 1267.167969 549.402344 1276.511719 543.933594 C 1284.402344 539.285156 1292.472656 534.957031 1300.414062 530.394531 C 1305.546875 527.457031 1311.222656 525.101562 1313.824219 519.097656 C 1314.515625 517.519531 1316.097656 517.003906 1317.742188 516.808594 C 1321.222656 516.359375 1321.070312 514.171875 1320.203125 511.625 C 1318.882812 507.773438 1316.714844 504.566406 1313.535156 501.941406 C 1308.632812 497.890625 1303.949219 493.582031 1299.046875 489.550781 C 1284.601562 477.664062 1270.085938 465.855469 1254.574219 455.355469 C 1249.289062 451.773438 1243.679688 448.820312 1237.878906 446.144531 Z M 1299.394531 507.269531 C 1302.546875 509.71875 1302.714844 512.207031 1299.648438 513.878906 C 1281.871094 523.585938 1265.390625 535.789062 1245.875 542.210938 C 1241.339844 543.699219 1236.804688 545.242188 1232.523438 545.148438 C 1224.769531 544.578125 1216.746094 535.003906 1218.066406 528.242188 C 1218.421875 526.417969 1219.570312 524.390625 1220.980469 523.230469 C 1224.347656 520.472656 1227.949219 517.910156 1231.746094 515.789062 C 1234.625 514.179688 1236.785156 512.214844 1238.601562 509.449219 C 1242.621094 503.324219 1242.21875 499.890625 1236.140625 495.515625 C 1233.242188 493.429688 1230.035156 491.765625 1227.089844 489.726562 C 1221.320312 485.726562 1217.390625 480.367188 1215.660156 473.496094 C 1213.445312 464.742188 1219.824219 457.488281 1228.875 458.964844 C 1232.324219 459.523438 1235.785156 460.984375 1238.835938 462.75 C 1244.679688 466.136719 1250.457031 469.726562 1255.855469 473.792969 C 1270.488281 484.789062 1284.929688 496.039062 1299.394531 507.269531 " fill-opacity="1" fill-rule="nonzero"/><path fill="#fef0f3" d="M 671.816406 458.394531 C 663.59375 463.152344 657.460938 469.660156 653.933594 478.507812 C 649.953125 488.503906 646.511719 498.65625 644.828125 509.355469 C 643.40625 518.398438 641.628906 527.375 640.125 536.40625 C 639.140625 542.242188 637.355469 548.113281 640.347656 553.949219 C 641.132812 555.480469 640.523438 557.015625 639.636719 558.425781 C 637.777344 561.398438 639.570312 562.671875 642.085938 563.605469 C 645.894531 565.039062 649.765625 565.382812 653.796875 564.597656 C 660.042969 563.382812 666.34375 562.492188 672.574219 561.269531 C 690.921875 557.632812 709.257812 553.910156 727.214844 548.589844 C 733.347656 546.765625 739.183594 544.308594 744.933594 541.519531 C 762.785156 532.898438 761.515625 508.496094 746.945312 499.152344 C 738.265625 493.582031 729.066406 490.738281 718.65625 491.765625 C 715.148438 492.101562 711.765625 493.933594 708.003906 492.792969 C 706.554688 488.464844 708.164062 484.144531 708.15625 479.824219 C 708.136719 464.628906 691.5 446.984375 671.816406 458.394531 Z M 707.855469 508.851562 C 711.324219 507.933594 714.636719 506.519531 718.085938 505.53125 C 724.839844 503.613281 731.46875 503.976562 737.882812 507 C 746.058594 510.839844 747.617188 520.371094 740.734375 526.429688 C 738.117188 528.738281 734.777344 530.488281 731.488281 531.722656 C 725.15625 534.085938 718.714844 536.273438 712.15625 537.875 C 694.371094 542.210938 676.511719 546.234375 658.648438 550.292969 C 654.757812 551.171875 652.738281 549.722656 653.375 546.296875 C 657.152344 526.390625 658.171875 505.914062 665.585938 486.761719 C 667.316406 482.3125 669 477.824219 671.789062 474.570312 C 677.144531 468.941406 689.640625 468.820312 694.035156 474.121094 C 695.210938 475.550781 696.054688 477.730469 696.054688 479.5625 C 696.054688 483.910156 695.746094 488.316406 694.980469 492.597656 C 694.398438 495.851562 694.558594 498.761719 695.539062 501.910156 C 697.710938 508.914062 700.617188 510.777344 707.855469 508.851562 " fill-opacity="1" fill-rule="nonzero"/><g clip-path="url(#8757ab292b)"><path fill="#fef0f3" d="M 965.882812 -19.964844 C 972.109375 -7.964844 978.917969 3.722656 985.558594 15.503906 C 987.316406 18.609375 989.175781 21.703125 991.355469 24.535156 C 1000.847656 36.886719 1017.363281 42.160156 1032.007812 37.054688 C 1046.183594 32.109375 1049.363281 29.089844 1047.585938 13.457031 C 1046.886719 7.199219 1045.484375 1.019531 1044.097656 -6.863281 C 1050.390625 -6.621094 1055.5625 -7.132812 1060.371094 -9.230469 C 1067.832031 -12.472656 1072.789062 -17.664062 1073.320312 -26.246094 C 1073.628906 -31.410156 1074.023438 -36.550781 1073.386719 -41.742188 C 1071.648438 -55.738281 1059.761719 -67.753906 1045.734375 -68.660156 C 1033 -69.476562 1020.234375 -69.15625 1007.964844 -64.847656 C 994.414062 -60.078125 980.359375 -57.207031 966.445312 -53.8125 C 963.730469 -53.148438 960.984375 -52.652344 958.308594 -51.894531 C 954.023438 -50.671875 952.921875 -48.78125 954.605469 -44.910156 C 958.222656 -36.53125 961.675781 -28.042969 965.882812 -19.964844 Z M 968.558594 -36.757812 C 968.882812 -37.039062 969.128906 -37.429688 969.472656 -37.523438 C 987.484375 -42.40625 1005.476562 -47.40625 1023.554688 -52.074219 C 1031.324219 -54.074219 1039.367188 -53.671875 1047.316406 -53.203125 C 1049.632812 -53.082031 1051.972656 -52.242188 1054.179688 -51.410156 C 1059.191406 -49.53125 1061.800781 -45.96875 1061.546875 -40.433594 C 1061.351562 -36.046875 1061.445312 -31.605469 1059.339844 -27.601562 C 1056.546875 -22.292969 1052.644531 -18.933594 1046.007812 -19.710938 C 1042.117188 -20.167969 1038.121094 -19.871094 1034.195312 -19.765625 C 1028.574219 -19.617188 1027.144531 -17.699219 1029.351562 -12.351562 C 1031.949219 -6.058594 1034.109375 0.308594 1035.027344 7.042969 C 1036.027344 14.316406 1034.417969 17.335938 1027.984375 20.449219 C 1019.738281 24.433594 1011.761719 23.40625 1004.128906 18.703125 C 999.285156 15.71875 995.628906 11.519531 992.824219 6.628906 C 990.253906 2.140625 987.914062 -2.46875 985.425781 -7.003906 C 981.191406 -14.671875 977.171875 -22.433594 971.691406 -29.34375 C 970.007812 -31.464844 968.0625 -33.660156 968.558594 -36.757812 " fill-opacity="1" fill-rule="nonzero"/></g><path fill="#fef0f3" d="M 1250.007812 711.664062 C 1252.375 698.191406 1246.296875 686.585938 1230.921875 684.070312 C 1217.222656 681.816406 1204.589844 685.820312 1192.824219 691.417969 C 1173.074219 700.828125 1154.15625 711.917969 1137.828125 726.878906 C 1133.058594 731.253906 1129.085938 735.789062 1127 742.203125 C 1124.679688 749.375 1124.953125 753.609375 1130.339844 757.789062 C 1132.835938 759.726562 1135.742188 761.175781 1138.59375 762.558594 C 1154.71875 770.339844 1170.832031 778.128906 1187.046875 785.691406 C 1192.449219 788.207031 1198.050781 790.386719 1203.738281 792.144531 C 1216.214844 795.996094 1227.398438 793.210938 1236.925781 784.402344 C 1247.082031 775.015625 1247.242188 761.539062 1237.394531 751.878906 C 1234.308594 748.839844 1230.921875 746.101562 1226.835938 742.464844 C 1231.578125 738.050781 1235.269531 734.46875 1239.113281 731.058594 C 1244.996094 725.839844 1248.664062 719.339844 1250.007812 711.664062 Z M 1234.71875 719.433594 C 1231.167969 724.828125 1226.089844 728.746094 1220.890625 732.449219 C 1215.605469 736.226562 1213.304688 741.40625 1213.203125 747.765625 C 1213.164062 749.90625 1213.789062 751.535156 1215.578125 752.851562 C 1218.765625 755.199219 1222.125 757.433594 1224.917969 760.210938 C 1228.707031 763.988281 1231.613281 768.851562 1229.164062 774.125 C 1226.714844 779.390625 1221.167969 780.351562 1215.773438 779.960938 C 1212.640625 779.726562 1209.5625 778.734375 1206.058594 778.007812 C 1197.324219 774.023438 1188.09375 770.265625 1179.285156 765.691406 C 1167.960938 759.800781 1156.382812 754.574219 1144.414062 750.179688 C 1142.1875 749.355469 1140.027344 748.300781 1138.015625 747.046875 C 1137.0625 746.464844 1136.574219 745.101562 1137.417969 743.941406 C 1138.351562 742.679688 1139.34375 741.417969 1140.476562 740.332031 C 1157.429688 724.304688 1176.945312 712.09375 1198.003906 702.351562 C 1205.582031 698.851562 1213.679688 696.535156 1222.179688 696.308594 C 1227.546875 696.160156 1232.617188 696.824219 1235.375 702.398438 C 1238.234375 708.195312 1238.300781 713.992188 1234.71875 719.433594 " fill-opacity="1" fill-rule="nonzero"/><path fill="#fef0f3" d="M 746.683594 380.644531 C 748.730469 393.527344 756.148438 402.328125 768.265625 407.003906 C 781.171875 411.988281 793.328125 406.171875 797.660156 393.078125 C 799.023438 388.964844 800.003906 384.738281 801.457031 379.464844 C 807.503906 381.765625 812.359375 383.496094 817.101562 385.449219 C 824.386719 388.433594 831.839844 388.84375 839.320312 386.675781 C 852.46875 382.859375 860.203125 372.292969 855.683594 357.390625 C 851.652344 344.082031 842.5 334.507812 832.289062 326.429688 C 815.128906 312.84375 796.828125 300.769531 776.195312 292.710938 C 770.175781 290.355469 764.347656 288.785156 757.679688 289.746094 C 750.21875 290.820312 746.535156 292.933594 745.148438 299.621094 C 744.515625 302.699219 744.484375 305.953125 744.515625 309.128906 C 744.636719 327.019531 744.746094 344.925781 745.121094 362.8125 C 745.242188 368.769531 745.757812 374.761719 746.683594 380.644531 Z M 758.175781 301.761719 C 758.28125 300.648438 759.289062 299.621094 760.703125 299.875 C 762.253906 300.144531 763.816406 300.472656 765.292969 301.023438 C 787.148438 309.167969 806.71875 321.296875 824.75 335.902344 C 831.230469 341.15625 836.898438 347.410156 840.835938 354.929688 C 843.332031 359.679688 844.976562 364.523438 841.191406 369.449219 C 837.242188 374.574219 832.0625 377.195312 825.609375 376.371094 C 819.203125 375.566406 813.445312 372.742188 807.8125 369.714844 C 802.101562 366.628906 796.441406 366.851562 790.683594 369.5625 C 788.746094 370.480469 787.558594 371.75 787.167969 373.9375 C 786.464844 377.839844 785.941406 381.832031 784.679688 385.5625 C 782.957031 390.628906 779.871094 395.378906 774.066406 395.5 C 768.265625 395.632812 764.945312 391.078125 762.925781 386.066406 C 761.738281 383.148438 761.28125 379.953125 760.394531 376.472656 C 760.113281 366.890625 759.421875 356.949219 759.644531 347.027344 C 759.925781 334.265625 759.523438 321.566406 758.195312 308.886719 C 757.941406 306.53125 757.941406 304.117188 758.175781 301.761719 " fill-opacity="1" fill-rule="nonzero"/><path fill="#fef0f3" d="M 871.722656 106.664062 C 859.023438 101.171875 846.621094 106.484375 841.777344 119.398438 C 840.253906 123.445312 839.105469 127.644531 837.441406 132.851562 C 831.484375 130.308594 826.714844 128.375 822.039062 126.234375 C 814.875 122.960938 807.457031 122.25 799.894531 124.121094 C 786.605469 127.402344 778.449219 137.648438 782.359375 152.734375 C 785.855469 166.179688 794.621094 176.109375 804.496094 184.597656 C 821.101562 198.859375 838.898438 211.667969 859.183594 220.550781 C 865.121094 223.152344 870.863281 224.957031 877.578125 224.265625 C 885.078125 223.488281 888.835938 221.515625 890.480469 214.894531 C 891.25 211.835938 891.398438 208.59375 891.5 205.421875 C 892.097656 187.535156 892.707031 169.648438 893.0625 151.75 C 893.175781 145.804688 892.902344 139.792969 892.210938 133.882812 C 890.695312 120.914062 883.625 111.824219 871.722656 106.664062 Z M 877.914062 166.945312 C 877.109375 179.691406 877.015625 192.378906 877.828125 205.113281 C 877.980469 207.472656 877.886719 209.894531 877.558594 212.230469 C 877.398438 213.332031 876.351562 214.324219 874.957031 214.027344 C 873.414062 213.6875 871.863281 213.296875 870.414062 212.6875 C 848.894531 203.664062 829.835938 190.761719 812.40625 175.4375 C 806.140625 169.929688 800.746094 163.457031 797.105469 155.78125 C 794.796875 150.929688 793.347656 146.027344 797.339844 141.257812 C 801.484375 136.292969 806.765625 133.882812 813.183594 134.957031 C 819.550781 136.023438 825.1875 139.082031 830.6875 142.335938 C 836.269531 145.652344 841.929688 145.652344 847.792969 143.175781 C 849.785156 142.34375 851.007812 141.109375 851.484375 138.949219 C 852.347656 135.078125 853.039062 131.113281 854.449219 127.429688 C 856.367188 122.4375 859.640625 117.816406 865.449219 117.921875 C 871.253906 118.03125 874.386719 122.71875 876.210938 127.804688 C 877.257812 130.769531 877.59375 133.984375 878.34375 137.492188 C 878.230469 147.074219 878.53125 157.042969 877.914062 166.945312 " fill-opacity="1" fill-rule="nonzero"/><path fill="#fef0f3" d="M 1321.800781 307.324219 C 1327.871094 329.179688 1339.015625 348.226562 1353.492188 365.476562 C 1355.007812 367.28125 1356.429688 369.28125 1357.347656 371.425781 C 1360.226562 378.175781 1360.675781 378.472656 1366.613281 374.808594 C 1368.96875 373.359375 1371.234375 371.6875 1373.316406 369.871094 C 1382.921875 361.511719 1392.421875 353.003906 1400.484375 343.109375 C 1410.613281 330.691406 1418.664062 317.152344 1422.851562 301.40625 C 1425.742188 290.523438 1418.980469 279.285156 1407.207031 278.125 C 1399.136719 277.328125 1391.355469 277.300781 1383.699219 280.199219 C 1381.144531 281.152344 1378.75 282.828125 1375.421875 282.460938 C 1373.402344 277.058594 1371.699219 271.34375 1368.613281 266.191406 C 1364.78125 259.816406 1359.777344 256.703125 1351.835938 257.722656 C 1342.410156 258.945312 1334.285156 262.171875 1327.1875 268.558594 C 1320.78125 274.335938 1317.949219 281.359375 1318.378906 289.792969 C 1318.675781 295.777344 1320.191406 301.554688 1321.800781 307.324219 Z M 1334.613281 280.835938 C 1335.472656 276.085938 1337.960938 272.953125 1342.980469 271.980469 C 1348.023438 271.015625 1352.699219 271.203125 1355.820312 275.796875 C 1357.824219 278.722656 1359.65625 281.929688 1360.695312 285.296875 C 1361.777344 288.800781 1363.5 291.699219 1365.648438 294.601562 C 1369.054688 299.179688 1370.585938 300.171875 1375.085938 297.152344 C 1382.222656 292.375 1389.691406 291.832031 1397.902344 292.730469 C 1406.449219 293.664062 1408.957031 299.582031 1406.730469 306.136719 C 1404.824219 311.75 1402.113281 317.152344 1399.289062 322.390625 C 1396.640625 327.28125 1393.367188 331.824219 1391.03125 335.480469 C 1385.671875 342.476562 1381.210938 348.609375 1375.542969 353.675781 C 1371.992188 356.847656 1369.914062 356.734375 1366.203125 353.527344 C 1364.996094 352.5 1363.675781 351.507812 1362.777344 350.234375 C 1351.203125 333.9375 1340.925781 316.964844 1335.789062 297.367188 C 1334.371094 291.917969 1333.59375 286.445312 1334.613281 280.835938 " fill-opacity="1" fill-rule="nonzero"/><path fill="#fef0f3" d="M 975.738281 328.636719 C 969.023438 331.871094 965.460938 336.574219 965.75 344.558594 C 966.097656 354.058594 968.574219 362.449219 974.28125 370.097656 C 979.460938 377.007812 986.183594 380.464844 994.621094 380.820312 C 1000.613281 381.066406 1006.503906 380.09375 1012.398438 379.027344 C 1034.710938 374.976562 1054.695312 365.625 1073.210938 352.796875 C 1075.136719 351.453125 1077.277344 350.226562 1079.492188 349.507812 C 1086.488281 347.253906 1086.816406 346.851562 1083.710938 340.585938 C 1082.488281 338.109375 1081.027344 335.703125 1079.410156 333.460938 C 1071.964844 323.128906 1064.355469 312.890625 1055.253906 303.960938 C 1043.808594 292.738281 1031.0625 283.480469 1015.773438 277.863281 C 1005.195312 273.980469 993.386719 279.675781 991.140625 291.300781 C 989.617188 299.265625 988.867188 307.007812 991.046875 314.910156 C 991.777344 317.535156 993.226562 320.0625 992.554688 323.351562 C 987 324.867188 981.136719 326.027344 975.738281 328.636719 Z M 994.019531 338.277344 C 997.621094 337.527344 1000.671875 336.078125 1003.738281 334.191406 C 1008.617188 331.226562 1009.742188 329.785156 1007.152344 325.027344 C 1003.046875 317.488281 1003.195312 310 1004.851562 301.902344 C 1006.550781 293.488281 1012.675781 291.53125 1019 294.347656 C 1024.421875 296.757812 1029.546875 299.949219 1034.503906 303.257812 C 1039.125 306.335938 1043.359375 310.019531 1046.78125 312.664062 C 1053.261719 318.640625 1058.957031 323.652344 1063.484375 329.765625 C 1066.316406 333.582031 1066.019531 335.648438 1062.472656 339.050781 C 1061.34375 340.15625 1060.238281 341.371094 1058.882812 342.15625 C 1041.59375 352.191406 1023.75 360.867188 1003.765625 364.175781 C 998.210938 365.09375 992.683594 365.363281 987.195312 363.832031 C 982.546875 362.542969 979.65625 359.78125 979.144531 354.6875 C 978.636719 349.582031 979.253906 344.953125 984.109375 342.25 C 987.214844 340.53125 990.578125 338.996094 994.019531 338.277344 " fill-opacity="1" fill-rule="nonzero"/><g clip-path="url(#405eb2ae00)"><path fill="#fef0f3" d="M 1395.875 787.570312 C 1393.132812 788.105469 1390.441406 788.871094 1388.234375 790.761719 C 1379.921875 797.886719 1378.722656 810.125 1385.738281 818.617188 C 1389.824219 823.554688 1394.714844 827.6875 1400.101562 831.164062 C 1404.429688 833.960938 1410.332031 835.738281 1412.753906 839.671875 C 1415.363281 843.929688 1410.320312 849.164062 1409.835938 854.242188 C 1409.574219 857.019531 1409.347656 859.796875 1409.265625 862.574219 C 1409.164062 865.863281 1410.507812 868.78125 1411.742188 871.53125 C 1413.371094 874.664062 1415.980469 876.449219 1418.738281 878.121094 C 1424.648438 881.75 1430.847656 884.285156 1437.355469 885.808594 L 1437.355469 874.898438 C 1434.832031 874.570312 1432.335938 874.046875 1429.914062 873.175781 C 1427.988281 872.484375 1426.398438 871.335938 1424.902344 868.699219 C 1423.328125 863.902344 1424.023438 858.449219 1427.238281 853.597656 C 1429.640625 849.96875 1432.839844 846.882812 1435.535156 843.441406 C 1438.976562 839.027344 1436.65625 832.667969 1431.195312 831.390625 C 1430.0625 831.125 1428.699219 830.882812 1427.695312 831.285156 C 1421.019531 833.941406 1416.34375 829.183594 1411.117188 826.824219 C 1406.28125 824.664062 1402.71875 820.832031 1400.121094 816.210938 C 1399.539062 815.183594 1399.117188 814.023438 1398.847656 812.882812 C 1397.761719 808.386719 1399.933594 803.851562 1404.113281 802.019531 C 1407.066406 800.71875 1410.210938 800.0625 1413.445312 800.429688 C 1419.375 801.09375 1425.414062 801.34375 1431.175781 802.730469 C 1433.242188 803.226562 1435.300781 803.75 1437.355469 804.253906 L 1437.355469 792.257812 C 1428.839844 789.945312 1420.160156 788.160156 1411.351562 787.1875 C 1406.160156 786.617188 1400.988281 786.582031 1395.875 787.570312 " fill-opacity="1" fill-rule="nonzero"/></g><path fill="#fef0f3" d="M 233.558594 196.289062 C 235.109375 201.269531 237.140625 206.023438 240.113281 210.304688 C 241.703125 212.59375 243.480469 214.765625 246.097656 216.027344 C 255.964844 220.777344 267.652344 216.960938 272.617188 207.125 C 275.5 201.410156 277.324219 195.277344 278.339844 188.9375 C 279.164062 183.859375 278.433594 177.746094 281.0625 173.941406 C 283.914062 169.84375 290.730469 172.359375 295.585938 170.761719 C 298.222656 169.890625 300.871094 168.984375 303.441406 167.9375 C 306.5 166.722656 308.632812 164.300781 310.652344 162.082031 C 312.859375 159.335938 313.445312 156.21875 313.886719 153.03125 C 315.496094 141.289062 313.988281 130.046875 309.210938 119.136719 C 307.023438 114.132812 303.964844 110.691406 298.859375 108.328125 C 277.648438 98.546875 255.457031 95.515625 232.386719 97.6875 C 225.609375 98.320312 225.570312 98.367188 224.289062 105.175781 C 223.859375 107.503906 223.496094 109.898438 223.496094 112.261719 C 223.523438 130.628906 224.832031 148.917969 227.246094 167.105469 C 228.554688 176.960938 230.566406 186.75 233.558594 196.289062 Z M 234.640625 116.628906 C 235.417969 116.425781 236.183594 116.210938 236.980469 116.117188 C 257.695312 113.527344 277.460938 116.5 296.109375 126.140625 C 298.679688 127.46875 300.617188 129.355469 301.703125 132.085938 C 303.308594 136.183594 304.5625 140.363281 304.863281 144.785156 C 305.003906 146.824219 304.589844 148.738281 302.777344 151.160156 C 299.007812 154.527344 293.742188 156.082031 288 155.078125 C 283.71875 154.339844 279.605469 152.648438 275.367188 151.5625 C 269.953125 150.1875 265.054688 154.855469 266.082031 160.371094 C 266.289062 161.503906 266.613281 162.859375 267.382812 163.617188 C 272.496094 168.664062 270.007812 174.855469 269.953125 180.589844 C 269.90625 185.878906 267.839844 190.6875 264.640625 194.933594 C 263.929688 195.867188 263.042969 196.71875 262.109375 197.429688 C 258.421875 200.222656 253.390625 200.046875 250.035156 196.960938 C 247.667969 194.773438 245.796875 192.164062 244.835938 189.058594 C 243.066406 183.363281 240.871094 177.726562 239.824219 171.890625 C 237.007812 156.210938 234.6875 140.445312 232.210938 124.699219 C 231.957031 123.128906 231.734375 121.53125 231.789062 119.949219 C 231.855469 118.210938 232.929688 117.070312 234.640625 116.628906 " fill-opacity="1" fill-rule="nonzero"/><g clip-path="url(#a5e1678465)"><path fill="#fef0f3" d="M 789.8125 -10.835938 C 792.964844 -10.21875 796.097656 -9.808594 799.304688 -10.378906 C 805.558594 -11.5 811.824219 -12.613281 818.089844 -13.707031 C 820.578125 -14.148438 821.933594 -12.875 821.4375 -10.480469 C 821.101562 -8.921875 820.402344 -7.441406 820.148438 -5.882812 C 817.625 9.660156 819.925781 23.515625 834.082031 33.121094 C 834.417969 33.34375 834.738281 33.578125 835.046875 33.832031 C 844.6875 41.628906 855.964844 41.730469 865.503906 34.1875 C 872.9375 28.304688 877.820312 20.710938 880.617188 11.746094 C 885.523438 -3.972656 887.992188 -20 886.609375 -36.550781 C 885.414062 -50.839844 884.140625 -65.136719 881.328125 -79.191406 C 880.8125 -81.761719 888.339844 -117.816406 825.441406 -82.492188 C 812.105469 -75.011719 801.195312 -67.753906 792.421875 -57.703125 C 785.203125 -49.445312 780.75 -39.757812 777.816406 -29.265625 C 775.691406 -21.683594 778.824219 -12.96875 789.8125 -10.835938 Z M 790.363281 -36.054688 C 792 -40.636719 794.957031 -44.40625 797.984375 -48.117188 C 805.691406 -57.570312 816.089844 -63.566406 826.078125 -70.203125 C 838.132812 -76.375 850.765625 -81.238281 863.765625 -85.128906 C 868.066406 -86.417969 869.515625 -85.5 870.207031 -80.789062 C 871.414062 -72.511719 872.285156 -64.183594 873.332031 -55.886719 C 874.023438 -50.351562 874.78125 -44.835938 875.519531 -39.320312 C 877.417969 -24.871094 876.304688 -10.6875 872.070312 3.253906 C 869.796875 10.742188 865.324219 16.558594 859.386719 21.65625 C 853.066406 27.089844 843.78125 26.386719 837.65625 20.675781 C 832.792969 16.109375 830.941406 10.171875 829.136719 3.925781 C 827.257812 -2.550781 831.296875 -9.753906 826.367188 -15.765625 C 826.105469 -16.09375 827.078125 -17.859375 827.855469 -18.53125 C 829.679688 -20.148438 831.222656 -21.898438 832.15625 -24.179688 C 832.921875 -26.042969 831.613281 -28.511719 829.707031 -28.6875 C 826.078125 -29.003906 822.589844 -28.265625 819.09375 -27.378906 C 814.855469 -26.320312 810.5625 -25.378906 806.234375 -24.703125 C 803.503906 -24.285156 800.652344 -24.199219 797.890625 -24.441406 C 790.851562 -25.078125 788.035156 -29.527344 790.363281 -36.054688 " fill-opacity="1" fill-rule="nonzero"/></g><path fill="#fef0f3" d="M 1413.679688 572.957031 C 1412.191406 570.789062 1404.917969 534.683594 1361.011719 591.929688 C 1351.707031 604.058594 1344.523438 615.027344 1340.417969 627.714844 C 1337.042969 638.140625 1336.761719 648.800781 1338.195312 659.609375 C 1339.230469 667.40625 1345.542969 674.1875 1356.484375 671.8125 C 1359.617188 671.136719 1362.667969 670.296875 1365.386719 668.511719 C 1370.699219 665.003906 1376.019531 661.527344 1381.351562 658.039062 C 1383.464844 656.664062 1385.214844 657.300781 1385.691406 659.703125 C 1386 661.253906 1385.933594 662.890625 1386.316406 664.425781 C 1390.121094 679.710938 1397.699219 691.542969 1414.484375 694.796875 C 1414.875 694.859375 1415.269531 694.953125 1415.652344 695.066406 C 1423.984375 697.421875 1431.558594 696 1437.355469 691.296875 L 1437.355469 661.898438 C 1436.65625 666.125 1435.226562 670.222656 1433.234375 674.289062 C 1429.558594 681.78125 1420.75 684.789062 1412.875 681.9375 C 1406.601562 679.667969 1402.558594 674.933594 1398.4375 669.902344 C 1394.164062 664.6875 1395.03125 656.476562 1388.148438 652.894531 C 1387.765625 652.699219 1387.980469 650.679688 1388.421875 649.753906 C 1389.46875 647.554688 1390.1875 645.347656 1390.152344 642.882812 C 1390.132812 640.871094 1387.945312 639.101562 1386.128906 639.703125 C 1382.660156 640.84375 1379.753906 642.890625 1376.882812 645.078125 C 1373.394531 647.722656 1369.832031 650.285156 1366.117188 652.605469 C 1363.769531 654.0625 1361.1875 655.269531 1358.5625 656.128906 C 1351.828125 658.320312 1347.5 655.34375 1347.058594 648.425781 C 1346.761719 643.574219 1347.996094 638.945312 1349.320312 634.324219 C 1352.679688 622.617188 1359.878906 613.003906 1366.445312 602.972656 C 1375.085938 592.546875 1384.792969 583.113281 1395.210938 574.40625 C 1398.652344 571.535156 1400.335938 571.796875 1402.832031 575.867188 C 1407.199219 582.992188 1411.277344 590.300781 1415.511719 597.519531 C 1418.328125 602.328125 1421.1875 607.105469 1424.039062 611.894531 C 1431.121094 623.804688 1435.550781 636.589844 1437.355469 650.269531 L 1437.355469 614.148438 C 1436.703125 612.78125 1436.046875 611.417969 1435.335938 610.070312 C 1428.613281 597.398438 1421.816406 584.765625 1413.679688 572.957031 " fill-opacity="1" fill-rule="nonzero"/><path fill="#fef0f3" d="M 1138.164062 594.34375 C 1138.484375 588.730469 1135.734375 584.542969 1130.628906 581.804688 C 1124.8125 578.671875 1118.628906 577.652344 1112.160156 578.007812 C 1108.996094 578.164062 1105.847656 578.734375 1102.675781 578.996094 C 1100.1875 579.203125 1098.765625 577.773438 1099.1875 575.546875 C 1099.5625 573.59375 1099.890625 571.582031 1100.628906 569.757812 C 1104.105469 561.109375 1101.667969 553.246094 1097.222656 545.898438 C 1091.023438 535.640625 1083.414062 532.917969 1071.769531 535.964844 C 1058.941406 539.34375 1050.578125 547.597656 1044.621094 559.222656 C 1035.71875 576.632812 1032.8125 595.417969 1030.578125 614.445312 C 1030.117188 618.363281 1030.566406 622.421875 1029.902344 626.300781 C 1029.371094 629.378906 1025.84375 635.308594 1031.484375 635.570312 C 1036.207031 635.773438 1040.871094 636.664062 1045.699219 636.027344 C 1067.421875 633.203125 1089.015625 629.816406 1110.402344 625.03125 C 1115.140625 623.964844 1119.339844 621.859375 1123.660156 619.832031 C 1134.574219 614.726562 1137.539062 605.113281 1138.164062 594.34375 Z M 1122.0625 605.769531 C 1119.292969 607.265625 1116.273438 608.394531 1113.253906 609.367188 C 1109.859375 610.460938 1106.371094 611.359375 1102.863281 612.050781 C 1084.125 615.773438 1065.390625 619.449219 1046.632812 623.039062 C 1042.890625 623.757812 1040.984375 622.167969 1041.640625 618.757812 C 1044.359375 604.730469 1046.921875 590.640625 1050.28125 576.753906 C 1052.179688 568.972656 1056.59375 562.183594 1062.410156 556.507812 C 1066.28125 552.84375 1070.761719 550.386719 1076.050781 549.597656 C 1081.589844 548.777344 1086.75 551.207031 1088.6875 556.433594 C 1090.585938 561.578125 1092.445312 567.1875 1089.472656 572.535156 C 1086.890625 577.191406 1086.601562 582.375 1085.21875 587.292969 C 1084.421875 590.105469 1085.882812 591.863281 1088.984375 591.875 C 1093.753906 591.882812 1098.523438 591.621094 1103.265625 591.285156 C 1110.269531 590.769531 1116.742188 592.191406 1122.5 596.269531 C 1126.570312 599.148438 1126.417969 603.382812 1122.0625 605.769531 " fill-opacity="1" fill-rule="nonzero"/><g clip-path="url(#cc490eb199)"><path fill="#fef0f3" d="M 270.703125 13.773438 C 280.800781 22.375 292.351562 24.507812 305.292969 22.75 C 324.660156 20.105469 341.753906 11.746094 358.632812 2.710938 C 362.113281 0.839844 365.1875 -1.84375 368.753906 -3.515625 C 371.585938 -4.84375 378.46875 -5.328125 375.457031 -10.109375 C 372.921875 -14.109375 370.988281 -18.429688 367.695312 -22.039062 C 352.976562 -38.242188 337.855469 -54.027344 321.703125 -68.839844 C 318.113281 -72.128906 313.980469 -74.355469 309.847656 -76.738281 C 299.421875 -82.769531 289.835938 -79.703125 280.640625 -74.066406 C 275.84375 -71.128906 273.992188 -66.472656 274.648438 -60.714844 C 275.414062 -54.160156 278.109375 -48.511719 282.089844 -43.394531 C 284.046875 -40.898438 286.300781 -38.636719 288.328125 -36.175781 C 289.917969 -34.261719 289.574219 -32.277344 287.496094 -31.351562 C 285.683594 -30.539062 283.839844 -29.660156 281.921875 -29.21875 C 272.84375 -27.125 267.785156 -20.628906 264.285156 -12.78125 C 259.414062 -1.84375 261.535156 5.964844 270.703125 13.773438 Z M 277.816406 -11.800781 C 280.949219 -16.296875 284.496094 -21.03125 290.582031 -21.65625 C 295.875 -22.1875 300.289062 -24.929688 305.113281 -26.59375 C 307.875 -27.554688 308.492188 -29.753906 306.722656 -32.304688 C 304.011719 -36.234375 301.074219 -39.984375 298.074219 -43.6875 C 293.648438 -49.148438 291.117188 -55.261719 291.171875 -62.3125 C 291.210938 -67.304688 294.773438 -69.605469 299.214844 -67.378906 C 302.039062 -65.96875 304.683594 -64.144531 307.210938 -62.226562 C 310.042969 -60.066406 312.773438 -57.710938 315.355469 -55.222656 C 329.109375 -41.992188 342.847656 -28.714844 356.519531 -15.382812 C 359.242188 -12.714844 359.027344 -10.25 355.847656 -8.835938 C 342.78125 -3.046875 329.765625 2.90625 316.441406 8.078125 C 308.976562 10.988281 300.886719 11.238281 292.902344 9.714844 C 287.683594 8.628906 283.09375 6.359375 279.425781 2.460938 C 275.59375 -1.609375 274.636719 -7.226562 277.816406 -11.800781 " fill-opacity="1" fill-rule="nonzero"/></g><path fill="#fef0f3" d="M 1249.570312 104.324219 C 1245.191406 109.269531 1242.78125 115.050781 1241.628906 121.425781 C 1241.078125 124.550781 1240.902344 127.738281 1240.425781 130.890625 C 1240.058594 133.347656 1238.339844 134.40625 1236.273438 133.488281 C 1234.449219 132.675781 1232.570312 131.898438 1230.960938 130.769531 C 1223.347656 125.402344 1215.128906 125.960938 1206.945312 128.597656 C 1195.535156 132.273438 1191.140625 139.0625 1191.449219 151.085938 C 1191.785156 164.355469 1197.902344 174.386719 1207.863281 182.851562 C 1222.75 195.503906 1240.378906 202.65625 1258.378906 209.191406 C 1262.089844 210.539062 1266.140625 211.035156 1269.769531 212.566406 C 1272.648438 213.792969 1277.605469 218.589844 1279.148438 213.164062 C 1280.4375 208.613281 1282.367188 204.273438 1282.871094 199.429688 C 1285.105469 177.652344 1286.769531 155.847656 1287.003906 133.9375 C 1287.070312 129.074219 1285.976562 124.511719 1284.992188 119.835938 C 1282.523438 108.046875 1273.847656 102.960938 1263.511719 99.882812 C 1258.125 98.265625 1253.402344 99.996094 1249.570312 104.324219 Z M 1261.78125 115.554688 C 1265.53125 112.261719 1269.621094 113.367188 1270.929688 118.164062 C 1271.75 121.210938 1272.164062 124.410156 1272.414062 127.550781 C 1272.707031 131.125 1272.78125 134.714844 1272.648438 138.296875 C 1271.964844 157.378906 1271.246094 176.464844 1270.441406 195.539062 C 1270.285156 199.34375 1268.292969 200.832031 1265.128906 199.410156 C 1252.085938 193.546875 1238.964844 187.824219 1226.21875 181.363281 C 1219.074219 177.734375 1213.480469 171.882812 1209.292969 164.925781 C 1206.609375 160.304688 1205.253906 155.371094 1205.703125 150.050781 C 1206.167969 144.476562 1209.714844 140.015625 1215.25 139.332031 C 1220.691406 138.660156 1226.582031 138.128906 1231.109375 142.261719 C 1235.039062 145.839844 1240.023438 147.300781 1244.492188 149.777344 C 1247.042969 151.199219 1249.09375 150.179688 1249.8125 147.160156 C 1250.917969 142.53125 1251.765625 137.828125 1252.515625 133.132812 C 1253.628906 126.203125 1256.488281 120.230469 1261.78125 115.554688 " fill-opacity="1" fill-rule="nonzero"/><path fill="#fef0f3" d="M 430.921875 84.921875 C 434.203125 86.257812 437.8125 86.820312 441.246094 87.820312 C 443.640625 88.523438 444.460938 90.1875 442.929688 92.28125 C 436.691406 100.847656 435.382812 110.488281 436.027344 120.699219 C 436.839844 133.789062 444.828125 142.035156 457.769531 143.25 C 467.523438 144.167969 475.835938 141.382812 482.726562 134.378906 C 490.023438 126.960938 496.90625 119.183594 502.125 110.1875 C 510.511719 95.730469 520.488281 82.238281 527.839844 67.164062 C 529.308594 64.144531 529.214844 62.105469 526.660156 60.152344 C 522.480469 56.9375 517.542969 55.335938 512.53125 54.074219 C 497.867188 50.34375 483.203125 46.574219 468.449219 43.164062 C 462.265625 41.730469 455.90625 40.851562 449.585938 40.246094 C 444.84375 39.785156 440.011719 40.066406 434.800781 42.59375 C 430.621094 44.246094 426.722656 47.773438 423.269531 51.597656 C 413.117188 62.816406 416.929688 79.226562 430.921875 84.921875 Z M 435.25 59.488281 C 437.15625 55.429688 440.214844 53.140625 444.703125 53.738281 C 451.027344 54.589844 457.339844 55.625 463.566406 56.90625 C 478.417969 59.964844 493.21875 63.21875 508.042969 66.371094 C 509.210938 66.613281 510.425781 66.652344 512.324219 66.855469 C 511.753906 69.550781 511.820312 70.457031 511.417969 71.054688 C 500.804688 86.96875 491.902344 104.035156 479.53125 118.761719 C 476.722656 122.117188 473.871094 125.523438 470.5625 128.355469 C 461.976562 135.722656 449.847656 131.152344 447.855469 120.128906 C 445.613281 107.632812 448.699219 97.21875 459.179688 89.484375 C 460.460938 88.53125 461.789062 87.632812 462.949219 86.539062 C 464.773438 84.828125 464.175781 81.734375 461.957031 80.488281 C 458.359375 78.480469 454.355469 78.253906 450.410156 77.65625 C 445.105469 76.863281 440.488281 74.644531 436.925781 70.570312 C 434.042969 67.277344 433.324219 63.601562 435.25 59.488281 " fill-opacity="1" fill-rule="nonzero"/><path fill="#fef0f3" d="M 424.851562 316.199219 C 435.222656 316.816406 445.621094 316.871094 455.824219 314.882812 C 472.226562 311.675781 488.964844 310.308594 505.152344 305.921875 C 508.398438 305.054688 509.855469 303.632812 509.652344 300.425781 C 509.3125 295.160156 507.277344 290.390625 504.9375 285.792969 C 498.082031 272.289062 491.273438 258.777344 484.140625 245.414062 C 481.148438 239.824219 477.632812 234.457031 473.929688 229.285156 C 471.140625 225.425781 467.757812 221.972656 462.425781 219.710938 C 458.421875 217.652344 453.195312 217.035156 448.0625 216.953125 C 432.929688 216.691406 423.074219 230.351562 427.992188 244.628906 C 429.152344 247.996094 431.109375 251.074219 432.613281 254.316406 C 433.660156 256.589844 432.941406 258.292969 430.351562 258.523438 C 419.800781 259.460938 411.683594 264.828125 404.410156 272.027344 C 395.105469 281.257812 394.132812 292.691406 401.734375 303.238281 C 407.46875 311.179688 415.03125 315.621094 424.851562 316.199219 Z M 412.636719 280.554688 C 420.558594 270.652344 430.433594 266.136719 443.160156 268.921875 C 444.714844 269.257812 446.277344 269.671875 447.847656 269.828125 C 450.351562 270.0625 452.28125 267.578125 451.757812 265.089844 C 450.90625 261.058594 448.425781 257.890625 446.285156 254.53125 C 443.40625 250.015625 442.03125 245.078125 442.75 239.722656 C 443.332031 235.382812 445.621094 232.417969 449.996094 231.164062 C 454.308594 229.941406 458.039062 230.726562 460.546875 234.503906 C 464.0625 239.824219 467.4375 245.246094 470.570312 250.792969 C 478.042969 263.976562 485.335938 277.265625 492.714844 290.503906 C 493.296875 291.542969 494.082031 292.476562 495.175781 294.039062 C 492.773438 295.386719 492.125 296.019531 491.40625 296.113281 C 472.441406 298.601562 453.738281 303.136719 434.503906 303.519531 C 430.125 303.605469 425.683594 303.699219 421.371094 303.070312 C 410.179688 301.464844 405.625 289.308594 412.636719 280.554688 " fill-opacity="1" fill-rule="nonzero"/><path fill="#fef0f3" d="M 213.265625 560.351562 C 214.125 570.554688 218.839844 578.484375 228.863281 582.550781 C 233.835938 584.570312 238.867188 585.367188 244.050781 584.007812 C 247.117188 583.195312 250.082031 581.960938 253.046875 580.785156 C 260.097656 577.96875 260.472656 577.867188 261.648438 584.824219 C 263.425781 595.316406 269.242188 603.148438 277.089844 609.660156 C 288.039062 618.757812 302.046875 616.96875 310.558594 605.601562 C 313.464844 601.710938 315.390625 597.210938 315.871094 592.433594 C 316.515625 586.105469 317.105469 579.652344 316.609375 573.351562 C 315.261719 556.171875 311.640625 539.398438 305.917969 523.136719 C 304.609375 519.398438 302.609375 515.898438 300.785156 512.375 C 299.792969 510.457031 297.960938 509.511719 295.855469 509.503906 C 287.898438 509.511719 279.707031 508.390625 272.066406 509.960938 C 257.984375 512.851562 244.339844 517.609375 232.078125 525.445312 C 227.046875 528.652344 222.296875 532.367188 219.34375 537.519531 C 214.011719 544.417969 212.582031 552.28125 213.265625 560.351562 Z M 289.695312 514.21875 C 291.863281 521.417969 294.023438 528.605469 296.195312 535.808594 C 300.355469 549.5625 302.617188 563.691406 303.851562 577.96875 C 304.339844 583.53125 304.039062 589.125 302.242188 594.480469 C 300.625 599.296875 297.183594 601.449219 292.125 600.8125 C 284.933594 599.933594 279.707031 595.707031 275.507812 590.210938 C 272.074219 585.730469 270.886719 580.136719 269.09375 574.894531 C 268.402344 572.882812 269.140625 570.984375 270.140625 569.21875 C 271.273438 567.207031 271.027344 565.253906 269.269531 563.914062 C 267.371094 562.476562 265.148438 561.417969 262.660156 562.726562 C 257.675781 565.347656 252.335938 566.710938 246.882812 568 C 241.476562 569.28125 236.738281 568.300781 231.976562 565.8125 C 225.84375 562.605469 223.664062 557.472656 225.945312 551.019531 C 227.628906 546.28125 230.984375 542.867188 235.25 540.558594 C 240.832031 537.519531 246.472656 534.460938 252.402344 532.234375 C 264.746094 527.597656 276.441406 521.800781 287.5625 514.742188 C 288.140625 514.375 288.972656 514.386719 289.695312 514.21875 " fill-opacity="1" fill-rule="nonzero"/><path fill="#fef0f3" d="M 1427.324219 477.09375 C 1428.941406 478.171875 1430.941406 478.804688 1432.859375 479.273438 C 1434.355469 479.636719 1435.859375 480.003906 1437.355469 480.367188 L 1437.355469 468.808594 C 1435.542969 468.457031 1433.71875 468.117188 1431.914062 467.761719 C 1428.15625 467.035156 1427.15625 465.089844 1429.332031 461.871094 C 1431.988281 457.964844 1434.671875 454.074219 1437.355469 450.183594 L 1437.355469 432.257812 C 1431.746094 440.449219 1426.359375 448.78125 1421.273438 457.320312 C 1414.867188 468.0625 1416.289062 469.839844 1427.324219 477.09375 " fill-opacity="1" fill-rule="nonzero"/><path fill="#fef0f3" d="M 513.28125 407.976562 C 504.824219 406.347656 496.558594 407.085938 489.011719 411.660156 C 479.839844 417.203125 478.082031 428.183594 485.121094 436.175781 C 487.214844 438.550781 489.6875 440.683594 492.257812 442.527344 C 502.320312 449.746094 512.632812 456.671875 524.164062 461.292969 C 543.046875 468.847656 562.207031 475.710938 581.796875 481.164062 C 593.851562 484.511719 595.199219 482.667969 599.292969 470.121094 C 599.894531 468.269531 599.988281 466.171875 599.929688 464.199219 C 599.519531 448.652344 599.089844 433.101562 596.992188 417.664062 C 596.152344 410.460938 593.890625 403.617188 591.421875 396.886719 C 587.625 386.5625 580.609375 379.558594 569.820312 376.183594 C 556.902344 372.152344 547.160156 375.464844 540.453125 387.273438 C 537.292969 392.828125 534.910156 398.785156 533.703125 405.113281 C 533.179688 407.816406 533.703125 411.519531 532.113281 413.042969 C 529.34375 415.679688 526.390625 412.128906 523.5 411.238281 C 520.085938 410.183594 516.765625 408.648438 513.28125 407.976562 Z M 533.507812 426.085938 C 537.761719 428.472656 544.8125 425.808594 546.242188 421.152344 C 546.933594 418.90625 546.925781 416.457031 547.261719 414.089844 C 548.664062 404.300781 553.144531 396.015625 559.832031 388.871094 C 564.03125 384.382812 568.96875 384.308594 573.390625 388.648438 C 576.5625 391.753906 578.851562 395.519531 580.132812 399.773438 C 582.648438 408.152344 585.238281 416.53125 585.761719 425.339844 C 586.867188 439.609375 587.996094 453.878906 589.074219 468.148438 C 589.363281 471.960938 587.753906 473.4375 584.070312 472.1875 C 572.042969 468.0625 560.046875 463.816406 548.105469 459.441406 C 533.871094 454.234375 520.039062 448.15625 507.761719 439.066406 C 504.890625 436.933594 501.972656 434.800781 499.46875 432.277344 C 495.148438 427.921875 495.820312 423.628906 501.496094 420.898438 C 508.519531 417.542969 515.898438 416.148438 523.265625 420.007812 C 526.773438 421.851562 530.046875 424.144531 533.507812 426.085938 " fill-opacity="1" fill-rule="nonzero"/><path fill="#fef0f3" d="M 1033.800781 121.136719 C 1032.894531 122.847656 1032.457031 124.90625 1032.183594 126.859375 C 1029.996094 142.261719 1027.835938 157.660156 1027.320312 173.238281 C 1026.949219 180.484375 1028.03125 187.601562 1029.351562 194.652344 C 1031.363281 205.460938 1037.113281 213.53125 1047.183594 218.652344 C 1059.257812 224.789062 1069.414062 223.160156 1077.996094 212.625 C 1082.027344 207.675781 1085.386719 202.207031 1087.628906 196.15625 C 1088.59375 193.585938 1088.6875 189.84375 1090.511719 188.609375 C 1093.691406 186.460938 1096.007812 190.460938 1098.703125 191.828125 C 1101.910156 193.4375 1104.921875 195.511719 1108.242188 196.746094 C 1116.3125 199.757812 1124.585938 200.410156 1132.777344 197.15625 C 1142.757812 193.21875 1146.328125 182.691406 1140.710938 173.640625 C 1139.035156 170.949219 1136.96875 168.433594 1134.742188 166.1875 C 1126.007812 157.390625 1117.011719 148.84375 1106.40625 142.363281 C 1089.050781 131.757812 1071.3125 121.808594 1052.890625 113.160156 C 1041.5625 107.839844 1039.929688 109.4375 1033.800781 121.136719 Z M 1118.875 167.019531 C 1121.34375 169.589844 1123.867188 172.183594 1125.90625 175.089844 C 1129.460938 180.109375 1128.066406 184.234375 1122.015625 185.964844 C 1114.523438 188.105469 1107.035156 188.265625 1100.414062 183.214844 C 1097.253906 180.8125 1094.410156 178.007812 1091.324219 175.511719 C 1087.519531 172.445312 1080.128906 173.902344 1077.933594 178.269531 C 1076.886719 180.363281 1076.484375 182.777344 1075.753906 185.046875 C 1072.734375 194.464844 1066.933594 201.886719 1059.15625 207.816406 C 1054.273438 211.539062 1049.382812 210.800781 1045.753906 205.777344 C 1043.152344 202.1875 1041.519531 198.082031 1040.964844 193.679688 C 1039.882812 185 1038.722656 176.316406 1039.675781 167.535156 C 1040.964844 153.285156 1042.226562 139.023438 1043.539062 124.785156 C 1043.894531 120.960938 1045.734375 119.773438 1049.148438 121.632812 C 1060.332031 127.691406 1071.441406 133.890625 1082.496094 140.195312 C 1095.664062 147.710938 1108.277344 156.003906 1118.875 167.019531 " fill-opacity="1" fill-rule="nonzero"/><path fill="#fef0f3" d="M 981.425781 760.148438 C 992.105469 759.398438 1002.773438 758.5 1014.371094 757.601562 C 1013.949219 751.234375 1013.519531 745.699219 1013.21875 740.15625 C 1012.96875 735.339844 1012.03125 730.710938 1010.132812 726.261719 C 1007.945312 721.15625 1006.039062 715.882812 1003.523438 710.925781 C 998.667969 701.378906 994.339844 691.402344 986.941406 683.445312 C 973.203125 668.667969 967.40625 668.6875 950.089844 675.851562 C 943.824219 678.433594 941.277344 683.304688 941.578125 690.09375 C 941.746094 693.90625 944.179688 697.621094 942.484375 701.480469 C 927.925781 702.847656 920.929688 704.894531 912.746094 710.101562 C 904.386719 715.421875 901.152344 723.425781 904.582031 732.675781 C 908.175781 742.371094 914.335938 750.273438 924.859375 752.964844 C 943.375 757.695312 962.105469 761.484375 981.425781 760.148438 Z M 935.089844 742.324219 C 930.722656 741.332031 926.933594 739.285156 923.445312 736.519531 C 919.320312 733.234375 917.683594 729.1875 918.609375 723.902344 C 920.367188 713.992188 928.269531 708.90625 937.808594 711.933594 C 940.445312 712.777344 942.839844 714.347656 945.441406 715.300781 C 949.164062 716.683594 952.882812 718.179688 956.980469 718.125 C 959.75 718.085938 961.300781 716.46875 960.992188 713.550781 C 960.476562 708.785156 959.515625 704.117188 957.335938 699.777344 C 955.707031 696.535156 954.792969 693.121094 954.875 689.4375 C 955.027344 682.59375 961.496094 678.722656 967.519531 682.132812 C 974.261719 685.960938 979.535156 691.523438 983.164062 698.226562 C 991.308594 713.289062 998.789062 728.683594 1004.925781 744.691406 C 1005.167969 745.308594 1004.792969 746.1875 1004.636719 747.53125 C 994.113281 748.589844 983.445312 749.683594 972.738281 748.785156 C 960.027344 747.699219 947.535156 745.128906 935.089844 742.324219 " fill-opacity="1" fill-rule="nonzero"/><g clip-path="url(#72aaa0fd46)"><path fill="#fef0f3" d="M 1182.34375 42.03125 C 1188.363281 45.125 1193.722656 43.890625 1198.699219 39.261719 C 1201.492188 36.671875 1202.738281 32.410156 1206.777344 31.195312 C 1217.261719 41.386719 1223.347656 45.398438 1232.625 48.238281 C 1242.089844 51.15625 1250.28125 48.425781 1255.097656 39.824219 C 1260.15625 30.800781 1262.175781 21 1257.40625 11.238281 C 1249 -5.9375 1239.75 -22.648438 1226.199219 -36.476562 C 1218.710938 -44.125 1211.105469 -51.671875 1202.90625 -59.910156 C 1198.332031 -55.46875 1194.394531 -51.550781 1190.367188 -47.726562 C 1186.867188 -44.414062 1183.941406 -40.703125 1181.789062 -36.375 C 1179.320312 -31.390625 1176.542969 -26.519531 1174.394531 -21.394531 C 1170.269531 -11.511719 1165.492188 -1.738281 1164.21875 9.050781 C 1161.871094 29.082031 1165.648438 33.476562 1182.34375 42.03125 Z M 1177.929688 2.335938 C 1184.109375 -13.625 1190.992188 -29.296875 1199.191406 -44.351562 C 1199.511719 -44.9375 1200.410156 -45.230469 1201.550781 -45.984375 C 1209.179688 -38.644531 1216.921875 -31.238281 1223.171875 -22.496094 C 1230.605469 -12.128906 1236.738281 -0.945312 1242.667969 10.332031 C 1244.753906 14.316406 1245.652344 18.523438 1245.792969 22.972656 C 1245.980469 28.238281 1243.957031 32.121094 1239.328125 34.832031 C 1230.640625 39.925781 1221.644531 37.195312 1217.773438 27.976562 C 1216.699219 25.425781 1216.34375 22.589844 1215.390625 19.980469 C 1214.035156 16.242188 1212.753906 12.457031 1210.058594 9.371094 C 1208.226562 7.292969 1205.984375 7.152344 1203.972656 9.285156 C 1200.671875 12.765625 1197.742188 16.511719 1195.855469 21 C 1194.441406 24.339844 1192.433594 27.257812 1189.570312 29.574219 C 1184.257812 33.894531 1177.125 31.472656 1175.816406 24.6875 C 1174.363281 17.074219 1175.179688 9.453125 1177.929688 2.335938 " fill-opacity="1" fill-rule="nonzero"/></g><path fill="#fef0f3" d="M 486.179688 571.300781 C 491.628906 571.378906 496.464844 569.171875 500.363281 565.859375 C 507.078125 560.148438 509.960938 542.707031 505.828125 534.515625 C 501.140625 525.25 494.371094 518.117188 483.605469 516.273438 C 464.679688 513.011719 445.675781 511.535156 426.609375 515.28125 C 424.28125 515.742188 421.914062 516.332031 419.773438 517.320312 C 417.519531 518.367188 415.828125 520.21875 416.585938 523.042969 C 419.277344 533.105469 419.503906 543.503906 420.960938 553.734375 C 422.542969 564.878906 425.972656 575.453125 430.554688 585.664062 C 433.332031 591.84375 436.785156 597.652344 441.648438 602.550781 C 449.960938 610.929688 463.949219 613.324219 474.546875 607.964844 C 484.007812 603.179688 486.066406 598.847656 483.203125 588.722656 C 482.015625 584.523438 480.335938 580.457031 478.820312 576.351562 C 478.257812 574.855469 477.511719 573.433594 478.109375 571.730469 C 480.707031 570.328125 483.476562 571.265625 486.179688 571.300781 Z M 474.058594 561.785156 C 468.195312 562.109375 465.558594 565.933594 467.054688 571.453125 C 467.886719 574.519531 469.140625 577.472656 469.945312 580.539062 C 471.308594 585.636719 469.804688 589.085938 465.410156 591.535156 C 458.285156 595.511719 447.5 592.984375 443.113281 586.1875 C 440.289062 581.8125 438.402344 576.976562 437.148438 571.929688 C 434.257812 560.363281 432.875 548.441406 429.058594 537.058594 C 427.945312 533.703125 429.351562 531.367188 432.546875 530.664062 C 450.324219 526.757812 468.074219 527.066406 485.738281 531.523438 C 486.507812 531.722656 487.226562 532.085938 487.972656 532.375 C 494.59375 535.265625 496.632812 538.304688 496.523438 545.15625 C 496.410156 553.199219 493.652344 557.285156 486.953125 559.933594 C 482.765625 561.585938 478.4375 561.550781 474.058594 561.785156 " fill-opacity="1" fill-rule="nonzero"/><path fill="#fef0f3" d="M 206.511719 377.679688 C 213.03125 375.800781 219.269531 373.21875 224.8125 369.097656 C 234.277344 362.074219 238.636719 348.550781 234.847656 337.304688 C 231.445312 327.261719 227.449219 324.613281 217.023438 326.007812 C 212.683594 326.589844 208.429688 327.671875 204.148438 328.597656 C 202.59375 328.933594 201.070312 329.476562 199.472656 328.636719 C 198.453125 325.867188 199.78125 323.269531 200.199219 320.59375 C 201.042969 315.207031 199.554688 310.101562 196.816406 305.773438 C 192.121094 298.3125 175.261719 292.992188 166.574219 295.917969 C 156.726562 299.238281 148.710938 304.921875 145.355469 315.3125 C 139.433594 333.589844 135.273438 352.191406 136.273438 371.59375 C 136.40625 373.957031 136.65625 376.390625 137.332031 378.652344 C 138.042969 381.027344 139.640625 382.960938 142.539062 382.617188 C 152.882812 381.375 163.207031 382.636719 173.546875 382.652344 C 184.796875 382.671875 195.769531 380.765625 206.511719 377.679688 Z M 152.347656 367.898438 C 151.011719 349.738281 153.828125 332.21875 160.757812 315.386719 C 161.054688 314.648438 161.523438 313.992188 161.914062 313.300781 C 165.722656 307.148438 169.011719 305.558594 175.792969 306.644531 C 183.722656 307.894531 187.390625 311.207031 189.054688 318.210938 C 190.089844 322.59375 189.425781 326.867188 189.054688 331.234375 C 188.539062 337.089844 191.960938 340.230469 197.628906 339.539062 C 200.78125 339.144531 203.894531 338.339844 207.046875 337.957031 C 212.28125 337.351562 215.480469 339.324219 217.285156 344.027344 C 220.203125 351.636719 216.171875 361.941406 208.824219 365.328125 C 204.082031 367.496094 199.03125 368.683594 193.859375 369.207031 C 181.992188 370.414062 169.996094 370.105469 158.195312 372.265625 C 154.707031 372.890625 152.59375 371.152344 152.347656 367.898438 " fill-opacity="1" fill-rule="nonzero"/><g clip-path="url(#821d4e8527)"><path fill="#fef0f3" d="M 605.699219 39.308594 C 608.046875 51.136719 612.320312 62.460938 619.054688 72.429688 C 620.449219 73.992188 621.515625 75.589844 622.945312 76.722656 C 629.042969 81.5 635.765625 84.277344 643.601562 81.648438 C 651.4375 79.023438 655.871094 73.5625 656.171875 65.144531 C 656.375 59.132812 656.441406 53.113281 656.375 47.109375 C 656.339844 42.964844 654.273438 37.71875 656.113281 34.953125 C 659.023438 30.566406 664.632812 34.558594 669.085938 34.335938 C 678.285156 33.859375 686.125 30.464844 692.78125 24.144531 C 698.5625 18.636719 697.476562 11.453125 697.550781 4.582031 C 697.578125 1.824219 697.476562 -1.007812 696.980469 -3.722656 C 694.988281 -14.671875 689.425781 -22.132812 677.914062 -24.992188 C 665.109375 -28.171875 652.140625 -27.800781 639.214844 -27.949219 C 633.753906 -28.015625 628.265625 -26.339844 622.839844 -25.171875 C 620.148438 -24.582031 617.558594 -23.433594 614.976562 -22.433594 C 612.480469 -21.460938 610.488281 -21.75 609.253906 -24.339844 C 608.65625 -25.59375 608.160156 -26.902344 607.589844 -28.164062 C 606.792969 -29.902344 605.726562 -31.417969 603.605469 -31.511719 C 600.527344 -31.652344 598.273438 -30.15625 596.742188 -27.613281 C 594.703125 -24.179688 595.246094 -20.523438 595.898438 -16.8125 C 599.171875 1.890625 601.996094 20.691406 605.699219 39.308594 Z M 617.765625 -10.828125 C 627.332031 -12.539062 636.832031 -14.296875 646.695312 -12.269531 C 652.550781 -11.0625 658.6875 -11.203125 664.625 -10.257812 C 677.277344 -8.257812 683.363281 -0.515625 682.4375 11.882812 C 682 17.839844 678.035156 22.273438 672.105469 23.21875 C 670.292969 23.507812 668.207031 23.890625 666.597656 23.292969 C 656.441406 19.421875 651.550781 27.492188 645.292969 32.445312 C 643.257812 34.054688 643.378906 36.46875 643.246094 38.785156 C 642.816406 46.183594 642.414062 53.570312 641.804688 60.945312 C 641.628906 63.152344 641.414062 65.773438 638.429688 66.277344 C 636.34375 66.625 635.09375 65.050781 633.859375 63.734375 C 632.902344 62.722656 632.136719 61.554688 629.921875 58.664062 C 626.777344 53.925781 623.167969 46.847656 621.402344 39.167969 C 618.175781 25.191406 615.492188 11.082031 612.824219 -3.03125 C 611.761719 -8.707031 612.609375 -9.902344 617.765625 -10.828125 " fill-opacity="1" fill-rule="nonzero"/></g><g clip-path="url(#69ad0e26df)"><path fill="#fef0f3" d="M 239.609375 793.453125 C 235.632812 786.375 229.535156 783.101562 221.371094 784.375 C 215.519531 785.28125 209.710938 786.328125 203.921875 787.496094 C 199.929688 788.3125 195.253906 791.265625 192.25 789.992188 C 187.472656 788.003906 190.289062 781.859375 189.25 777.605469 C 187.097656 768.816406 182.375 761.867188 175.046875 756.628906 C 168.667969 752.078125 161.933594 754.441406 155.292969 755.640625 C 152.609375 756.125 149.917969 756.742188 147.375 757.714844 C 137.191406 761.660156 131.019531 768.414062 130.382812 780.042969 C 129.679688 792.984375 132.429688 805.421875 134.675781 817.925781 C 135.617188 823.199219 138.257812 828.191406 140.386719 833.191406 C 141.4375 835.691406 143.035156 837.972656 144.484375 840.28125 C 145.878906 842.515625 145.960938 844.488281 143.699219 846.164062 C 142.59375 846.964844 141.425781 847.6875 140.324219 848.472656 C 138.78125 849.558594 137.515625 850.847656 137.816406 852.933594 C 138.257812 855.914062 140.109375 857.824219 142.847656 858.8125 C 146.53125 860.167969 149.964844 858.953125 153.425781 857.644531 C 170.875 851.042969 188.484375 844.84375 205.753906 837.832031 C 216.742188 833.378906 226.871094 827.164062 235.25 818.820312 C 236.503906 817.195312 237.851562 815.867188 238.671875 814.285156 C 242.152344 807.515625 243.601562 800.523438 239.609375 793.453125 Z M 224.121094 806.152344 C 223.328125 807.253906 222.335938 808.21875 219.960938 810.890625 C 215.96875 814.792969 209.804688 819.589844 202.726562 822.703125 C 189.828125 828.398438 176.710938 833.585938 163.597656 838.765625 C 158.316406 840.851562 157.007812 840.253906 155.164062 835.457031 C 151.742188 826.554688 148.300781 817.691406 148.421875 807.804688 C 148.503906 801.945312 147.242188 796.042969 147.054688 790.132812 C 146.644531 777.566406 152.992188 770.265625 165.121094 768.871094 C 170.957031 768.199219 175.953125 771.199219 177.960938 776.742188 C 178.589844 778.4375 179.347656 780.382812 179.058594 782.046875 C 177.207031 792.554688 185.894531 795.78125 191.820312 800.90625 C 193.757812 802.5625 196.066406 802.007812 198.332031 801.699219 C 205.53125 800.746094 212.742188 799.773438 219.96875 799 C 222.128906 798.765625 224.703125 798.484375 225.730469 801.269531 C 226.460938 803.226562 225.167969 804.722656 224.121094 806.152344 " fill-opacity="1" fill-rule="nonzero"/></g><path fill="#fef0f3" d="M 121.628906 249.136719 C 133.28125 234.402344 143.136719 218.484375 148.738281 200.328125 C 150.515625 194.59375 151.515625 188.714844 151.328125 182.664062 C 151.160156 176.949219 149.675781 171.65625 146.328125 166.984375 C 145.671875 166.058594 144.71875 165.234375 143.316406 165.609375 C 141.59375 166.039062 140.359375 167.125 140.332031 168.824219 C 140.285156 171.191406 140.464844 173.601562 140.949219 175.914062 C 141.714844 179.503906 141.699219 183.101562 141.050781 186.601562 C 137.386719 206.394531 126.640625 222.636719 114.585938 238.121094 C 112.117188 241.273438 108.097656 241.125 105.011719 238.441406 C 100.617188 234.605469 97.605469 229.914062 98.136719 223.871094 C 98.707031 217.589844 97.4375 211.257812 99.277344 204.984375 C 100.390625 201.160156 97.296875 198.128906 93.152344 198.296875 C 91.160156 198.371094 89.21875 198.960938 87.234375 199.101562 C 84.074219 199.335938 80.855469 199.691406 77.707031 199.4375 C 73.347656 199.113281 68.355469 198.71875 66.960938 193.632812 C 65.761719 189.246094 69.308594 186.21875 72.289062 183.671875 C 78.425781 178.457031 85.550781 174.996094 93.238281 172.519531 C 106.964844 168.125 121.179688 166.246094 135.234375 163.515625 C 138.734375 162.839844 143.578125 164.496094 145.429688 159.410156 C 143.324219 155.988281 139.191406 156.453125 136.199219 154.660156 C 133.8125 153.226562 130.898438 153.21875 128.054688 153.472656 C 112.886719 154.835938 98.15625 158.054688 82.503906 164.167969 C 80.023438 165.5625 76.152344 167.589844 72.414062 169.863281 C 61.6875 176.390625 56.671875 186.003906 55.871094 198.53125 C 55.46875 204.890625 58.496094 209.613281 64.847656 212.34375 C 68.175781 213.773438 71.777344 214.042969 75.414062 213.753906 C 78.988281 213.472656 82.566406 213.296875 86.140625 213.195312 C 87.964844 213.136719 89.226562 214.195312 89.226562 216.007812 C 89.226562 219.980469 88.851562 223.964844 88.898438 227.9375 C 89 235.699219 90.882812 242.789062 96.203125 248.875 C 103.984375 257.804688 114.25 258.476562 121.628906 249.136719 " fill-opacity="1" fill-rule="nonzero"/><path fill="#fef0f3" d="M 540.269531 730.253906 C 543.585938 728.820312 546.261719 726.390625 548.5625 723.558594 C 550.808594 720.769531 553.144531 718.058594 555.519531 715.386719 C 556.734375 714.019531 558.371094 713.824219 559.691406 715.078125 C 562.582031 717.808594 565.199219 720.828125 568.125 723.53125 C 573.839844 728.773438 580.273438 732.28125 588.351562 732.617188 C 600.191406 733.09375 607.730469 726.101562 606.027344 714.328125 C 603.324219 695.738281 598.546875 677.636719 589.222656 661.078125 C 586.269531 655.851562 582.6875 651.082031 578.167969 647.0625 C 573.894531 643.253906 569.03125 640.691406 563.339844 639.90625 C 562.207031 639.765625 560.972656 639.878906 560.261719 641.160156 C 559.410156 642.695312 559.34375 644.347656 560.550781 645.535156 C 562.242188 647.183594 564.125 648.726562 566.132812 649.960938 C 569.265625 651.867188 571.867188 654.355469 573.960938 657.234375 C 585.820312 673.496094 590.234375 692.457031 593.1875 711.878906 C 593.785156 715.824219 590.90625 718.648438 586.839844 719.042969 C 581.03125 719.59375 575.550781 718.566406 571.539062 714.011719 C 567.359375 709.289062 561.886719 705.847656 558.585938 700.199219 C 556.585938 696.757812 552.257812 696.925781 549.527344 700.050781 C 548.226562 701.539062 547.308594 703.371094 546.046875 704.902344 C 544.035156 707.371094 542.082031 709.933594 539.746094 712.054688 C 536.488281 714.984375 532.777344 718.347656 528.128906 715.863281 C 524.128906 713.722656 524.359375 709.0625 524.566406 705.136719 C 524.996094 697.105469 527.382812 689.550781 530.878906 682.265625 C 537.105469 669.285156 545.523438 657.664062 553.199219 645.582031 C 555.117188 642.574219 559.636719 640.199219 557.222656 635.363281 C 553.292969 634.53125 550.789062 637.859375 547.429688 638.785156 C 544.746094 639.535156 542.738281 641.65625 540.960938 643.890625 C 531.523438 655.839844 523.742188 668.753906 517.421875 684.324219 C 516.730469 687.070312 515.53125 691.28125 514.625 695.5625 C 511.96875 707.828125 515.515625 718.085938 524.082031 727.277344 C 528.402344 731.945312 533.910156 733 540.269531 730.253906 " fill-opacity="1" fill-rule="nonzero"/><path fill="#fef0f3" d="M 366.5 376.902344 C 359.578125 364.589844 348.945312 358.59375 334.878906 357.21875 C 327.765625 356.527344 322.320312 359.746094 319.019531 366.804688 C 317.289062 370.480469 316.839844 374.519531 317.027344 378.625 C 317.214844 382.644531 317.273438 386.664062 317.261719 390.695312 C 317.253906 392.753906 316.019531 394.128906 313.980469 394.0625 C 309.5 393.914062 305.039062 393.34375 300.570312 393.238281 C 291.84375 393.0625 283.804688 394.914062 276.742188 400.664062 C 266.417969 409.089844 265.277344 420.589844 275.5 429.25 C 291.628906 442.898438 309.15625 454.589844 329.371094 461.574219 C 335.75 463.78125 342.324219 465.125 349.132812 465.144531 C 355.566406 465.171875 361.578125 463.703125 366.964844 460.113281 C 368.023438 459.394531 368.976562 458.367188 368.621094 456.765625 C 368.191406 454.832031 367.003906 453.402344 365.113281 453.296875 C 362.457031 453.167969 359.726562 453.269531 357.117188 453.738281 C 353.050781 454.457031 349.011719 454.296875 345.09375 453.449219 C 322.96875 448.574219 305.113281 435.886719 288.160156 421.738281 C 284.699219 418.859375 285.019531 414.332031 288.160156 410.957031 C 292.628906 406.171875 298.027344 402.964844 304.789062 403.785156 C 311.839844 404.648438 319.011719 403.476562 325.996094 405.777344 C 330.25 407.179688 333.777344 403.804688 333.75 399.140625 C 333.738281 396.914062 333.152344 394.699219 333.066406 392.453125 C 332.90625 388.890625 332.644531 385.261719 333.039062 381.738281 C 333.582031 376.847656 334.207031 371.246094 339.976562 369.871094 C 344.953125 368.695312 348.226562 372.789062 350.964844 376.25 C 356.625 383.335938 360.234375 391.472656 362.71875 400.222656 C 367.152344 415.8125 368.734375 431.867188 371.265625 447.78125 C 371.902344 451.734375 369.863281 457.101562 375.503906 459.375 C 379.429688 457.148438 379.066406 452.484375 381.1875 449.191406 C 382.890625 446.574219 383.023438 443.285156 382.84375 440.074219 C 381.882812 422.972656 378.804688 406.292969 372.519531 388.460938 C 371.0625 385.628906 368.910156 381.1875 366.5 376.902344 " fill-opacity="1" fill-rule="nonzero"/><path fill="#fef0f3" d="M 126.398438 644.714844 C 134.65625 645.910156 142.886719 644.992188 150.710938 643.320312 C 151.835938 642.925781 152.714844 642.75 153.472656 642.347656 C 159.746094 639.011719 165.871094 635.296875 166.226562 627.238281 C 166.589844 619.066406 162.898438 612.96875 155.070312 609.890625 C 150.226562 607.984375 145.335938 606.171875 140.351562 604.683594 C 133.449219 602.65625 133.195312 602.75 135.21875 596.371094 C 138.179688 586.925781 136.824219 578.296875 130.757812 570.574219 C 123.304688 561.109375 113.765625 554.527344 102.289062 550.75 C 98.34375 549.449219 94.621094 549.710938 90.851562 551.234375 C 85.484375 553.40625 80.949219 556.660156 77.425781 561.25 C 72.320312 567.890625 68.484375 575.21875 66.8125 583.429688 C 64.296875 595.792969 61.957031 608.207031 65.269531 620.851562 C 65.699219 622.441406 65.6875 623.9375 64.828125 625.75 C 62.339844 631.042969 62.507812 631.324219 66.457031 632.988281 C 70.457031 634.652344 74.507812 636.550781 78.722656 637.28125 C 94.574219 640 110.480469 642.386719 126.398438 644.714844 Z M 86.007812 578.324219 C 88.074219 572.957031 91.3125 568.355469 95.390625 564.363281 C 97.363281 562.417969 99.953125 561.417969 102.542969 562.71875 C 110.445312 566.703125 117.410156 571.667969 120.367188 580.664062 C 121.628906 584.496094 122.210938 588.234375 121.058594 592.164062 C 120.449219 594.238281 119.695312 596.304688 119.347656 598.4375 C 118.253906 605.234375 120.65625 609.023438 127.417969 611.164062 C 129.464844 611.828125 131.671875 611.96875 133.777344 612.480469 C 135.882812 612.988281 138.03125 613.484375 140.023438 614.316406 C 144.15625 616.042969 147.878906 618.410156 148.132812 623.496094 C 148.382812 628.152344 144.121094 632.4375 138.003906 633.820312 C 133.300781 634.886719 128.511719 634.707031 123.761719 633.941406 C 113.464844 632.296875 103.207031 630.378906 92.875 629.015625 C 87.496094 628.292969 83.175781 627.210938 83.988281 621.945312 C 80.15625 606.179688 80.679688 592.117188 86.007812 578.324219 " fill-opacity="1" fill-rule="nonzero"/><path fill="#fef0f3" d="M 6.773438 30.25 C 8.992188 35.730469 10.214844 41.433594 10.523438 47.3125 C 11.347656 63.015625 12.160156 78.722656 12.851562 94.421875 C 13.1875 102.109375 13.703125 109.765625 15.332031 117.292969 C 15.722656 119.070312 16.246094 120.835938 16.882812 122.53125 C 17.742188 124.8125 20.378906 125.007812 22.203125 123.15625 C 23.53125 121.820312 24.429688 120.304688 24.886719 118.492188 C 26.515625 112.121094 27.816406 105.699219 27.542969 99.058594 C 27.339844 93.582031 27.367188 88.101562 27.121094 82.621094 C 26.457031 68.007812 25.671875 53.421875 23.679688 38.90625 C 21.886719 25.714844 15.332031 15.832031 4.15625 8.675781 C 3.109375 8.011719 2.042969 7.425781 0.964844 6.910156 L 0.964844 22.234375 C 3.511719 24.433594 5.492188 27.070312 6.773438 30.25 " fill-opacity="1" fill-rule="nonzero"/><path fill="#fef0f3" d="M 7.726562 115.929688 C 7.035156 113.140625 5.398438 111.503906 2.800781 110.609375 C 2.183594 110.394531 1.574219 110.167969 0.964844 109.945312 L 0.964844 122.210938 C 2.171875 122.203125 3.40625 122.070312 4.640625 121.734375 C 7.644531 120.914062 8.523438 119.164062 7.726562 115.929688 " fill-opacity="1" fill-rule="nonzero"/><g clip-path="url(#b7c8da5ccc)"><path fill="#fef0f3" d="M 29.320312 882.292969 C 46.789062 866.800781 58.476562 847.695312 65.746094 825.695312 C 67.886719 819.234375 67.859375 819.175781 62.136719 815.277344 C 60.171875 813.941406 58.125 812.648438 55.953125 811.707031 C 39.128906 804.355469 21.839844 798.210938 4.230469 793.125 C 3.144531 792.816406 2.050781 792.554688 0.964844 792.257812 L 0.964844 804.253906 C 14.375 807.574219 27.710938 811.191406 41.074219 814.699219 C 42.609375 815.101562 44.171875 815.53125 45.59375 816.210938 C 47.164062 816.960938 47.769531 818.410156 47.492188 820.167969 C 47.367188 820.945312 47.246094 821.738281 47.023438 822.503906 C 41.085938 842.515625 30.425781 859.421875 14.105469 872.644531 C 11.859375 874.457031 9.347656 875.476562 6.417969 875.363281 C 4.585938 875.300781 2.773438 875.140625 0.964844 874.898438 L 0.964844 885.808594 C 5.578125 886.875 10.328125 887.445312 15.265625 887.445312 C 20.734375 887.445312 25.113281 886.035156 29.320312 882.292969 " fill-opacity="1" fill-rule="nonzero"/></g><path fill="#fef0f3" d="M 7.402344 683.40625 C 11.917969 675.074219 13.414062 666.171875 12.460938 656.824219 C 10.925781 641.9375 7.417969 627.628906 0.964844 614.148438 L 0.964844 650.269531 C 1.058594 650.96875 1.171875 651.671875 1.257812 652.382812 C 1.621094 655.652344 1.480469 658.8125 0.964844 661.898438 L 0.964844 691.296875 C 3.472656 689.261719 5.640625 686.632812 7.402344 683.40625 " fill-opacity="1" fill-rule="nonzero"/><path fill="#fef0f3" d="M 63.660156 488.785156 C 74.621094 487.847656 83.214844 482.921875 89.308594 473.410156 C 96.613281 462.003906 95.988281 451.734375 86.347656 442.152344 C 81.820312 437.644531 76.714844 433.78125 70.914062 430.941406 C 68.4375 429.734375 64.734375 429.265625 63.6875 427.332031 C 61.863281 423.957031 66.082031 422.046875 67.691406 419.496094 C 69.605469 416.464844 71.964844 413.679688 73.535156 410.492188 C 77.332031 402.757812 78.789062 394.585938 76.367188 386.113281 C 73.429688 375.800781 63.304688 371.210938 53.726562 375.914062 C 50.894531 377.304688 48.191406 379.121094 45.730469 381.109375 C 36.117188 388.929688 26.722656 397.035156 19.222656 406.957031 C 12.945312 415.257812 6.839844 423.675781 0.964844 432.257812 L 0.964844 450.183594 C 5.511719 443.601562 10.074219 437.046875 14.703125 430.527344 C 23.484375 418.167969 32.984375 406.433594 44.992188 396.988281 C 47.800781 394.773438 50.625 392.519531 53.71875 390.769531 C 59.066406 387.742188 63.03125 389.535156 64.164062 395.71875 C 65.558594 403.382812 64.960938 410.863281 59.292969 416.953125 C 56.589844 419.851562 53.523438 422.402344 50.726562 425.238281 C 47.304688 428.714844 48.023438 436.214844 52.148438 438.824219 C 54.128906 440.085938 56.496094 440.710938 58.675781 441.664062 C 67.765625 445.59375 74.574219 452.089844 79.707031 460.421875 C 82.933594 465.648438 81.707031 470.4375 76.347656 473.558594 C 72.515625 475.796875 68.277344 477.011719 63.847656 477.125 C 55.09375 477.347656 46.339844 477.648438 37.691406 475.832031 C 25.449219 473.496094 13.207031 471.15625 0.964844 468.808594 L 0.964844 480.367188 C 14.582031 483.679688 28.234375 486.847656 42.152344 488.691406 C 49.324219 489.773438 56.515625 489.390625 63.660156 488.785156 " fill-opacity="1" fill-rule="nonzero"/></g></g></g></svg>