<svg xmlns="http://www.w3.org/2000/svg" xmlns:xlink="http://www.w3.org/1999/xlink" width="500" zoomAndPan="magnify" viewBox="0 0 375 374.999991" height="500" preserveAspectRatio="xMidYMid meet" version="1.0"><defs><clipPath id="1e5aeda294"><path d="M 41 88 L 333 88 L 333 287.738281 L 41 287.738281 Z M 41 88 " clip-rule="nonzero"/></clipPath></defs><g clip-path="url(#1e5aeda294)"><path fill="#eb1f2a" d="M 121.046875 287.417969 C 108.84375 287.015625 89.71875 284.925781 70.847656 280.746094 C 63.832031 279.191406 56.789062 277.6875 50.257812 274.53125 C 47.664062 273.277344 45.441406 271.496094 43.675781 269.183594 C 40.453125 264.972656 41.265625 260.203125 45.722656 257.332031 C 48.441406 255.582031 51.523438 254.859375 54.660156 254.390625 C 63.855469 253.015625 73.128906 252.351562 82.371094 251.457031 C 109.164062 248.867188 134.089844 240.828125 156.902344 226.425781 C 176.4375 214.09375 191.042969 197.335938 201.4375 176.773438 C 207.257812 165.261719 212.089844 153.285156 217.921875 141.777344 C 224.304688 129.179688 232.210938 117.78125 243.722656 109.304688 C 250.1875 104.546875 257.265625 101.300781 265.554688 101.59375 C 273.886719 101.890625 280.339844 106.785156 282.765625 114.773438 C 284.078125 119.105469 285.265625 123.476562 286.84375 127.722656 C 289.988281 136.175781 295.140625 139.851562 304.113281 140.097656 C 306.699219 140.167969 307.652344 140.722656 307.644531 142.144531 C 307.632812 143.558594 306.585938 144.207031 304.058594 144.019531 C 296.757812 143.484375 290.113281 141.578125 285.921875 134.847656 C 283.628906 131.171875 282.414062 127.054688 281.121094 122.976562 C 280.425781 120.789062 279.820312 118.578125 279.160156 116.378906 C 276.941406 108.996094 271.164062 105.023438 263.453125 105.503906 C 256.898438 105.910156 251.25 108.621094 246.085938 112.433594 C 236.3125 119.648438 229.214844 129.125 223.457031 139.703125 C 217.964844 149.789062 213.539062 160.386719 208.730469 170.796875 C 201.382812 186.707031 192.175781 201.308594 179.550781 213.589844 C 169.359375 223.5 157.617188 231.132812 145.039062 237.636719 C 125.890625 247.542969 105.46875 252.835938 84.15625 255.195312 C 74.246094 256.292969 64.28125 256.871094 54.425781 258.425781 C 52.222656 258.773438 50.046875 259.292969 48.101562 260.480469 C 45.292969 262.195312 44.878906 264.414062 46.949219 267 C 49.503906 270.1875 53.046875 271.832031 56.808594 273 C 69.984375 277.085938 83.480469 279.628906 97.164062 281.277344 C 110.160156 282.84375 123.15625 284.023438 136.273438 283.433594 C 152.628906 282.695312 168.398438 279.023438 183.878906 273.996094 C 203.605469 267.589844 222.703125 259.621094 240.664062 249.195312 C 254.972656 240.886719 269.273438 232.464844 281.574219 221.203125 C 293.09375 210.65625 303.1875 199.007812 309.402344 184.390625 C 313.648438 174.398438 316.617188 164.167969 316.007812 153.179688 C 315.5625 145.136719 313.226562 137.726562 308.417969 131.148438 C 305.488281 127.144531 305.6875 124.039062 309.023438 120.265625 C 313.105469 115.644531 318 111.898438 322.597656 107.832031 C 322.597656 107.832031 324.640625 106.441406 326.761719 104.121094 C 327.117188 103.730469 327.734375 103.023438 328.324219 101.984375 C 328.628906 101.445312 329.050781 100.683594 329.3125 99.613281 C 329.613281 98.382812 329.519531 97.433594 329.417969 96.367188 C 329.292969 95.0625 329.015625 94.109375 328.519531 93.269531 C 328.222656 92.769531 327.96875 92.511719 327.652344 92.464844 C 327.207031 92.402344 326.820312 92.792969 326.402344 93.222656 C 325.101562 94.5625 324.460938 95.234375 324.390625 95.324219 C 322.492188 97.777344 316.230469 104.675781 312.757812 108.246094 C 310.054688 111.027344 307.976562 112.8125 305.28125 114.339844 C 302.460938 115.9375 299.507812 116.476562 296.328125 115.769531 C 294.03125 115.257812 291.734375 114.761719 289.371094 114.605469 C 288.085938 114.519531 286.957031 114.019531 287.167969 112.460938 C 287.363281 110.984375 288.5625 110.683594 289.828125 110.738281 C 291.9375 110.835938 294.039062 111.167969 296.058594 111.742188 C 299.554688 112.742188 302.535156 111.773438 305.285156 109.671875 C 309.152344 106.722656 312.332031 103.058594 315.648438 99.539062 C 318.878906 96.109375 322.078125 92.644531 325.316406 89.222656 C 326.984375 87.460938 328.679688 87.617188 330.125 89.585938 C 334.386719 95.398438 333.527344 103.484375 328.140625 108.214844 C 323.25 112.515625 318.195312 116.628906 313.511719 121.160156 C 313.289062 121.375 313.058594 121.582031 312.847656 121.8125 C 309.648438 125.292969 309.652344 126.054688 312.324219 129.941406 C 318.613281 139.078125 320.8125 149.316406 319.789062 160.210938 C 318.050781 178.652344 310.46875 194.617188 298.832031 208.84375 C 287.25 223 272.96875 233.820312 257.65625 243.585938 C 233.816406 258.789062 208.402344 270.425781 181.476562 278.863281 C 164.117188 284.300781 146.421875 287.710938 121.046875 287.417969 Z M 250.011719 117.773438 C 246.621094 120.699219 243.59375 123.976562 240.824219 127.496094 C 232.03125 138.664062 226.042969 151.386719 220.535156 164.371094 C 216.636719 173.5625 212.773438 182.773438 207.105469 191.074219 C 205.640625 193.226562 204.105469 195.328125 202.613281 197.464844 C 201.929688 198.445312 201.453125 199.539062 202.597656 200.4375 C 203.765625 201.359375 204.808594 200.757812 205.671875 199.785156 C 206.042969 199.371094 206.410156 198.945312 206.738281 198.496094 C 210.367188 193.460938 213.71875 188.261719 216.558594 182.722656 C 221.339844 173.386719 224.839844 163.476562 229.4375 154.058594 C 234.292969 144.109375 239.585938 134.453125 247.0625 126.171875 C 248.894531 124.144531 250.824219 122.21875 252.910156 120.453125 C 253.671875 119.808594 254.132812 119.019531 253.820312 118 C 253.578125 117.210938 252.96875 116.808594 251.832031 116.753906 C 251.242188 116.710938 250.625 117.242188 250.011719 117.773438 Z M 260.027344 115.234375 C 261.078125 115.296875 261.785156 114.691406 261.875 113.617188 C 261.976562 112.445312 261.332031 111.734375 260.183594 111.652344 C 259.101562 111.574219 258.484375 112.1875 258.34375 113.234375 C 258.28125 114.460938 258.875 115.167969 260.027344 115.234375 Z M 260.027344 115.234375 " fill-opacity="1" fill-rule="nonzero"/><path fill="#eb1f2a" d="M 121.046875 287.417969 C 108.84375 287.015625 89.71875 284.925781 70.847656 280.746094 C 63.832031 279.191406 56.789062 277.6875 50.257812 274.53125 C 47.664062 273.277344 45.441406 271.496094 43.675781 269.183594 C 40.453125 264.972656 41.265625 260.203125 45.722656 257.332031 C 48.441406 255.582031 51.523438 254.859375 54.660156 254.390625 C 63.855469 253.015625 73.128906 252.351562 82.371094 251.457031 C 109.164062 248.867188 134.089844 240.828125 156.902344 226.425781 C 176.4375 214.09375 191.042969 197.335938 201.4375 176.773438 C 207.257812 165.261719 212.089844 153.285156 217.921875 141.777344 C 224.304688 129.179688 232.210938 117.78125 243.722656 109.304688 C 250.1875 104.546875 257.265625 101.300781 265.554688 101.59375 C 273.886719 101.890625 280.339844 106.785156 282.765625 114.773438 C 284.078125 119.105469 285.265625 123.476562 286.84375 127.722656 C 289.988281 136.175781 295.140625 139.851562 304.113281 140.097656 C 306.699219 140.167969 307.652344 140.722656 307.644531 142.144531 C 307.632812 143.558594 306.585938 144.207031 304.058594 144.019531 C 296.757812 143.484375 290.113281 141.578125 285.921875 134.847656 C 283.628906 131.171875 282.414062 127.054688 281.121094 122.976562 C 280.425781 120.789062 279.820312 118.578125 279.160156 116.378906 C 276.941406 108.996094 271.164062 105.023438 263.453125 105.503906 C 256.898438 105.910156 251.25 108.621094 246.085938 112.433594 C 236.3125 119.648438 229.214844 129.125 223.457031 139.703125 C 217.964844 149.789062 213.539062 160.386719 208.730469 170.796875 C 201.382812 186.707031 192.175781 201.308594 179.550781 213.589844 C 169.359375 223.5 157.617188 231.132812 145.039062 237.636719 C 125.890625 247.542969 105.46875 252.835938 84.15625 255.195312 C 74.246094 256.292969 64.28125 256.871094 54.425781 258.425781 C 52.222656 258.773438 50.046875 259.292969 48.101562 260.480469 C 45.292969 262.195312 44.878906 264.414062 46.949219 267 C 49.503906 270.1875 53.046875 271.832031 56.808594 273 C 69.984375 277.085938 83.480469 279.628906 97.164062 281.277344 C 110.160156 282.84375 123.15625 284.023438 136.273438 283.433594 C 152.628906 282.695312 168.398438 279.023438 183.878906 273.996094 C 203.605469 267.589844 222.703125 259.621094 240.664062 249.195312 C 254.972656 240.886719 269.273438 232.464844 281.574219 221.203125 C 293.09375 210.65625 303.1875 199.007812 309.402344 184.390625 C 313.648438 174.398438 316.617188 164.167969 316.007812 153.179688 C 315.5625 145.136719 313.226562 137.726562 308.417969 131.148438 C 305.488281 127.144531 305.6875 124.039062 309.023438 120.265625 C 313.105469 115.644531 318 111.898438 322.597656 107.832031 C 322.597656 107.832031 324.640625 106.441406 326.761719 104.121094 C 327.117188 103.730469 327.734375 103.023438 328.324219 101.984375 C 328.628906 101.445312 329.050781 100.683594 329.3125 99.613281 C 329.613281 98.382812 329.519531 97.433594 329.417969 96.367188 C 329.292969 95.0625 329.015625 94.109375 328.519531 93.269531 C 328.222656 92.769531 327.96875 92.511719 327.652344 92.464844 C 327.207031 92.402344 326.820312 92.792969 326.402344 93.222656 C 325.101562 94.5625 324.460938 95.234375 324.390625 95.324219 C 322.492188 97.777344 316.230469 104.675781 312.757812 108.246094 C 310.054688 111.027344 307.976562 112.8125 305.28125 114.339844 C 302.460938 115.9375 299.507812 116.476562 296.328125 115.769531 C 294.03125 115.257812 291.734375 114.761719 289.371094 114.605469 C 288.085938 114.519531 286.957031 114.019531 287.167969 112.460938 C 287.363281 110.984375 288.5625 110.683594 289.828125 110.738281 C 291.9375 110.835938 294.039062 111.167969 296.058594 111.742188 C 299.554688 112.742188 302.535156 111.773438 305.285156 109.671875 C 309.152344 106.722656 312.332031 103.058594 315.648438 99.539062 C 318.878906 96.109375 322.078125 92.644531 325.316406 89.222656 C 326.984375 87.460938 328.679688 87.617188 330.125 89.585938 C 334.386719 95.398438 333.527344 103.484375 328.140625 108.214844 C 323.25 112.515625 318.195312 116.628906 313.511719 121.160156 C 313.289062 121.375 313.058594 121.582031 312.847656 121.8125 C 309.648438 125.292969 309.652344 126.054688 312.324219 129.941406 C 318.613281 139.078125 320.8125 149.316406 319.789062 160.210938 C 318.050781 178.652344 310.46875 194.617188 298.832031 208.84375 C 287.25 223 272.96875 233.820312 257.65625 243.585938 C 233.816406 258.789062 208.402344 270.425781 181.476562 278.863281 C 164.117188 284.300781 146.421875 287.710938 121.046875 287.417969 Z M 250.011719 117.773438 C 246.621094 120.699219 243.59375 123.976562 240.824219 127.496094 C 232.03125 138.664062 226.042969 151.386719 220.535156 164.371094 C 216.636719 173.5625 212.773438 182.773438 207.105469 191.074219 C 205.640625 193.226562 204.105469 195.328125 202.613281 197.464844 C 201.929688 198.445312 201.453125 199.539062 202.597656 200.4375 C 203.765625 201.359375 204.808594 200.757812 205.671875 199.785156 C 206.042969 199.371094 206.410156 198.945312 206.738281 198.496094 C 210.367188 193.460938 213.71875 188.261719 216.558594 182.722656 C 221.339844 173.386719 224.839844 163.476562 229.4375 154.058594 C 234.292969 144.109375 239.585938 134.453125 247.0625 126.171875 C 248.894531 124.144531 250.824219 122.21875 252.910156 120.453125 C 253.671875 119.808594 254.132812 119.019531 253.820312 118 C 253.578125 117.210938 252.96875 116.808594 251.832031 116.753906 C 251.242188 116.710938 250.625 117.242188 250.011719 117.773438 Z M 260.027344 115.234375 C 261.078125 115.296875 261.785156 114.691406 261.875 113.617188 C 261.976562 112.445312 261.332031 111.734375 260.183594 111.652344 C 259.101562 111.574219 258.484375 112.1875 258.34375 113.234375 C 258.28125 114.460938 258.875 115.167969 260.027344 115.234375 Z M 260.027344 115.234375 " fill-opacity="1" fill-rule="nonzero"/></g></svg>