<svg xmlns="http://www.w3.org/2000/svg" xmlns:xlink="http://www.w3.org/1999/xlink" width="500" zoomAndPan="magnify" viewBox="0 0 375 374.999991" height="500" preserveAspectRatio="xMidYMid meet" version="1.0"><defs><g/><clipPath id="c3118ab2b8"><path d="M 81.496094 81.496094 L 293.503906 81.496094 L 293.503906 293.503906 L 81.496094 293.503906 Z M 81.496094 81.496094 " clip-rule="nonzero"/></clipPath><clipPath id="c8ba8e731f"><path d="M 187.5 81.496094 C 128.957031 81.496094 81.496094 128.957031 81.496094 187.5 C 81.496094 246.042969 128.957031 293.503906 187.5 293.503906 C 246.042969 293.503906 293.503906 246.042969 293.503906 187.5 C 293.503906 128.957031 246.042969 81.496094 187.5 81.496094 " clip-rule="nonzero"/></clipPath><clipPath id="53702401b2"><path d="M 296.644531 116.160156 L 337 116.160156 L 337 156.660156 L 296.644531 156.660156 Z M 296.644531 116.160156 " clip-rule="nonzero"/></clipPath><clipPath id="a0a5b83cc2"><path d="M 36.351562 114.042969 L 81.351562 114.042969 L 81.351562 158.292969 L 36.351562 158.292969 Z M 36.351562 114.042969 " clip-rule="nonzero"/></clipPath><clipPath id="7bdc9d72bf"><path d="M 37.5 214.296875 L 72.75 214.296875 L 72.75 249.546875 L 37.5 249.546875 Z M 37.5 214.296875 " clip-rule="nonzero"/></clipPath><clipPath id="f5dfd88a91"><path d="M 302.503906 214.296875 L 337.753906 214.296875 L 337.753906 249.546875 L 302.503906 249.546875 Z M 302.503906 214.296875 " clip-rule="nonzero"/></clipPath><clipPath id="371d010608"><path d="M 105.09375 53.285156 L 125.34375 53.285156 L 125.34375 73.535156 L 105.09375 73.535156 Z M 105.09375 53.285156 " clip-rule="nonzero"/></clipPath><clipPath id="551acab67e"><path d="M 249.292969 52.460938 L 269.542969 52.460938 L 269.542969 72.710938 L 249.292969 72.710938 Z M 249.292969 52.460938 " clip-rule="nonzero"/></clipPath></defs><path fill="#eb1f2a" d="M 198.585938 6.234375 L 211.785156 15.667969 C 216.363281 18.9375 222.152344 20.019531 227.605469 18.621094 L 243.324219 14.59375 C 251.21875 12.570312 259.527344 15.789062 264 22.601562 L 272.898438 36.164062 C 275.988281 40.867188 280.996094 43.96875 286.582031 44.632812 L 302.695312 46.550781 C 310.789062 47.515625 317.375 53.519531 319.082031 61.484375 L 322.480469 77.347656 C 323.660156 82.851562 327.207031 87.550781 332.179688 90.191406 L 346.507812 97.800781 C 353.707031 101.621094 357.679688 109.59375 356.394531 117.640625 L 353.832031 133.660156 C 352.941406 139.21875 354.554688 144.882812 358.234375 149.136719 L 368.847656 161.40625 C 374.179688 167.570312 375 176.441406 370.894531 183.480469 L 362.714844 197.492188 C 359.878906 202.351562 359.335938 208.214844 361.230469 213.515625 L 366.695312 228.789062 C 369.4375 236.460938 367 245.03125 360.625 250.109375 L 347.9375 260.222656 C 343.539062 263.730469 340.910156 269 340.765625 274.625 L 340.339844 290.839844 C 340.125 298.988281 334.753906 306.097656 326.976562 308.53125 L 311.492188 313.378906 C 306.121094 315.058594 301.765625 319.027344 299.597656 324.21875 L 293.339844 339.1875 C 290.195312 346.707031 282.621094 351.394531 274.488281 350.859375 L 258.296875 349.785156 C 252.683594 349.414062 247.1875 351.539062 243.289062 355.597656 L 232.050781 367.296875 C 226.402344 373.171875 217.644531 374.808594 210.253906 371.367188 L 195.542969 364.519531 C 190.441406 362.144531 184.550781 362.144531 179.449219 364.519531 L 164.738281 371.367188 C 157.351562 374.808594 148.59375 373.171875 142.945312 367.296875 L 131.703125 355.597656 C 127.804688 351.539062 122.3125 349.414062 116.695312 349.785156 L 100.503906 350.859375 C 92.371094 351.398438 84.796875 346.707031 81.65625 339.1875 L 75.398438 324.21875 C 73.226562 319.027344 68.875 315.058594 63.503906 313.378906 L 48.019531 308.53125 C 40.238281 306.097656 34.871094 298.988281 34.65625 290.839844 L 34.230469 274.625 C 34.082031 269 31.457031 263.730469 27.054688 260.222656 L 14.367188 250.109375 C 7.992188 245.03125 5.554688 236.464844 8.300781 228.789062 L 13.761719 213.515625 C 15.660156 208.214844 15.117188 202.351562 12.28125 197.492188 L 4.101562 183.480469 C -0.00390625 176.441406 0.816406 167.570312 6.148438 161.40625 L 16.761719 149.136719 C 20.441406 144.878906 22.054688 139.21875 21.164062 133.660156 L 18.601562 117.640625 C 17.3125 109.59375 21.285156 101.621094 28.484375 97.800781 L 42.816406 90.191406 C 47.785156 87.550781 51.335938 82.851562 52.515625 77.347656 L 55.914062 61.484375 C 57.621094 53.519531 64.203125 47.515625 72.300781 46.550781 L 88.410156 44.632812 C 94 43.96875 99.007812 40.867188 102.09375 36.164062 L 110.996094 22.601562 C 115.464844 15.789062 123.773438 12.570312 131.671875 14.59375 L 147.390625 18.621094 C 152.839844 20.019531 158.628906 18.9375 163.210938 15.667969 L 176.410156 6.234375 C 183.046875 1.496094 191.953125 1.496094 198.585938 6.234375 Z M 198.585938 6.234375 " fill-opacity="1" fill-rule="nonzero"/><g clip-path="url(#c3118ab2b8)"><g clip-path="url(#c8ba8e731f)"><path fill="#f8bcc9" d="M 81.496094 81.496094 L 293.503906 81.496094 L 293.503906 293.503906 L 81.496094 293.503906 Z M 81.496094 81.496094 " fill-opacity="1" fill-rule="nonzero"/></g></g><g clip-path="url(#53702401b2)"><path fill="#ffffff" d="M 316.609375 116.425781 C 315.960938 116.632812 315.628906 116.867188 315.277344 117.289062 C 314.929688 117.710938 314.820312 118.28125 314.726562 118.824219 C 314.203125 121.8125 313.675781 124.796875 313.152344 127.785156 C 312.953125 128.921875 312.730469 130.113281 312.011719 131.011719 C 310.894531 132.410156 308.933594 132.699219 307.167969 132.949219 C 304.546875 133.320312 301.941406 133.824219 299.371094 134.460938 C 298.148438 134.765625 296.636719 135.503906 296.808594 136.769531 C 296.957031 137.90625 298.335938 138.320312 299.453125 138.5 C 302.96875 139.070312 306.453125 139.8125 309.894531 140.722656 C 311.089844 141.039062 312.34375 141.414062 313.167969 142.34375 C 314.300781 143.617188 314.277344 145.511719 314.390625 147.222656 C 314.570312 149.984375 315.269531 152.710938 316.441406 155.207031 C 316.722656 155.804688 317.136719 156.46875 317.792969 156.519531 C 318.660156 156.589844 319.171875 155.566406 319.410156 154.71875 C 320.222656 151.835938 320.726562 148.859375 320.910156 145.867188 C 321.023438 143.976562 321.109375 141.859375 322.480469 140.570312 C 323.722656 139.410156 325.582031 139.351562 327.261719 139.179688 C 329.957031 138.90625 332.601562 138.164062 335.054688 137.007812 C 335.625 136.738281 336.203125 136.433594 336.59375 135.933594 C 336.984375 135.4375 337.144531 134.699219 336.8125 134.15625 C 336.445312 133.550781 335.652344 133.410156 334.953125 133.324219 C 332.429688 133.023438 329.90625 132.722656 327.382812 132.421875 C 325.699219 132.21875 323.902344 131.972656 322.617188 130.855469 C 321.28125 129.691406 320.785156 127.847656 320.414062 126.105469 C 319.980469 124.082031 319.628906 122.035156 319.355469 119.984375 C 319.238281 119.113281 319.125 118.203125 318.65625 117.460938 C 318.183594 116.722656 317.257812 116.230469 316.609375 116.425781 Z M 316.609375 116.425781 " fill-opacity="1" fill-rule="nonzero"/></g><g fill="#ffffff" fill-opacity="1"><g transform="translate(147.455671, 67.321257)"><g><path d="M 1.175781 -0.359375 L 17.746094 -5.417969 L 16.164062 -10.597656 L 9.023438 -8.417969 L 11.097656 -11.554688 C 13.414062 -14.863281 13.609375 -17.460938 12.898438 -19.78125 C 11.574219 -24.117188 7.585938 -25.863281 2.792969 -24.402344 C -2.148438 -22.894531 -4.253906 -19.121094 -2.859375 -14.113281 L 2.65625 -15.796875 C 2.191406 -17.53125 2.769531 -18.761719 4.214844 -19.203125 C 5.601562 -19.625 6.789062 -18.96875 7.203125 -17.613281 C 7.515625 -16.589844 7.261719 -15.589844 6.476562 -14.394531 L -0.101562 -4.546875 Z M 1.175781 -0.359375 "/></g></g></g><g fill="#ffffff" fill-opacity="1"><g transform="translate(166.329475, 61.406433)"><g><path d="M 11.050781 -0.589844 C 17.195312 -1.183594 20.390625 -5.796875 19.699219 -12.976562 C 19.003906 -20.15625 14.988281 -24.074219 8.84375 -23.480469 C 2.699219 -22.886719 -0.496094 -18.273438 0.195312 -11.09375 C 0.886719 -3.914062 4.90625 0 11.050781 -0.589844 Z M 6.277344 -11.683594 C 5.914062 -15.476562 6.921875 -17.789062 9.371094 -18.023438 C 11.816406 -18.261719 13.25 -16.183594 13.617188 -12.390625 C 13.976562 -8.625 12.9375 -6.28125 10.523438 -6.046875 C 8.078125 -5.8125 6.644531 -7.886719 6.277344 -11.683594 Z M 6.277344 -11.683594 "/></g></g></g><g fill="#ffffff" fill-opacity="1"><g transform="translate(187.757519, 59.368808)"><g><path d="M 1.222656 0.128906 L 18.453125 1.925781 L 19.015625 -3.464844 L 11.589844 -4.238281 L 14.722656 -6.320312 C 18.144531 -8.464844 19.335938 -10.777344 19.585938 -13.191406 C 20.058594 -17.703125 17.0625 -20.863281 12.082031 -21.382812 C 6.941406 -21.921875 3.53125 -19.269531 2.867188 -14.109375 L 8.597656 -13.511719 C 8.847656 -15.292969 9.859375 -16.199219 11.363281 -16.042969 C 12.804688 -15.894531 13.644531 -14.824219 13.496094 -13.414062 C 13.386719 -12.347656 12.761719 -11.527344 11.570312 -10.734375 L 1.675781 -4.226562 Z M 1.222656 0.128906 "/></g></g></g><g fill="#ffffff" fill-opacity="1"><g transform="translate(207.49686, 61.378328)"><g><path d="M 1.175781 0.359375 L 17.746094 5.417969 L 19.328125 0.234375 L 12.1875 -1.945312 L 15.65625 -3.386719 C 19.425781 -4.839844 21.039062 -6.882812 21.746094 -9.203125 C 23.070312 -13.542969 20.734375 -17.21875 15.945312 -18.679688 C 11.003906 -20.1875 7.148438 -18.238281 5.511719 -13.304688 L 11.023438 -11.621094 C 11.609375 -13.320312 12.777344 -14.015625 14.222656 -13.574219 C 15.609375 -13.152344 16.226562 -11.941406 15.8125 -10.585938 C 15.5 -9.5625 14.730469 -8.875 13.410156 -8.324219 L 2.453125 -3.828125 Z M 1.175781 0.359375 "/></g></g></g><g fill="#ffffff" fill-opacity="1"><g transform="translate(85.892536, 200.732268)"><g><path d="M 53.222656 -95.359375 L 5.941406 -86.601562 C 0.421875 -85.378906 -1.339844 -81.824219 -0.761719 -78.707031 C -0.222656 -75.78125 2.445312 -73.351562 5.957031 -74 L 21.066406 -76.800781 L 11.089844 -11.429688 C 10.882812 -10.382812 10.964844 -9.390625 11.109375 -8.613281 C 11.867188 -4.515625 15.890625 -2.941406 19.59375 -3.628906 C 22.910156 -4.242188 25.898438 -6.613281 26.480469 -10.550781 L 37.152344 -79.777344 L 53.039062 -82.722656 C 58.5 -83.734375 60.226562 -87.480469 59.648438 -90.601562 C 59.105469 -93.523438 56.535156 -95.972656 53.222656 -95.359375 Z M 53.222656 -95.359375 "/></g></g></g><g fill="#ffffff" fill-opacity="1"><g transform="translate(148.574802, 189.123012)"><g><path d="M 58.574219 -42.507812 C 57.625 -36.183594 53.589844 -31.300781 47.8125 -29.828125 C 47.839844 -30.234375 47.882812 -30.546875 48.003906 -30.972656 L 53.792969 -69.957031 C 54.136719 -72.4375 54.132812 -74.65625 53.714844 -76.898438 C 51.566406 -88.5 39.113281 -94.761719 26.441406 -92.414062 C 16.984375 -90.664062 6.019531 -83.996094 3.722656 -68.648438 L -2.214844 -28.828125 C -2.648438 -25.726562 -2.75 -22.480469 -2.246094 -19.75 C 0.0820312 -7.175781 11.894531 -2.203125 23.6875 -4.386719 C 31 -5.742188 38.320312 -9.214844 43.226562 -17.585938 C 45.035156 -17.617188 47.039062 -17.683594 49.085938 -18.066406 C 61.074219 -20.285156 69.910156 -30.289062 70.609375 -41.207031 C 70.644531 -42.121094 70.597656 -42.917969 70.46875 -43.601562 C 69.785156 -47.308594 66.730469 -48.554688 63.902344 -48.03125 C 61.269531 -47.542969 58.8125 -45.578125 58.574219 -42.507812 Z M 21.902344 -16.761719 C 17.613281 -15.964844 13.660156 -18.257812 12.863281 -22.546875 C 12.683594 -23.523438 12.644531 -24.828125 12.894531 -26.183594 L 19.320312 -68.8125 C 20.351562 -75.761719 24.816406 -79.410156 29.007812 -80.1875 C 33.394531 -81 37.464844 -78.628906 38.242188 -74.433594 C 38.421875 -73.460938 38.40625 -72.449219 38.234375 -71.207031 L 33.664062 -39.808594 C 32.828125 -39.957031 31.507812 -40.015625 30.535156 -39.835938 C 25.757812 -38.949219 22.660156 -34.445312 23.527344 -29.765625 C 24.066406 -26.839844 25.792969 -25.144531 29.464844 -22.195312 C 27.59375 -19.226562 24.921875 -17.320312 21.902344 -16.761719 Z M 21.902344 -16.761719 "/></g></g></g><g fill="#ffffff" fill-opacity="1"><g transform="translate(213.011784, 177.188768)"><g><path d="M 30.632812 -93.191406 C 27.902344 -92.6875 24.503906 -91.453125 22.390625 -89.246094 C 21.601562 -92.425781 17.984375 -93.976562 14.476562 -93.324219 C 10.964844 -92.675781 7.722656 -90.058594 6.867188 -84.859375 L -4.703125 -9.613281 C -4.878906 -8.371094 -4.972656 -7.246094 -4.792969 -6.269531 C -3.996094 -1.980469 0.0976562 -0.0195312 3.996094 -0.742188 C 7.214844 -1.335938 10.265625 -3.917969 10.976562 -8.789062 L 13.949219 -29.203125 C 17.957031 -26.617188 23.308594 -25.492188 28.769531 -26.5 C 38.320312 -28.269531 47.570312 -36.035156 49.664062 -49.226562 L 53.359375 -72.292969 C 53.785156 -74.894531 53.800781 -77.519531 53.40625 -79.664062 C 51.328125 -90.875 41.355469 -95.179688 30.632812 -93.191406 Z M 37.265625 -68.808594 L 34.550781 -50.257812 C 33.796875 -45.078125 30.5625 -41.859375 26.761719 -41.152344 C 22.472656 -40.359375 18.367188 -42.925781 17.554688 -47.3125 C 17.410156 -48.09375 17.398438 -48.695312 17.546875 -49.53125 L 20.605469 -70.566406 C 21.464844 -76.269531 25.121094 -78.863281 29.019531 -79.582031 C 32.917969 -80.304688 36.3125 -78.3125 37.179688 -73.632812 C 37.414062 -72.367188 37.507812 -70.769531 37.265625 -68.808594 Z M 37.265625 -68.808594 "/></g></g></g><g fill="#ffffff" fill-opacity="1"><g transform="translate(124.175945, 291.445192)"><g><path d="M 22.296875 -20.175781 L 35.78125 -94.925781 C 36.171875 -96.878906 34.359375 -98.234375 32.519531 -97.386719 L 11.324219 -87.5625 C -0.40625 -82.242188 6.234375 -70.746094 12.410156 -73.722656 L 16.171875 -75.539062 C 12.265625 -53.800781 9.585938 -38.769531 5.644531 -17.230469 L -0.449219 -16.152344 C -11.3125 -14.230469 -8.371094 0.640625 -1.871094 -0.507812 L 27.171875 -5.644531 C 38.851562 -7.710938 37.023438 -22.78125 29.101562 -21.378906 Z M 22.296875 -20.175781 "/></g></g></g><g fill="#ffffff" fill-opacity="1"><g transform="translate(173.119784, 282.788568)"><g><path d="M 4.75 -71.425781 L -2.0625 -30.007812 C -2.539062 -26.78125 -2.671875 -23.40625 -2.171875 -20.5625 C 0.144531 -7.460938 12.390625 -2.191406 24.675781 -4.363281 C 35.441406 -6.269531 47.144531 -14.097656 50.15625 -32.015625 L 56.84375 -72.367188 C 57.226562 -74.945312 57.234375 -77.253906 56.824219 -79.585938 C 54.683594 -91.671875 41.785156 -98.292969 28.582031 -95.957031 C 18.734375 -94.214844 7.375 -87.386719 4.75 -71.425781 Z M 40.671875 -73.800781 L 33.539062 -30.648438 C 32.339844 -23.210938 28.203125 -18.183594 22.921875 -17.25 C 18.453125 -16.460938 14.359375 -18.878906 13.570312 -23.34375 C 13.390625 -24.359375 13.359375 -25.714844 13.632812 -27.125 L 20.976562 -71.46875 C 22.210938 -78.703125 26.785156 -82.445312 31.152344 -83.214844 C 35.722656 -84.023438 39.933594 -81.523438 40.707031 -77.15625 C 40.886719 -76.140625 40.863281 -75.089844 40.671875 -73.800781 Z M 40.671875 -73.800781 "/></g></g></g><g fill="#ffffff" fill-opacity="1"><g transform="translate(239.021239, 271.132675)"><g><path d="M 4.75 -71.425781 L -2.0625 -30.007812 C -2.539062 -26.78125 -2.671875 -23.40625 -2.171875 -20.5625 C 0.144531 -7.460938 12.390625 -2.191406 24.675781 -4.363281 C 35.441406 -6.269531 47.144531 -14.097656 50.15625 -32.015625 L 56.84375 -72.367188 C 57.226562 -74.945312 57.234375 -77.253906 56.824219 -79.585938 C 54.683594 -91.671875 41.785156 -98.292969 28.582031 -95.957031 C 18.734375 -94.214844 7.375 -87.386719 4.75 -71.425781 Z M 40.671875 -73.800781 L 33.539062 -30.648438 C 32.339844 -23.210938 28.203125 -18.183594 22.921875 -17.25 C 18.453125 -16.460938 14.359375 -18.878906 13.570312 -23.34375 C 13.390625 -24.359375 13.359375 -25.714844 13.632812 -27.125 L 20.976562 -71.46875 C 22.210938 -78.703125 26.785156 -82.445312 31.152344 -83.214844 C 35.722656 -84.023438 39.933594 -81.523438 40.707031 -77.15625 C 40.886719 -76.140625 40.863281 -75.089844 40.671875 -73.800781 Z M 40.671875 -73.800781 "/></g></g></g><g fill="#ffffff" fill-opacity="1"><g transform="translate(63.226034, 276.842062)"><g><path d="M 1.460938 1.816406 L 5.441406 6.777344 L 9.691406 3.367188 L 11.527344 5.652344 C 15.035156 10.023438 19.796875 10.769531 23.75 7.59375 C 27.703125 4.417969 27.980469 -0.371094 24.472656 -4.742188 L 18.652344 -11.988281 Z M 13.804688 -0.015625 L 18.421875 -3.722656 L 19.921875 -1.855469 C 21.242188 -0.210938 21.125 1.457031 19.703125 2.601562 C 18.253906 3.765625 16.625 3.496094 15.304688 1.851562 Z M 13.804688 -0.015625 "/></g></g></g><g fill="#ffffff" fill-opacity="1"><g transform="translate(78.856633, 295.754537)"><g><path d="M 1.71875 1.574219 L 13.054688 11.953125 L 17.035156 7.609375 L 10.390625 1.527344 L 21.300781 -10.390625 L 16.609375 -14.6875 Z M 1.71875 1.574219 "/></g></g></g><g fill="#ffffff" fill-opacity="1"><g transform="translate(94.831416, 310.326416)"><g><path d="M 0.132812 0.0859375 L 5.769531 3.785156 L 8.480469 1.832031 L 14.773438 5.960938 L 14.066406 9.226562 L 19.726562 12.941406 L 24.65625 -10.195312 L 19.390625 -13.652344 Z M 12.144531 -1.339844 L 17.945312 -5.707031 L 16.25 1.355469 Z M 12.144531 -1.339844 "/></g></g></g><g fill="#ffffff" fill-opacity="1"><g transform="translate(117.660383, 325.008156)"><g><path d="M 11.472656 5.300781 C 17.085938 7.644531 22.75 6.015625 25.78125 1.203125 L 19.820312 -1.28125 C 18.292969 0.332031 16.070312 0.835938 13.859375 -0.0859375 C 11.011719 -1.273438 9.921875 -4.222656 11.195312 -7.273438 C 12.480469 -10.355469 15.359375 -11.609375 18.238281 -10.410156 C 20.359375 -9.523438 21.636719 -7.589844 21.480469 -5.503906 L 27.410156 -3.03125 C 28.511719 -8.613281 25.710938 -13.671875 20.273438 -15.941406 C 13.996094 -18.5625 7.855469 -16.039062 5.234375 -9.761719 C 2.613281 -3.484375 5.136719 2.65625 11.472656 5.300781 Z M 11.472656 5.300781 "/></g></g></g><g fill="#ffffff" fill-opacity="1"><g transform="translate(144.111849, 335.481978)"><g><path d="M 2.269531 0.523438 L 17.34375 4 L 18.511719 -1.066406 L 9.578125 -3.125 L 10.34375 -6.441406 L 18.109375 -4.648438 L 19.253906 -9.621094 L 11.488281 -11.414062 L 12.210938 -14.542969 L 20.804688 -12.5625 L 21.960938 -17.566406 L 7.226562 -20.960938 Z M 2.269531 0.523438 "/></g></g></g><g fill="#ffffff" fill-opacity="1"><g transform="translate(165.806172, 340.287634)"><g><path d="M 10.171875 1.25 C 15.636719 1.667969 19.070312 -0.664062 19.398438 -4.996094 C 19.675781 -8.640625 17.484375 -10.957031 12.234375 -12.554688 C 9.457031 -13.398438 8.472656 -14.171875 8.558594 -15.300781 C 8.640625 -16.367188 9.632812 -16.957031 11.109375 -16.84375 C 12.867188 -16.710938 13.804688 -15.722656 13.675781 -14.058594 L 19.644531 -13.601562 C 19.988281 -18.125 16.757812 -21.308594 11.355469 -21.722656 C 6.171875 -22.117188 2.773438 -19.785156 2.457031 -15.640625 C 2.171875 -11.933594 4.417969 -9.457031 9.308594 -8.136719 C 11.9375 -7.398438 13.164062 -6.484375 13.066406 -5.226562 C 12.984375 -4.128906 11.992188 -3.570312 10.453125 -3.6875 C 8.632812 -3.828125 7.636719 -4.882812 7.769531 -6.578125 L 1.644531 -7.046875 C 1.28125 -2.304688 4.457031 0.8125 10.171875 1.25 Z M 10.171875 1.25 "/></g></g></g><g fill="#ffffff" fill-opacity="1"><g transform="translate(188.430374, 341.528144)"><g/></g></g><g fill="#ffffff" fill-opacity="1"><g transform="translate(198.32844, 341.467592)"><g><path d="M 7.511719 -1.09375 L 13.777344 -2.007812 L 11.449219 -17.996094 L 18.085938 -18.964844 L 17.238281 -24.792969 L -2.304688 -21.945312 L -1.457031 -16.117188 L 5.183594 -17.085938 Z M 7.511719 -1.09375 "/></g></g></g><g fill="#ffffff" fill-opacity="1"><g transform="translate(222.919791, 337.792044)"><g><path d="M 12.539062 -3.726562 C 19.195312 -5.96875 22.394531 -12.066406 20.242188 -18.453125 C 18.089844 -24.84375 11.851562 -27.761719 5.195312 -25.519531 C -1.460938 -23.273438 -4.65625 -17.179688 -2.503906 -10.789062 C -0.351562 -4.402344 5.882812 -1.484375 12.539062 -3.726562 Z M 3.613281 -12.851562 C 2.558594 -15.984375 4.003906 -18.898438 7.078125 -19.933594 C 10.183594 -20.980469 13.066406 -19.527344 14.121094 -16.390625 C 15.179688 -13.257812 13.761719 -10.355469 10.65625 -9.308594 C 7.582031 -8.273438 4.671875 -9.71875 3.613281 -12.851562 Z M 3.613281 -12.851562 "/></g></g></g><g fill="#ffffff" fill-opacity="1"><g transform="translate(250.064953, 327.811677)"><g/></g></g><g fill="#ffffff" fill-opacity="1"><g transform="translate(258.950823, 323.671594)"><g><path d="M 1.976562 -1.238281 L 15.085938 -9.441406 L 12.328125 -13.847656 L 4.558594 -8.984375 L 2.753906 -11.867188 L 9.511719 -16.097656 L 6.804688 -20.421875 L 0.046875 -16.195312 L -1.65625 -18.917969 L 5.820312 -23.597656 L 3.097656 -27.949219 L -9.722656 -19.929688 Z M 1.976562 -1.238281 "/></g></g></g><g fill="#ffffff" fill-opacity="1"><g transform="translate(277.878488, 311.741054)"><g><path d="M 0.117188 -0.105469 L 5.175781 -4.5625 L 4.011719 -7.691406 L 9.65625 -12.671875 L 12.617188 -11.125 L 17.695312 -15.601562 L -3.3125 -26.476562 L -8.039062 -22.308594 Z M 1.917969 -12.066406 L -0.757812 -18.816406 L 5.605469 -15.316406 Z M 1.917969 -12.066406 "/></g></g></g><g fill="#ffffff" fill-opacity="1"><g transform="translate(297.866299, 293.618887)"><g><path d="M 4.753906 -5.917969 L 8.71875 -10.855469 L -3.882812 -20.972656 L 0.316406 -26.207031 L -4.277344 -29.894531 L -16.640625 -14.492188 L -12.046875 -10.804688 L -7.847656 -16.035156 Z M 4.753906 -5.917969 "/></g></g></g><g clip-path="url(#a0a5b83cc2)"><path fill="#ffffff" d="M 58.535156 114.332031 C 57.820312 114.558594 57.449219 114.8125 57.058594 115.277344 C 56.671875 115.738281 56.550781 116.359375 56.445312 116.953125 C 55.863281 120.214844 55.277344 123.476562 54.695312 126.742188 C 54.476562 127.988281 54.226562 129.285156 53.429688 130.265625 C 52.1875 131.796875 50.007812 132.113281 48.050781 132.386719 C 45.136719 132.792969 42.242188 133.339844 39.382812 134.039062 C 38.023438 134.367188 36.347656 135.179688 36.535156 136.558594 C 36.703125 137.796875 38.234375 138.253906 39.476562 138.449219 C 43.378906 139.074219 47.253906 139.882812 51.078125 140.875 C 52.402344 141.222656 53.800781 141.632812 54.714844 142.648438 C 55.972656 144.042969 55.945312 146.109375 56.070312 147.980469 C 56.269531 150.992188 57.050781 153.972656 58.351562 156.703125 C 58.664062 157.355469 59.125 158.082031 59.851562 158.136719 C 60.816406 158.210938 61.382812 157.09375 61.652344 156.167969 C 62.554688 153.015625 63.113281 149.769531 63.316406 146.5 C 63.445312 144.433594 63.535156 142.117188 65.0625 140.710938 C 66.441406 139.441406 68.503906 139.378906 70.375 139.191406 C 73.367188 138.890625 76.308594 138.082031 79.03125 136.820312 C 79.667969 136.527344 80.308594 136.191406 80.742188 135.644531 C 81.175781 135.101562 81.355469 134.292969 80.988281 133.703125 C 80.578125 133.042969 79.695312 132.886719 78.917969 132.796875 C 76.117188 132.464844 73.3125 132.140625 70.507812 131.808594 C 68.636719 131.589844 66.640625 131.320312 65.210938 130.09375 C 63.726562 128.824219 63.175781 126.808594 62.765625 124.910156 C 62.285156 122.695312 61.894531 120.464844 61.589844 118.222656 C 61.457031 117.269531 61.332031 116.273438 60.808594 115.464844 C 60.285156 114.65625 59.257812 114.117188 58.535156 114.332031 Z M 58.535156 114.332031 " fill-opacity="1" fill-rule="nonzero"/></g><g clip-path="url(#7bdc9d72bf)"><path fill="#ffffff" d="M 54.878906 214.527344 C 54.316406 214.707031 54.023438 214.910156 53.71875 215.28125 C 53.414062 215.648438 53.320312 216.144531 53.238281 216.613281 C 52.785156 219.214844 52.324219 221.8125 51.871094 224.414062 C 51.695312 225.402344 51.5 226.4375 50.875 227.21875 C 49.902344 228.4375 48.199219 228.691406 46.664062 228.910156 C 44.378906 229.230469 42.113281 229.667969 39.875 230.222656 C 38.808594 230.488281 37.496094 231.132812 37.644531 232.234375 C 37.773438 233.21875 38.972656 233.582031 39.949219 233.738281 C 43.003906 234.234375 46.039062 234.878906 49.035156 235.671875 C 50.074219 235.945312 51.167969 236.273438 51.882812 237.082031 C 52.867188 238.191406 52.847656 239.839844 52.945312 241.328125 C 53.101562 243.730469 53.710938 246.101562 54.734375 248.277344 C 54.976562 248.800781 55.335938 249.375 55.90625 249.417969 C 56.664062 249.480469 57.109375 248.589844 57.316406 247.851562 C 58.023438 245.34375 58.460938 242.753906 58.621094 240.148438 C 58.722656 238.503906 58.792969 236.660156 59.988281 235.539062 C 61.070312 234.527344 62.6875 234.480469 64.148438 234.332031 C 66.496094 234.089844 68.796875 233.445312 70.933594 232.441406 C 71.429688 232.207031 71.933594 231.9375 72.273438 231.503906 C 72.613281 231.074219 72.753906 230.429688 72.464844 229.957031 C 72.144531 229.433594 71.453125 229.308594 70.84375 229.234375 C 68.648438 228.972656 66.453125 228.710938 64.257812 228.449219 C 62.789062 228.273438 61.226562 228.058594 60.105469 227.082031 C 58.945312 226.074219 58.511719 224.46875 58.191406 222.953125 C 57.8125 221.191406 57.507812 219.410156 57.269531 217.625 C 57.164062 216.867188 57.066406 216.074219 56.660156 215.429688 C 56.246094 214.785156 55.441406 214.355469 54.878906 214.527344 Z M 54.878906 214.527344 " fill-opacity="1" fill-rule="nonzero"/></g><g clip-path="url(#f5dfd88a91)"><path fill="#ffffff" d="M 319.878906 214.527344 C 319.316406 214.707031 319.027344 214.910156 318.722656 215.28125 C 318.417969 215.648438 318.324219 216.144531 318.242188 216.613281 C 317.785156 219.214844 317.328125 221.8125 316.871094 224.414062 C 316.699219 225.402344 316.503906 226.4375 315.878906 227.21875 C 314.90625 228.4375 313.199219 228.691406 311.664062 228.910156 C 309.382812 229.230469 307.113281 229.667969 304.875 230.222656 C 303.8125 230.488281 302.496094 231.132812 302.644531 232.234375 C 302.777344 233.21875 303.976562 233.582031 304.949219 233.738281 C 308.007812 234.234375 311.039062 234.878906 314.035156 235.671875 C 315.074219 235.945312 316.167969 236.273438 316.886719 237.082031 C 317.871094 238.191406 317.847656 239.839844 317.949219 241.328125 C 318.105469 243.730469 318.714844 246.101562 319.734375 248.277344 C 319.980469 248.800781 320.339844 249.375 320.910156 249.417969 C 321.667969 249.480469 322.109375 248.589844 322.320312 247.851562 C 323.027344 245.34375 323.464844 242.753906 323.625 240.148438 C 323.722656 238.503906 323.796875 236.660156 324.992188 235.539062 C 326.070312 234.527344 327.6875 234.480469 329.152344 234.332031 C 331.496094 234.089844 333.800781 233.445312 335.933594 232.441406 C 336.429688 232.207031 336.933594 231.9375 337.273438 231.503906 C 337.613281 231.074219 337.753906 230.429688 337.464844 229.957031 C 337.144531 229.433594 336.453125 229.308594 335.847656 229.234375 C 333.652344 228.972656 331.453125 228.710938 329.257812 228.449219 C 327.789062 228.273438 326.226562 228.058594 325.109375 227.082031 C 323.945312 226.074219 323.515625 224.46875 323.191406 222.953125 C 322.816406 221.191406 322.507812 219.410156 322.269531 217.625 C 322.167969 216.867188 322.070312 216.074219 321.660156 215.429688 C 321.25 214.785156 320.445312 214.355469 319.878906 214.527344 Z M 319.878906 214.527344 " fill-opacity="1" fill-rule="nonzero"/></g><g clip-path="url(#371d010608)"><path fill="#ffffff" d="M 115.078125 53.414062 C 114.753906 53.515625 114.585938 53.636719 114.410156 53.847656 C 114.238281 54.058594 114.183594 54.34375 114.136719 54.613281 C 113.875 56.109375 113.609375 57.601562 113.347656 59.09375 C 113.25 59.664062 113.136719 60.257812 112.777344 60.707031 C 112.21875 61.410156 111.238281 61.554688 110.355469 61.679688 C 109.046875 61.863281 107.742188 62.117188 106.457031 62.433594 C 105.84375 62.585938 105.089844 62.957031 105.175781 63.589844 C 105.25 64.15625 105.941406 64.363281 106.5 64.453125 C 108.257812 64.738281 110 65.109375 111.71875 65.5625 C 112.316406 65.722656 112.945312 65.910156 113.355469 66.375 C 113.921875 67.011719 113.910156 67.960938 113.96875 68.816406 C 114.058594 70.195312 114.40625 71.558594 114.992188 72.808594 C 115.132812 73.109375 115.339844 73.441406 115.667969 73.464844 C 116.101562 73.5 116.359375 72.988281 116.476562 72.5625 C 116.882812 71.121094 117.136719 69.632812 117.226562 68.136719 C 117.285156 67.191406 117.324219 66.132812 118.011719 65.488281 C 118.632812 64.90625 119.5625 64.878906 120.402344 64.792969 C 121.75 64.65625 123.074219 64.285156 124.300781 63.707031 C 124.585938 63.574219 124.875 63.417969 125.070312 63.171875 C 125.265625 62.921875 125.34375 62.550781 125.179688 62.28125 C 124.996094 61.980469 124.597656 61.90625 124.25 61.867188 C 122.988281 61.714844 121.726562 61.566406 120.464844 61.414062 C 119.621094 61.3125 118.722656 61.191406 118.082031 60.628906 C 117.414062 60.046875 117.164062 59.125 116.980469 58.253906 C 116.761719 57.242188 116.585938 56.21875 116.449219 55.195312 C 116.390625 54.757812 116.335938 54.304688 116.101562 53.933594 C 115.863281 53.5625 115.402344 53.316406 115.078125 53.414062 Z M 115.078125 53.414062 " fill-opacity="1" fill-rule="nonzero"/></g><g clip-path="url(#551acab67e)"><path fill="#ffffff" d="M 259.277344 52.589844 C 258.953125 52.691406 258.785156 52.8125 258.609375 53.023438 C 258.4375 53.234375 258.382812 53.519531 258.335938 53.789062 C 258.074219 55.285156 257.808594 56.777344 257.546875 58.269531 C 257.449219 58.839844 257.335938 59.433594 256.976562 59.882812 C 256.417969 60.585938 255.4375 60.730469 254.554688 60.855469 C 253.246094 61.039062 251.941406 61.292969 250.65625 61.609375 C 250.042969 61.761719 249.289062 62.132812 249.375 62.765625 C 249.449219 63.332031 250.140625 63.539062 250.699219 63.628906 C 252.453125 63.914062 254.199219 64.285156 255.917969 64.738281 C 256.515625 64.898438 257.144531 65.085938 257.554688 65.550781 C 258.121094 66.1875 258.109375 67.136719 258.164062 67.992188 C 258.257812 69.371094 258.605469 70.734375 259.191406 71.984375 C 259.332031 72.285156 259.539062 72.617188 259.867188 72.640625 C 260.300781 72.675781 260.558594 72.164062 260.675781 71.738281 C 261.082031 70.296875 261.335938 68.808594 261.425781 67.3125 C 261.484375 66.367188 261.523438 65.308594 262.210938 64.664062 C 262.832031 64.082031 263.761719 64.054688 264.601562 63.96875 C 265.949219 63.832031 267.273438 63.460938 268.5 62.882812 C 268.785156 62.75 269.074219 62.59375 269.269531 62.347656 C 269.464844 62.097656 269.542969 61.726562 269.378906 61.457031 C 269.195312 61.15625 268.796875 61.082031 268.449219 61.042969 C 267.1875 60.890625 265.925781 60.742188 264.664062 60.589844 C 263.820312 60.488281 262.921875 60.367188 262.277344 59.804688 C 261.613281 59.222656 261.363281 58.300781 261.179688 57.429688 C 260.960938 56.417969 260.785156 55.394531 260.648438 54.371094 C 260.589844 53.933594 260.535156 53.480469 260.296875 53.109375 C 260.0625 52.738281 259.601562 52.492188 259.277344 52.589844 Z M 259.277344 52.589844 " fill-opacity="1" fill-rule="nonzero"/></g></svg>