<svg xmlns="http://www.w3.org/2000/svg" xmlns:xlink="http://www.w3.org/1999/xlink" width="500" zoomAndPan="magnify" viewBox="0 0 375 374.999991" height="500" preserveAspectRatio="xMidYMid meet" version="1.0"><defs><clipPath id="026b0d2be4"><path d="M 107 241 L 162.859375 241 L 162.859375 336 L 107 336 Z M 107 241 " clip-rule="nonzero"/></clipPath><clipPath id="b0fa5146ac"><path d="M 41.695312 290 L 137 290 L 137 374.855469 L 41.695312 374.855469 Z M 41.695312 290 " clip-rule="nonzero"/></clipPath><clipPath id="5a8d4507ff"><path d="M 41.695312 306 L 136 306 L 136 366 L 41.695312 366 Z M 41.695312 306 " clip-rule="nonzero"/></clipPath><clipPath id="3cb253ecad"><path d="M 64 159 L 155 159 L 155 199.554688 L 64 199.554688 Z M 64 159 " clip-rule="nonzero"/></clipPath><clipPath id="16d8614abc"><path d="M 17 79.542969 L 92 79.542969 L 92 174 L 17 174 Z M 17 79.542969 " clip-rule="nonzero"/></clipPath><clipPath id="69ca81bc2d"><path d="M 81 0 L 303.324219 0 L 303.324219 86 L 81 86 Z M 81 0 " clip-rule="nonzero"/></clipPath><clipPath id="2d0693a1fb"><path d="M 76 159 L 157 159 L 157 303.492188 L 76 303.492188 Z M 76 159 " clip-rule="nonzero"/></clipPath><clipPath id="3e6f7c0d7b"><path d="M 197 296 L 276 296 L 276 374.855469 L 197 374.855469 Z M 197 296 " clip-rule="nonzero"/></clipPath><clipPath id="78f970eb4f"><path d="M 166.515625 241 L 259 241 L 259 324 L 166.515625 324 Z M 166.515625 241 " clip-rule="nonzero"/></clipPath><clipPath id="055c1fa5aa"><path d="M 219.441406 173 L 310 173 L 310 212.515625 L 219.441406 212.515625 Z M 219.441406 173 " clip-rule="nonzero"/></clipPath><clipPath id="671f7e498d"><path d="M 283 91.351562 L 357.917969 91.351562 L 357.917969 187 L 283 187 Z M 283 91.351562 " clip-rule="nonzero"/></clipPath><clipPath id="8a0d048a1d"><path d="M 111.730469 55 L 175 55 L 175 150 L 111.730469 150 Z M 111.730469 55 " clip-rule="nonzero"/></clipPath><clipPath id="5132ecc9bb"><path d="M 164 41.726562 L 237.511719 41.726562 L 237.511719 152 L 164 152 Z M 164 41.726562 " clip-rule="nonzero"/></clipPath><clipPath id="ce11fb6de1"><path d="M 143 155 L 203 155 L 203 199.820312 L 143 199.820312 Z M 143 155 " clip-rule="nonzero"/></clipPath><clipPath id="4b28684a06"><path d="M 147 177 L 201 177 L 201 199.820312 L 147 199.820312 Z M 147 177 " clip-rule="nonzero"/></clipPath></defs><g clip-path="url(#026b0d2be4)"><path fill="#e66363" d="M 116.316406 335.398438 C 115.519531 335.398438 114.738281 335.292969 113.96875 335.078125 C 113.203125 334.863281 112.476562 334.550781 111.796875 334.136719 C 111.117188 333.722656 110.503906 333.222656 109.964844 332.640625 C 109.421875 332.058594 108.972656 331.414062 108.609375 330.707031 C 108.246094 330 107.988281 329.257812 107.835938 328.480469 C 107.679688 327.703125 107.632812 326.917969 107.699219 326.125 C 107.761719 325.335938 107.933594 324.570312 108.210938 323.824219 C 108.488281 323.082031 108.863281 322.390625 109.335938 321.75 C 131.347656 291.71875 145.847656 247.5625 145.980469 247.113281 C 146.171875 246.59375 146.410156 246.101562 146.695312 245.628906 C 146.984375 245.15625 147.3125 244.714844 147.683594 244.304688 C 148.054688 243.898438 148.460938 243.527344 148.90625 243.195312 C 149.347656 242.863281 149.820312 242.578125 150.316406 242.335938 C 150.816406 242.09375 151.332031 241.902344 151.867188 241.761719 C 152.402344 241.617188 152.949219 241.527344 153.5 241.488281 C 154.054688 241.449219 154.605469 241.464844 155.15625 241.53125 C 155.707031 241.597656 156.246094 241.714844 156.773438 241.882812 C 157.300781 242.054688 157.808594 242.269531 158.292969 242.535156 C 158.777344 242.804688 159.234375 243.113281 159.660156 243.464844 C 160.085938 243.820312 160.472656 244.210938 160.824219 244.636719 C 161.175781 245.0625 161.480469 245.519531 161.742188 246.007812 C 162.003906 246.492188 162.21875 247 162.382812 247.523438 C 162.546875 248.050781 162.660156 248.589844 162.71875 249.136719 C 162.78125 249.683594 162.789062 250.234375 162.742188 250.78125 C 162.695312 251.332031 162.597656 251.871094 162.449219 252.402344 C 161.824219 254.304688 146.980469 299.585938 123.316406 331.867188 C 122.5 332.980469 121.476562 333.847656 120.246094 334.472656 C 119.011719 335.09375 117.703125 335.402344 116.316406 335.398438 Z M 116.316406 335.398438 " fill-opacity="1" fill-rule="nonzero"/></g><path fill="#ffffff" d="M 98.785156 320.375 C 98.785156 320.375 100.261719 316.964844 105.171875 316.964844 C 113.230469 316.964844 111.542969 330.769531 119.390625 330.769531 C 127.238281 330.769531 135.273438 330.292969 135.273438 336.136719 C 135.265625 336.964844 135.128906 337.769531 134.859375 338.554688 C 134.589844 339.335938 134.207031 340.058594 133.703125 340.71875 C 133.199219 341.375 132.601562 341.941406 131.917969 342.40625 C 131.230469 342.875 130.484375 343.222656 129.6875 343.449219 C 129.6875 343.449219 136.335938 354.679688 133.941406 363.527344 C 131.546875 372.371094 121.027344 373.402344 112.355469 373.402344 C 103.679688 373.402344 43.023438 360.378906 43.023438 320.019531 C 43.023438 294.335938 58.480469 292.035156 67.710938 292.035156 C 85.246094 292.035156 98.785156 307.175781 98.785156 320.375 Z M 98.785156 320.375 " fill-opacity="1" fill-rule="nonzero"/><g clip-path="url(#b0fa5146ac)"><path fill="#e66363" d="M 112.355469 374.726562 C 107.765625 374.726562 90.140625 371.355469 73.777344 363.035156 C 59.171875 355.523438 41.695312 341.996094 41.695312 320.019531 C 41.695312 300.578125 50.445312 290.710938 67.710938 290.710938 C 69.855469 290.726562 71.976562 290.949219 74.074219 291.375 C 76.171875 291.804688 78.210938 292.429688 80.183594 293.253906 C 82.160156 294.074219 84.039062 295.082031 85.816406 296.269531 C 87.59375 297.457031 89.238281 298.804688 90.75 300.3125 C 93.136719 302.570312 95.109375 305.140625 96.671875 308.027344 C 98.230469 310.910156 99.300781 313.964844 99.875 317.1875 C 101.476562 316.089844 103.253906 315.574219 105.199219 315.640625 C 110.117188 315.640625 111.980469 319.753906 113.628906 323.402344 C 115.28125 327.054688 116.582031 329.445312 119.417969 329.445312 L 121.105469 329.445312 C 126.894531 329.445312 132.347656 329.445312 135.035156 332.089844 C 135.566406 332.636719 135.972656 333.265625 136.25 333.972656 C 136.527344 334.683594 136.652344 335.417969 136.628906 336.179688 C 136.636719 337.011719 136.527344 337.832031 136.300781 338.636719 C 136.074219 339.441406 135.734375 340.199219 135.289062 340.90625 C 134.84375 341.617188 134.308594 342.25 133.679688 342.804688 C 133.054688 343.363281 132.359375 343.820312 131.601562 344.179688 C 133.34375 347.523438 137.335938 356.398438 135.246094 363.921875 C 132.226562 374.726562 118.3125 374.726562 112.355469 374.726562 Z M 67.710938 293.359375 C 46.777344 293.359375 44.355469 308.605469 44.355469 320.019531 C 44.355469 360.019531 105.742188 372.082031 112.355469 372.082031 C 121.1875 372.082031 130.496094 371.023438 132.652344 363.222656 C 134.925781 355.023438 128.660156 344.269531 128.542969 344.164062 L 127.652344 342.65625 L 129.355469 342.207031 C 130.011719 342.019531 130.625 341.734375 131.191406 341.347656 C 131.757812 340.960938 132.246094 340.5 132.660156 339.953125 C 133.074219 339.410156 133.390625 338.816406 133.609375 338.167969 C 133.828125 337.523438 133.941406 336.859375 133.941406 336.179688 C 133.992188 335.324219 133.722656 334.589844 133.132812 333.96875 C 131.230469 332.089844 126.082031 332.105469 121.078125 332.132812 L 119.390625 332.132812 C 114.628906 332.132812 112.804688 328.097656 111.183594 324.527344 C 109.425781 320.664062 108.152344 318.324219 105.171875 318.324219 C 101.261719 318.324219 100.050781 320.835938 100.007812 320.96875 L 97.46875 326.484375 L 97.46875 320.375 C 97.457031 307.878906 84.460938 293.359375 67.710938 293.359375 Z M 67.710938 293.359375 " fill-opacity="1" fill-rule="nonzero"/></g><g clip-path="url(#5a8d4507ff)"><path fill="#e66363" d="M 129.261719 365.085938 C 106.875 365.097656 96.523438 348.171875 87.332031 333.136719 C 79.472656 320.28125 72.699219 309.1875 60.089844 309.1875 C 46.867188 309.1875 44.421875 319.832031 44.328125 320.296875 C 44.292969 320.46875 44.222656 320.625 44.121094 320.769531 C 44.023438 320.914062 43.898438 321.035156 43.75 321.132812 C 43.601562 321.226562 43.441406 321.289062 43.265625 321.320312 C 43.089844 321.355469 42.917969 321.351562 42.746094 321.3125 C 42.570312 321.28125 42.410156 321.214844 42.261719 321.117188 C 42.113281 321.019531 41.992188 320.898438 41.894531 320.75 C 41.792969 320.605469 41.726562 320.445312 41.691406 320.273438 C 41.660156 320.097656 41.660156 319.925781 41.695312 319.753906 C 41.695312 319.621094 44.632812 306.527344 60.0625 306.527344 C 74.164062 306.527344 81.652344 318.773438 89.582031 331.746094 C 99.464844 347.90625 109.695312 364.625 133.78125 362.164062 C 133.957031 362.148438 134.128906 362.164062 134.296875 362.214844 C 134.464844 362.265625 134.617188 362.34375 134.75 362.457031 C 134.886719 362.566406 134.996094 362.699219 135.082031 362.851562 C 135.164062 363.003906 135.214844 363.167969 135.234375 363.339844 C 135.25 363.515625 135.234375 363.6875 135.1875 363.855469 C 135.136719 364.023438 135.054688 364.175781 134.945312 364.3125 C 134.832031 364.449219 134.699219 364.558594 134.546875 364.640625 C 134.390625 364.726562 134.226562 364.777344 134.050781 364.796875 C 132.414062 365.007812 130.816406 365.085938 129.261719 365.085938 Z M 129.261719 365.085938 " fill-opacity="1" fill-rule="nonzero"/></g><path fill="#e66363" d="M 127 344.933594 C 123.96875 344.953125 121.011719 344.492188 118.132812 343.558594 C 115.25 342.621094 112.59375 341.253906 110.160156 339.457031 C 110.011719 339.355469 109.886719 339.226562 109.789062 339.074219 C 109.695312 338.921875 109.632812 338.753906 109.601562 338.578125 C 109.574219 338.398438 109.582031 338.222656 109.628906 338.046875 C 109.671875 337.871094 109.75 337.714844 109.859375 337.570312 C 109.96875 337.425781 110.101562 337.308594 110.261719 337.222656 C 110.417969 337.132812 110.585938 337.078125 110.765625 337.058594 C 110.949219 337.035156 111.125 337.050781 111.296875 337.105469 C 111.472656 337.15625 111.628906 337.238281 111.769531 337.355469 C 114.328125 339.199219 117.136719 340.535156 120.1875 341.359375 C 123.238281 342.183594 126.339844 342.445312 129.488281 342.140625 C 129.660156 342.117188 129.835938 342.125 130.007812 342.164062 C 130.175781 342.207031 130.335938 342.28125 130.476562 342.382812 C 130.617188 342.488281 130.734375 342.617188 130.828125 342.765625 C 130.917969 342.917969 130.976562 343.078125 131.003906 343.253906 C 131.03125 343.425781 131.023438 343.597656 130.980469 343.769531 C 130.9375 343.941406 130.863281 344.09375 130.757812 344.238281 C 130.652344 344.378906 130.527344 344.496094 130.375 344.585938 C 130.222656 344.675781 130.058594 344.734375 129.886719 344.761719 C 128.925781 344.878906 127.964844 344.9375 127 344.933594 Z M 127 344.933594 " fill-opacity="1" fill-rule="nonzero"/><path fill="#e66363" d="M 98.785156 334.023438 C 98.609375 334.023438 98.441406 333.988281 98.277344 333.921875 C 98.113281 333.855469 97.96875 333.757812 97.84375 333.636719 C 97.71875 333.511719 97.625 333.367188 97.558594 333.207031 C 97.488281 333.042969 97.457031 332.875 97.457031 332.699219 C 97.550781 328.03125 97.457031 320.492188 97.457031 320.414062 C 97.457031 320.238281 97.488281 320.070312 97.558594 319.910156 C 97.625 319.746094 97.71875 319.601562 97.84375 319.480469 C 97.96875 319.355469 98.113281 319.261719 98.277344 319.191406 C 98.441406 319.125 98.609375 319.09375 98.785156 319.09375 C 98.960938 319.09375 99.132812 319.125 99.296875 319.191406 C 99.457031 319.261719 99.601562 319.355469 99.726562 319.480469 C 99.851562 319.601562 99.949219 319.746094 100.015625 319.910156 C 100.082031 320.070312 100.117188 320.238281 100.117188 320.414062 C 100.117188 320.414062 100.210938 328.058594 100.117188 332.777344 C 100.105469 332.949219 100.066406 333.109375 99.992188 333.261719 C 99.921875 333.414062 99.824219 333.546875 99.699219 333.664062 C 99.574219 333.777344 99.433594 333.867188 99.277344 333.929688 C 99.121094 333.992188 98.957031 334.023438 98.785156 334.023438 Z M 98.785156 334.023438 " fill-opacity="1" fill-rule="nonzero"/><g clip-path="url(#3cb253ecad)"><path fill="#e66363" d="M 120.632812 199.554688 C 103.441406 199.554688 83.132812 193.554688 66.910156 173.757812 C 66.503906 173.328125 66.148438 172.863281 65.835938 172.359375 C 65.527344 171.855469 65.273438 171.328125 65.070312 170.773438 C 64.871094 170.214844 64.726562 169.648438 64.644531 169.0625 C 64.558594 168.476562 64.535156 167.890625 64.570312 167.300781 C 64.605469 166.710938 64.703125 166.128906 64.859375 165.558594 C 65.011719 164.988281 65.222656 164.441406 65.492188 163.914062 C 65.757812 163.386719 66.074219 162.894531 66.441406 162.433594 C 66.8125 161.972656 67.222656 161.554688 67.675781 161.175781 C 68.128906 160.800781 68.617188 160.476562 69.136719 160.199219 C 69.660156 159.921875 70.203125 159.703125 70.769531 159.539062 C 71.335938 159.375 71.910156 159.269531 72.496094 159.226562 C 73.085938 159.183594 73.671875 159.199219 74.253906 159.273438 C 74.839844 159.347656 75.40625 159.484375 75.964844 159.675781 C 76.519531 159.871094 77.050781 160.117188 77.558594 160.421875 C 78.0625 160.726562 78.53125 161.078125 78.964844 161.476562 C 79.398438 161.875 79.789062 162.316406 80.132812 162.796875 C 105.78125 194.074219 141.113281 178.546875 142.605469 177.871094 C 143.117188 177.652344 143.644531 177.488281 144.183594 177.375 C 144.726562 177.257812 145.273438 177.195312 145.828125 177.1875 C 146.382812 177.179688 146.929688 177.226562 147.476562 177.324219 C 148.019531 177.421875 148.550781 177.570312 149.066406 177.769531 C 149.582031 177.972656 150.074219 178.21875 150.542969 178.515625 C 151.011719 178.8125 151.449219 179.152344 151.851562 179.53125 C 152.253906 179.914062 152.617188 180.328125 152.941406 180.78125 C 153.261719 181.230469 153.539062 181.710938 153.769531 182.214844 C 154.003906 182.71875 154.183594 183.242188 154.3125 183.78125 C 154.441406 184.324219 154.519531 184.871094 154.546875 185.425781 C 154.570312 185.980469 154.542969 186.53125 154.460938 187.082031 C 154.378906 187.632812 154.246094 188.167969 154.0625 188.691406 C 153.875 189.214844 153.644531 189.71875 153.363281 190.195312 C 153.082031 190.675781 152.757812 191.121094 152.390625 191.539062 C 152.023438 191.953125 151.617188 192.328125 151.179688 192.667969 C 150.738281 193.003906 150.269531 193.296875 149.773438 193.542969 C 145.179688 195.550781 140.425781 197.0625 135.515625 198.074219 C 130.605469 199.089844 125.644531 199.582031 120.632812 199.554688 Z M 120.632812 199.554688 " fill-opacity="1" fill-rule="nonzero"/></g><path fill="#ffffff" d="M 79.335938 152.140625 C 79.335938 152.140625 91.238281 159.347656 73.546875 168.304688 C 55.855469 177.261719 52.019531 167.203125 52.867188 161.667969 C 52.867188 161.667969 29.304688 164.324219 29.898438 139.253906 C 29.898438 139.253906 7.777344 108.828125 26.050781 99.578125 C 33.441406 95.835938 36.074219 111.148438 36.074219 111.148438 C 36.074219 111.148438 41.496094 107.976562 45.582031 112.703125 C 45.582031 112.703125 47.949219 100.625 57.878906 106.480469 C 57.878906 106.480469 54.1875 87.820312 66.007812 81.824219 C 70.308594 79.660156 73.53125 81.664062 74.84375 84.277344 C 78.425781 91.417969 72.289062 106.636719 76.480469 114.984375 C 76.480469 114.984375 84.03125 114.757812 88.382812 123.492188 C 92.730469 132.222656 88.355469 145.890625 79.335938 152.140625 Z M 79.335938 152.140625 " fill-opacity="1" fill-rule="nonzero"/><g clip-path="url(#16d8614abc)"><path fill="#e66363" d="M 61.539062 173.1875 C 59.253906 173.269531 57.167969 172.660156 55.285156 171.355469 C 54.660156 170.867188 54.097656 170.308594 53.601562 169.683594 C 53.109375 169.058594 52.695312 168.386719 52.359375 167.664062 C 52.023438 166.9375 51.78125 166.1875 51.625 165.402344 C 51.46875 164.621094 51.40625 163.832031 51.4375 163.035156 C 48.1875 163.035156 40.648438 162.625 35.042969 157.460938 C 30.652344 153.480469 28.429688 147.417969 28.5625 139.640625 C 26.59375 136.839844 15.050781 119.734375 17.984375 107.59375 C 18.214844 106.585938 18.554688 105.613281 19.007812 104.683594 C 19.457031 103.753906 20.007812 102.882812 20.65625 102.078125 C 21.304688 101.273438 22.035156 100.554688 22.847656 99.917969 C 23.660156 99.277344 24.535156 98.742188 25.46875 98.304688 C 26.285156 97.84375 27.160156 97.597656 28.09375 97.570312 C 29.03125 97.542969 29.917969 97.734375 30.757812 98.144531 C 34.527344 100.054688 36.378906 106.105469 37.09375 109.199219 C 37.746094 108.960938 38.417969 108.804688 39.109375 108.726562 C 39.800781 108.648438 40.492188 108.65625 41.183594 108.746094 C 41.871094 108.832031 42.542969 109.003906 43.191406 109.253906 C 43.839844 109.5 44.453125 109.824219 45.027344 110.222656 C 45.441406 108.910156 46.082031 107.722656 46.957031 106.664062 C 47.832031 105.601562 48.871094 104.746094 50.078125 104.089844 C 51.074219 103.660156 52.117188 103.445312 53.203125 103.445312 C 54.289062 103.445312 55.332031 103.660156 56.332031 104.089844 C 55.734375 98.558594 55.539062 85.578125 65.585938 80.523438 C 66.589844 79.945312 67.671875 79.601562 68.824219 79.492188 C 69.976562 79.382812 71.101562 79.519531 72.199219 79.898438 C 73.066406 80.234375 73.84375 80.71875 74.527344 81.351562 C 75.214844 81.984375 75.757812 82.71875 76.164062 83.5625 C 78.070312 87.332031 77.488281 92.757812 76.957031 98.515625 C 76.429688 103.972656 75.875 109.597656 77.5 113.578125 C 79.800781 113.804688 85.910156 115.117188 89.757812 122.773438 C 94.132812 131.480469 90.257812 144.976562 81.664062 152.074219 C 82.613281 152.851562 83.351562 153.789062 83.886719 154.894531 C 84.421875 156 84.699219 157.164062 84.71875 158.390625 C 84.574219 162.265625 81.070312 165.96875 74.285156 169.40625 C 68.734375 172.230469 64.632812 173.1875 61.539062 173.1875 Z M 54.441406 160.117188 L 54.175781 161.8125 C 54.050781 162.492188 54.015625 163.171875 54.070312 163.859375 C 54.125 164.546875 54.269531 165.214844 54.503906 165.863281 C 54.734375 166.511719 55.046875 167.117188 55.441406 167.683594 C 55.835938 168.246094 56.292969 168.75 56.820312 169.191406 C 59.054688 170.824219 63.65625 171.847656 72.925781 167.09375 C 78.691406 164.191406 81.796875 161.164062 81.902344 158.363281 C 82.007812 155.5625 78.664062 153.296875 78.625 153.269531 L 76.90625 152.207031 L 78.558594 151.050781 C 87.164062 145.015625 91.289062 132.128906 87.21875 124.035156 C 83.25 116.21875 76.773438 116.246094 76.496094 116.257812 L 75.675781 116.257812 L 75.292969 115.515625 C 72.9375 110.832031 73.558594 104.460938 74.167969 98.265625 C 74.695312 92.957031 75.199219 87.847656 73.652344 84.769531 C 73.089844 83.671875 72.234375 82.902344 71.085938 82.460938 C 70.335938 82.222656 69.570312 82.148438 68.789062 82.238281 C 68.007812 82.328125 67.28125 82.574219 66.605469 82.976562 C 55.839844 88.433594 59.148438 106 59.1875 106.1875 L 59.808594 109.078125 L 57.164062 107.582031 C 54.730469 106.160156 52.65625 105.816406 51.003906 106.558594 C 47.882812 107.964844 46.835938 112.875 46.835938 112.929688 L 46.308594 115.582031 L 44.535156 113.523438 C 44.058594 112.976562 43.503906 112.527344 42.867188 112.171875 C 42.234375 111.816406 41.5625 111.578125 40.84375 111.457031 C 40.128906 111.335938 39.414062 111.339844 38.699219 111.464844 C 37.984375 111.59375 37.3125 111.835938 36.683594 112.199219 L 35.042969 113.140625 L 34.777344 111.390625 C 34.339844 108.921875 32.570312 102.167969 29.488281 100.625 C 29.03125 100.410156 28.554688 100.316406 28.050781 100.34375 C 27.546875 100.367188 27.078125 100.511719 26.644531 100.773438 C 25.886719 101.117188 25.179688 101.542969 24.519531 102.050781 C 23.855469 102.558594 23.261719 103.132812 22.734375 103.777344 C 22.203125 104.421875 21.753906 105.117188 21.382812 105.863281 C 21.011719 106.613281 20.730469 107.390625 20.539062 108.203125 C 17.707031 120 30.835938 138.261719 30.96875 138.433594 L 31.234375 138.804688 L 31.234375 139.253906 C 31.0625 146.449219 32.941406 151.914062 36.839844 155.496094 C 43.109375 161.285156 52.707031 160.316406 52.707031 160.316406 Z M 54.441406 160.117188 " fill-opacity="1" fill-rule="nonzero"/></g><path fill="#e66363" d="M 81.585938 122.589844 C 81.4375 122.496094 81.277344 122.4375 81.101562 122.410156 C 80.929688 122.386719 80.757812 122.390625 80.589844 122.433594 C 80.421875 122.472656 80.265625 122.546875 80.125 122.648438 C 79.980469 122.75 79.867188 122.878906 79.773438 123.027344 C 76.230469 128.773438 70.980469 132.089844 65.773438 131.835938 C 62.996094 131.71875 60.734375 130.511719 59.859375 128.824219 C 59.40625 128.003906 59.113281 127.132812 58.984375 126.203125 C 58.851562 125.273438 58.894531 124.351562 59.105469 123.4375 C 59.386719 122.5 59.851562 121.667969 60.5 120.9375 C 61.144531 120.207031 61.914062 119.648438 62.808594 119.257812 C 64.886719 118.160156 67.070312 117.359375 69.359375 116.851562 C 71.648438 116.347656 73.96875 116.152344 76.308594 116.273438 C 76.484375 116.292969 76.65625 116.28125 76.828125 116.234375 C 77 116.1875 77.152344 116.109375 77.292969 116 C 77.433594 115.890625 77.546875 115.761719 77.632812 115.605469 C 77.722656 115.453125 77.777344 115.285156 77.796875 115.109375 C 77.820312 114.933594 77.808594 114.761719 77.761719 114.589844 C 77.714844 114.417969 77.636719 114.265625 77.527344 114.125 C 77.417969 113.984375 77.289062 113.871094 77.132812 113.78125 C 76.980469 113.695312 76.816406 113.640625 76.640625 113.617188 C 71.8125 113.304688 67.210938 114.191406 62.835938 116.273438 C 61.363281 112.964844 60.140625 109.566406 59.160156 106.082031 C 59.113281 105.910156 59.035156 105.757812 58.929688 105.617188 C 58.820312 105.476562 58.691406 105.363281 58.539062 105.277344 C 58.386719 105.191406 58.222656 105.136719 58.050781 105.113281 C 57.875 105.09375 57.703125 105.105469 57.535156 105.152344 C 57.367188 105.199219 57.214844 105.273438 57.074219 105.382812 C 56.9375 105.488281 56.828125 105.617188 56.738281 105.769531 C 56.652344 105.921875 56.597656 106.085938 56.574219 106.257812 C 56.554688 106.429688 56.5625 106.601562 56.609375 106.769531 C 57.632812 110.453125 58.925781 114.035156 60.496094 117.519531 C 59.53125 118.105469 58.707031 118.847656 58.019531 119.75 C 57.335938 120.648438 56.839844 121.644531 56.527344 122.734375 C 56.234375 123.964844 56.171875 125.210938 56.335938 126.46875 C 56.503906 127.722656 56.890625 128.90625 57.496094 130.019531 C 57.875 130.761719 58.378906 131.40625 59 131.957031 C 58.347656 132.375 57.644531 132.664062 56.882812 132.816406 C 56.125 132.96875 55.363281 132.980469 54.597656 132.847656 C 53.125 132.53125 51.796875 131.898438 50.621094 130.953125 C 49.441406 130.007812 48.539062 128.847656 47.90625 127.472656 C 44.90625 121.5 46.851562 113.0625 46.875 112.980469 C 46.917969 112.808594 46.921875 112.640625 46.894531 112.464844 C 46.867188 112.292969 46.804688 112.132812 46.714844 111.984375 C 46.621094 111.832031 46.507812 111.707031 46.363281 111.605469 C 46.222656 111.5 46.066406 111.429688 45.898438 111.390625 C 45.726562 111.347656 45.554688 111.339844 45.378906 111.367188 C 45.207031 111.394531 45.042969 111.453125 44.894531 111.546875 C 44.746094 111.636719 44.617188 111.753906 44.515625 111.898438 C 44.410156 112.042969 44.339844 112.199219 44.296875 112.371094 C 44.207031 112.753906 42.101562 121.832031 45.542969 128.679688 C 46.722656 131.105469 48.484375 132.980469 50.832031 134.304688 C 49.933594 135.230469 48.886719 135.925781 47.6875 136.390625 C 46.492188 136.851562 45.25 137.042969 43.96875 136.960938 C 40.277344 136.679688 37.011719 134.066406 34.710938 129.609375 C 30.003906 120.320312 36.707031 112.359375 37.011719 111.960938 C 37.136719 111.832031 37.230469 111.683594 37.292969 111.515625 C 37.355469 111.347656 37.382812 111.175781 37.378906 110.996094 C 37.371094 110.816406 37.332031 110.648438 37.257812 110.484375 C 37.179688 110.324219 37.078125 110.183594 36.945312 110.0625 C 36.816406 109.945312 36.667969 109.859375 36.5 109.804688 C 36.335938 109.746094 36.164062 109.722656 35.988281 109.734375 C 35.816406 109.746094 35.648438 109.789062 35.492188 109.867188 C 35.335938 109.945312 35.199219 110.050781 35.082031 110.179688 C 35.003906 110.289062 26.871094 119.773438 32.4375 130.777344 C 35.082031 136.085938 39.222656 139.242188 43.796875 139.585938 L 44.628906 139.585938 C 46.351562 139.566406 47.984375 139.179688 49.53125 138.421875 C 51.082031 137.667969 52.394531 136.621094 53.476562 135.273438 L 54.1875 135.433594 C 54.695312 135.523438 55.207031 135.566406 55.722656 135.566406 C 56.761719 135.574219 57.769531 135.398438 58.742188 135.03125 C 59.714844 134.664062 60.589844 134.136719 61.367188 133.441406 C 62.539062 133.96875 63.765625 134.28125 65.042969 134.386719 C 64.421875 135.257812 63.921875 136.199219 63.546875 137.203125 C 63.175781 138.210938 62.9375 139.246094 62.839844 140.316406 C 62.742188 141.386719 62.78125 142.449219 62.964844 143.507812 C 63.148438 144.566406 63.46875 145.582031 63.921875 146.554688 C 64.03125 146.785156 64.191406 146.96875 64.40625 147.105469 C 64.621094 147.242188 64.855469 147.308594 65.109375 147.308594 C 65.308594 147.308594 65.496094 147.269531 65.679688 147.191406 C 65.835938 147.117188 65.976562 147.011719 66.09375 146.882812 C 66.210938 146.753906 66.300781 146.605469 66.359375 146.441406 C 66.421875 146.273438 66.445312 146.105469 66.4375 145.929688 C 66.429688 145.753906 66.386719 145.585938 66.3125 145.425781 C 63.667969 139.773438 67.449219 135.378906 68.546875 134.277344 C 73.703125 133.46875 78.597656 129.925781 82.023438 124.378906 C 82.109375 124.230469 82.164062 124.070312 82.1875 123.902344 C 82.214844 123.730469 82.207031 123.5625 82.164062 123.394531 C 82.125 123.230469 82.054688 123.074219 81.953125 122.9375 C 81.851562 122.796875 81.730469 122.679688 81.585938 122.589844 Z M 81.585938 122.589844 " fill-opacity="1" fill-rule="nonzero"/><path fill="#e66363" d="M 78.609375 151.039062 C 77.023438 151.960938 75.335938 152.613281 73.546875 152.996094 C 71.753906 153.382812 69.949219 153.480469 68.125 153.296875 C 67.949219 153.277344 67.777344 153.292969 67.609375 153.34375 C 67.4375 153.390625 67.285156 153.472656 67.148438 153.585938 C 67.011719 153.695312 66.898438 153.828125 66.816406 153.984375 C 66.730469 154.140625 66.679688 154.304688 66.664062 154.484375 C 66.644531 154.660156 66.660156 154.832031 66.710938 155 C 66.761719 155.171875 66.839844 155.324219 66.953125 155.460938 C 67.0625 155.601562 67.195312 155.710938 67.351562 155.796875 C 67.507812 155.878906 67.671875 155.929688 67.847656 155.949219 C 68.527344 156.023438 69.210938 156.058594 69.898438 156.054688 C 73.546875 156.074219 76.941406 155.148438 80.078125 153.269531 C 80.226562 153.171875 80.347656 153.046875 80.445312 152.902344 C 80.542969 152.753906 80.609375 152.597656 80.644531 152.421875 C 80.679688 152.25 80.679688 152.078125 80.644531 151.902344 C 80.613281 151.730469 80.546875 151.570312 80.449219 151.425781 C 80.351562 151.277344 80.230469 151.15625 80.082031 151.054688 C 79.9375 150.957031 79.777344 150.890625 79.605469 150.855469 C 79.433594 150.820312 79.261719 150.820312 79.089844 150.855469 C 78.917969 150.890625 78.757812 150.953125 78.609375 151.050781 Z M 78.609375 151.039062 " fill-opacity="1" fill-rule="nonzero"/><path fill="#e66363" d="M 60.269531 156.054688 C 58.160156 158.253906 55.617188 159.671875 52.640625 160.316406 C 52.464844 160.328125 52.300781 160.378906 52.144531 160.460938 C 51.988281 160.539062 51.855469 160.648438 51.742188 160.785156 C 51.628906 160.917969 51.542969 161.070312 51.492188 161.238281 C 51.4375 161.40625 51.417969 161.578125 51.433594 161.753906 C 51.449219 161.929688 51.496094 162.097656 51.578125 162.253906 C 51.65625 162.410156 51.765625 162.546875 51.898438 162.660156 C 52.035156 162.773438 52.183594 162.855469 52.351562 162.910156 C 52.519531 162.964844 52.691406 162.984375 52.867188 162.96875 L 53.089844 162.96875 C 54.839844 162.597656 56.492188 161.972656 58.046875 161.097656 C 59.605469 160.222656 61 159.132812 62.226562 157.832031 C 62.347656 157.703125 62.4375 157.554688 62.496094 157.386719 C 62.554688 157.21875 62.582031 157.046875 62.574219 156.871094 C 62.566406 156.695312 62.523438 156.527344 62.445312 156.367188 C 62.371094 156.207031 62.265625 156.066406 62.136719 155.949219 C 62.003906 155.832031 61.855469 155.746094 61.691406 155.6875 C 61.527344 155.628906 61.355469 155.605469 61.179688 155.617188 C 61.007812 155.625 60.839844 155.667969 60.683594 155.746094 C 60.523438 155.820312 60.386719 155.925781 60.269531 156.054688 Z M 60.269531 156.054688 " fill-opacity="1" fill-rule="nonzero"/><path fill="#ffffff" d="M 97.582031 21.046875 C 97.582031 21.046875 83.078125 28.652344 83.078125 50.964844 C 83.078125 73.933594 97.582031 81.085938 97.582031 81.085938 C 115.6875 72.148438 134.675781 65.890625 154.542969 62.320312 C 200.382812 54.082031 242.878906 61.453125 280.871094 84.394531 C 280.871094 84.394531 295.9375 80.949219 300.359375 60.203125 C 303.59375 44.894531 301.304688 34.035156 295.25 29.367188 C 233.867188 -17.847656 138.75 5.589844 97.582031 21.046875 Z M 97.582031 21.046875 " fill-opacity="1" fill-rule="nonzero"/><g clip-path="url(#69ca81bc2d)"><path fill="#eb1f2a" d="M 280.636719 85.851562 L 280.160156 85.5625 C 242.46875 62.8125 200.285156 55.453125 154.789062 63.679688 C 135.050781 67.25 116.1875 73.480469 98.199219 82.378906 L 97.582031 82.695312 L 96.980469 82.378906 C 96.347656 82.0625 81.707031 74.578125 81.707031 51.019531 C 81.707031 28.144531 96.320312 20.222656 96.9375 19.894531 L 97.101562 19.894531 C 118.195312 11.972656 226.921875 -24.835938 296.085938 28.40625 C 302.933594 33.636719 304.921875 45.375 301.703125 60.617188 C 297.183594 81.980469 281.816406 85.699219 281.160156 85.851562 Z M 190.164062 57.664062 C 198.136719 57.636719 206.074219 58.152344 213.976562 59.21875 C 221.878906 60.28125 229.671875 61.878906 237.355469 64.011719 C 245.039062 66.144531 252.539062 68.796875 259.863281 71.960938 C 267.183594 75.125 274.253906 78.777344 281.078125 82.914062 C 283.679688 82.117188 295.277344 77.628906 299.019531 59.929688 C 302.015625 45.761719 300.386719 35.023438 294.417969 30.453125 C 226.5 -21.832031 119.222656 14.402344 98.144531 22.3125 C 96.980469 22.957031 84.449219 30.371094 84.449219 50.964844 C 84.449219 70.253906 95.019531 77.941406 97.621094 79.535156 C 115.65625 70.714844 134.546875 64.527344 154.296875 60.972656 C 166.152344 58.792969 178.109375 57.691406 190.164062 57.664062 Z M 190.164062 57.664062 " fill-opacity="1" fill-rule="nonzero"/></g><path fill="#eb1f2a" d="M 291.949219 35.945312 C 287.582031 34.570312 282.363281 39.074219 278.417969 46.929688 C 273.53125 43.152344 255.535156 31.824219 212.296875 28.394531 C 212.113281 28.378906 211.9375 28.398438 211.765625 28.453125 C 211.589844 28.511719 211.433594 28.597656 211.296875 28.714844 C 211.15625 28.835938 211.046875 28.976562 210.960938 29.136719 C 210.878906 29.300781 210.832031 29.472656 210.816406 29.65625 C 210.804688 29.835938 210.824219 30.015625 210.882812 30.1875 C 210.941406 30.359375 211.027344 30.515625 211.144531 30.652344 C 211.261719 30.789062 211.402344 30.898438 211.566406 30.980469 C 211.726562 31.0625 211.898438 31.109375 212.078125 31.125 C 256.207031 34.613281 273.707031 46.667969 277.226562 49.496094 C 276.597656 50.976562 276.023438 52.558594 275.503906 54.203125 C 273.835938 59.234375 273.183594 64.390625 273.542969 69.679688 C 274.023438 74.539062 275.859375 77.695312 278.679688 78.589844 C 279.207031 78.75 279.746094 78.828125 280.296875 78.820312 C 283.40625 78.820312 286.871094 76.226562 290.035156 71.421875 C 290.128906 71.269531 290.195312 71.105469 290.226562 70.925781 C 290.257812 70.75 290.253906 70.574219 290.214844 70.398438 C 290.179688 70.222656 290.109375 70.058594 290.007812 69.910156 C 289.90625 69.761719 289.78125 69.636719 289.628906 69.539062 C 289.480469 69.441406 289.316406 69.371094 289.140625 69.339844 C 288.964844 69.304688 288.789062 69.304688 288.613281 69.339844 C 288.4375 69.375 288.273438 69.441406 288.125 69.539062 C 287.972656 69.636719 287.847656 69.761719 287.746094 69.910156 C 284.882812 74.261719 281.652344 76.640625 279.527344 75.964844 C 277.832031 75.429688 276.652344 73.042969 276.296875 69.402344 C 275.960938 64.488281 276.578125 59.695312 278.144531 55.027344 C 278.714844 53.179688 279.394531 51.371094 280.1875 49.605469 C 283.679688 41.945312 288.402344 37.703125 291.144531 38.621094 C 293.113281 39.226562 294.402344 42.464844 294.5 47.066406 C 294.5 47.246094 294.53125 47.421875 294.601562 47.589844 C 294.671875 47.757812 294.769531 47.90625 294.898438 48.035156 C 295.027344 48.164062 295.175781 48.265625 295.34375 48.332031 C 295.511719 48.402344 295.6875 48.4375 295.867188 48.4375 C 296.050781 48.4375 296.222656 48.402344 296.390625 48.332031 C 296.558594 48.265625 296.707031 48.164062 296.835938 48.035156 C 296.964844 47.90625 297.0625 47.757812 297.132812 47.589844 C 297.203125 47.421875 297.238281 47.246094 297.238281 47.066406 C 297.101562 40.96875 295.167969 36.945312 291.949219 35.945312 Z M 291.949219 35.945312 " fill-opacity="1" fill-rule="nonzero"/><path fill="#eb1f2a" d="M 99.785156 35.695312 C 99.96875 35.695312 100.140625 35.660156 100.308594 35.585938 C 193.589844 -2.195312 269.351562 29.1875 270.132812 29.503906 C 270.300781 29.585938 270.480469 29.628906 270.664062 29.632812 C 270.851562 29.640625 271.03125 29.613281 271.207031 29.546875 C 271.378906 29.476562 271.535156 29.378906 271.667969 29.25 C 271.800781 29.121094 271.90625 28.96875 271.976562 28.796875 C 272.050781 28.625 272.085938 28.449219 272.085938 28.261719 C 272.085938 28.074219 272.050781 27.894531 271.976562 27.722656 C 271.902344 27.550781 271.800781 27.402344 271.664062 27.273438 C 271.53125 27.140625 271.375 27.042969 271.203125 26.980469 C 270.449219 26.648438 193.683594 -5.175781 99.308594 33.046875 C 99.003906 33.167969 98.773438 33.371094 98.613281 33.65625 C 98.453125 33.941406 98.40625 34.246094 98.460938 34.570312 C 98.519531 34.890625 98.675781 35.160156 98.921875 35.371094 C 99.171875 35.582031 99.460938 35.691406 99.785156 35.695312 Z M 99.785156 35.695312 " fill-opacity="1" fill-rule="nonzero"/><path fill="#eb1f2a" d="M 264.328125 54.410156 C 257.804688 51.851562 251.171875 49.632812 244.425781 47.75 C 244.25 47.703125 244.074219 47.691406 243.894531 47.714844 C 243.714844 47.734375 243.542969 47.792969 243.386719 47.882812 C 243.226562 47.972656 243.09375 48.089844 242.980469 48.234375 C 242.871094 48.378906 242.789062 48.535156 242.742188 48.710938 C 242.695312 48.886719 242.679688 49.066406 242.703125 49.246094 C 242.726562 49.429688 242.78125 49.597656 242.871094 49.757812 C 242.960938 49.914062 243.078125 50.050781 243.222656 50.160156 C 243.367188 50.273438 243.527344 50.351562 243.699219 50.402344 C 250.355469 52.253906 256.894531 54.441406 263.328125 56.964844 C 263.484375 57.03125 263.648438 57.0625 263.820312 57.058594 C 264.148438 57.0625 264.441406 56.957031 264.695312 56.746094 C 264.949219 56.535156 265.105469 56.269531 265.167969 55.945312 C 265.230469 55.621094 265.183594 55.316406 265.023438 55.027344 C 264.863281 54.738281 264.632812 54.53125 264.328125 54.410156 Z M 264.328125 54.410156 " fill-opacity="1" fill-rule="nonzero"/><path fill="#eb1f2a" d="M 226.199219 43.617188 C 156.269531 31.113281 99.730469 59.75 99.171875 60.09375 C 98.890625 60.238281 98.683594 60.453125 98.550781 60.742188 C 98.417969 61.027344 98.390625 61.328125 98.460938 61.632812 C 98.535156 61.941406 98.695312 62.195312 98.941406 62.390625 C 99.191406 62.589844 99.472656 62.6875 99.785156 62.691406 C 100.011719 62.695312 100.21875 62.644531 100.417969 62.539062 C 100.976562 62.25 156.734375 34.050781 225.71875 46.378906 C 225.898438 46.410156 226.082031 46.40625 226.261719 46.367188 C 226.441406 46.324219 226.605469 46.253906 226.757812 46.144531 C 226.90625 46.039062 227.03125 45.910156 227.132812 45.753906 C 227.230469 45.597656 227.296875 45.429688 227.328125 45.246094 C 227.359375 45.0625 227.355469 44.882812 227.316406 44.703125 C 227.273438 44.523438 227.203125 44.355469 227.097656 44.203125 C 226.988281 44.054688 226.859375 43.929688 226.703125 43.828125 C 226.546875 43.730469 226.378906 43.664062 226.199219 43.632812 Z M 226.199219 43.617188 " fill-opacity="1" fill-rule="nonzero"/><path fill="#ffffff" d="M 97.582031 81.085938 C 97.582031 81.085938 191.164062 25.441406 280.871094 78.875 C 280.871094 78.875 263.066406 268.261719 96.734375 276.914062 C 90.105469 277.257812 85.105469 271.722656 85.105469 265.078125 C 85.105469 252.160156 88.445312 238.097656 96.9375 219.097656 C 108.222656 193.875 116.46875 171.703125 112.125 140.839844 C 109.195312 119.996094 95.679688 98.234375 97.582031 81.085938 Z M 97.582031 81.085938 " fill-opacity="1" fill-rule="nonzero"/><path fill="#eb1f2a" d="M 96.15625 278.300781 C 94.613281 278.304688 93.121094 278.019531 91.6875 277.445312 C 90.25 276.871094 88.972656 276.046875 87.859375 274.976562 C 86.53125 273.675781 85.511719 272.164062 84.800781 270.445312 C 84.085938 268.726562 83.734375 266.9375 83.75 265.078125 C 83.75 251.347656 87.433594 237.042969 95.707031 218.546875 C 106.523438 194.371094 115.113281 171.867188 110.769531 141.015625 C 109.539062 132.269531 106.386719 123.265625 103.320312 114.546875 C 99.089844 102.476562 95.101562 91.082031 96.210938 80.9375 L 96.292969 80.25 L 96.882812 79.90625 C 115.296875 69.894531 134.769531 62.792969 155.296875 58.597656 C 187.054688 51.953125 234.824219 49.867188 281.554688 77.695312 L 282.296875 78.148438 L 282.214844 79.015625 C 280.046875 95.800781 276.457031 112.277344 271.445312 128.445312 C 266.433594 144.609375 260.074219 160.222656 252.371094 175.285156 C 237.605469 203.582031 218.800781 226.511719 196.476562 243.414062 C 168.539062 264.554688 135 276.363281 96.789062 278.273438 Z M 98.894531 81.964844 C 98.101562 91.328125 101.910156 102.191406 105.9375 113.679688 C 109.03125 122.523438 112.25 131.652344 113.507812 140.675781 C 117.945312 172.253906 109.210938 195.140625 98.226562 219.703125 C 90.089844 237.796875 86.472656 251.800781 86.472656 265.078125 C 86.46875 266.570312 86.753906 268.003906 87.335938 269.375 C 87.914062 270.75 88.742188 271.953125 89.816406 272.988281 C 90.734375 273.867188 91.789062 274.527344 92.976562 274.972656 C 94.167969 275.414062 95.394531 275.605469 96.664062 275.539062 C 134.300781 273.578125 167.320312 262.042969 194.792969 241.214844 C 216.800781 224.5625 235.347656 201.964844 249.90625 174.050781 C 257.460938 159.269531 263.714844 143.953125 268.667969 128.101562 C 273.621094 112.25 277.199219 96.09375 279.40625 79.632812 C 233.703125 52.722656 187.054688 54.78125 155.9375 61.273438 C 135.917969 65.390625 116.894531 72.273438 98.867188 81.925781 Z M 98.894531 81.964844 " fill-opacity="1" fill-rule="nonzero"/><path fill="#eb1f2a" d="M 185.21875 229.285156 C 184.765625 229.285156 184.398438 229.101562 184.125 228.734375 C 184.015625 228.589844 183.9375 228.429688 183.894531 228.253906 C 183.847656 228.078125 183.839844 227.898438 183.863281 227.71875 C 183.890625 227.539062 183.949219 227.371094 184.042969 227.210938 C 184.132812 227.054688 184.253906 226.921875 184.398438 226.8125 C 245.207031 181.710938 259.726562 78.21875 259.875 77.160156 C 259.898438 76.976562 259.957031 76.808594 260.050781 76.648438 C 260.144531 76.492188 260.261719 76.355469 260.40625 76.242188 C 260.554688 76.132812 260.714844 76.054688 260.890625 76.007812 C 261.070312 75.960938 261.25 75.949219 261.429688 75.972656 C 261.613281 75.996094 261.78125 76.054688 261.941406 76.148438 C 262.097656 76.242188 262.234375 76.359375 262.34375 76.507812 C 262.457031 76.652344 262.535156 76.8125 262.582031 76.992188 C 262.628906 77.167969 262.640625 77.347656 262.613281 77.53125 C 262.476562 78.574219 247.796875 183.25 186.054688 229.011719 C 185.808594 229.195312 185.53125 229.289062 185.21875 229.285156 Z M 185.21875 229.285156 " fill-opacity="1" fill-rule="nonzero"/><path fill="#eb1f2a" d="M 142.40625 258.832031 C 142.226562 258.855469 142.046875 258.84375 141.871094 258.796875 C 141.695312 258.75 141.53125 258.667969 141.386719 258.558594 C 141.242188 258.445312 141.125 258.3125 141.03125 258.152344 C 140.941406 257.996094 140.882812 257.824219 140.859375 257.644531 C 140.832031 257.460938 140.84375 257.28125 140.890625 257.105469 C 140.9375 256.925781 141.015625 256.765625 141.125 256.621094 C 141.238281 256.472656 141.371094 256.355469 141.53125 256.261719 C 141.6875 256.167969 141.855469 256.109375 142.039062 256.085938 C 149.542969 253.957031 155.378906 250.347656 161.019531 246.84375 C 164.765625 244.34375 168.71875 242.226562 172.878906 240.503906 C 174.855469 239.824219 176.867188 239.261719 178.90625 238.8125 C 184.671875 237.441406 191.234375 235.875 196.011719 230.230469 C 196.128906 230.09375 196.269531 229.980469 196.433594 229.898438 C 196.59375 229.816406 196.765625 229.765625 196.949219 229.753906 C 197.128906 229.738281 197.304688 229.757812 197.480469 229.816406 C 197.652344 229.871094 197.808594 229.960938 197.945312 230.078125 C 198.085938 230.195312 198.195312 230.335938 198.277344 230.5 C 198.359375 230.664062 198.40625 230.835938 198.421875 231.015625 C 198.433594 231.199219 198.414062 231.375 198.355469 231.550781 C 198.300781 231.722656 198.214844 231.878906 198.09375 232.015625 C 192.699219 238.332031 185.410156 240.089844 179.550781 241.492188 C 177.617188 241.90625 175.710938 242.429688 173.839844 243.070312 C 169.828125 244.761719 166.019531 246.820312 162.402344 249.246094 C 156.925781 252.667969 150.597656 256.539062 142.738281 258.859375 C 142.625 258.859375 142.515625 258.851562 142.40625 258.832031 Z M 142.40625 258.832031 " fill-opacity="1" fill-rule="nonzero"/><path fill="#ffffff" d="M 118.578125 160.636719 C 121.863281 178.882812 114.46875 190.964844 105.894531 198.738281 C 97.320312 206.507812 87.378906 214.183594 84.84375 225.496094 C 83.078125 233.457031 85.390625 241.902344 83.613281 249.851562 C 82.160156 256.292969 78.132812 262.058594 77.558594 268.632812 C 76.859375 277.160156 82.203125 284.890625 87.28125 291.769531 C 89.898438 295.324219 92.664062 298.992188 96.609375 300.953125 C 100.554688 302.917969 106.03125 302.53125 108.550781 298.921875 C 110.785156 295.722656 110.003906 291.410156 109.648438 287.527344 C 109.292969 283.640625 109.976562 278.875 113.539062 277.296875 C 115.976562 276.210938 118.824219 277.089844 121.46875 276.761719 C 125.464844 276.242188 128.65625 272.890625 130.066406 269.113281 C 131.289062 265.199219 131.628906 261.207031 131.09375 257.140625 C 130.753906 252.597656 130.355469 247.367188 133.613281 244.195312 C 135.085938 242.957031 136.734375 242.042969 138.558594 241.449219 L 154.855469 234.929688 " fill-opacity="1" fill-rule="nonzero"/><g clip-path="url(#2d0693a1fb)"><path fill="#eb1f2a" d="M 101.664062 303.492188 C 99.671875 303.480469 97.785156 303.019531 96.007812 302.121094 C 91.679688 299.980469 88.761719 296.023438 86.1875 292.511719 C 80.503906 284.902344 75.476562 277.339844 76.1875 268.511719 C 76.707031 264.613281 77.816406 260.890625 79.515625 257.347656 C 80.660156 254.832031 81.574219 252.230469 82.257812 249.550781 C 82.960938 245.625 83.15625 241.675781 82.84375 237.703125 C 82.53125 233.492188 82.757812 229.316406 83.515625 225.167969 C 85.859375 214.675781 94.144531 207.316406 102.15625 200.179688 C 103.128906 199.328125 104.085938 198.476562 105.03125 197.609375 C 115.796875 187.863281 119.917969 175.476562 117.359375 160.789062 C 117.324219 160.605469 117.328125 160.425781 117.367188 160.242188 C 117.40625 160.0625 117.480469 159.898438 117.585938 159.746094 C 117.691406 159.59375 117.820312 159.46875 117.976562 159.367188 C 118.132812 159.269531 118.300781 159.203125 118.480469 159.167969 C 118.664062 159.136719 118.84375 159.140625 119.023438 159.179688 C 119.203125 159.21875 119.371094 159.289062 119.523438 159.394531 C 119.671875 159.5 119.796875 159.632812 119.898438 159.789062 C 120 159.941406 120.066406 160.113281 120.097656 160.292969 C 122.835938 175.988281 118.496094 189.222656 106.976562 199.65625 L 104.085938 202.238281 C 96.390625 209.101562 88.445312 216.144531 86.28125 225.769531 C 85.585938 229.679688 85.390625 233.617188 85.695312 237.578125 C 86.007812 241.789062 85.789062 245.972656 85.035156 250.125 C 84.320312 252.960938 83.355469 255.703125 82.148438 258.363281 C 80.492188 261.648438 79.398438 265.105469 78.859375 268.742188 C 78.230469 276.554688 82.96875 283.710938 88.324219 290.957031 C 90.71875 294.199219 93.433594 297.824219 97.171875 299.71875 C 100.417969 301.339844 105.238281 301.1875 107.375 298.140625 C 109.058594 295.722656 108.742188 292.332031 108.375 289.050781 C 108.375 288.582031 108.277344 288.117188 108.238281 287.675781 C 107.976562 284.929688 107.9375 278.300781 112.921875 276.0625 C 114.699219 275.414062 116.523438 275.207031 118.398438 275.445312 C 119.347656 275.527344 120.296875 275.527344 121.246094 275.445312 C 124.425781 275.046875 127.371094 272.382812 128.738281 268.6875 C 129.882812 264.964844 130.199219 261.171875 129.699219 257.308594 C 129.34375 252.667969 128.890625 246.898438 132.613281 243.261719 C 134.214844 241.886719 136.011719 240.859375 138.011719 240.1875 L 154.308594 233.664062 C 154.476562 233.597656 154.652344 233.566406 154.835938 233.566406 C 155.015625 233.570312 155.191406 233.605469 155.359375 233.679688 C 155.527344 233.75 155.671875 233.851562 155.800781 233.984375 C 155.925781 234.113281 156.023438 234.265625 156.089844 234.433594 C 156.15625 234.601562 156.1875 234.777344 156.1875 234.960938 C 156.183594 235.144531 156.148438 235.316406 156.074219 235.484375 C 156.003906 235.652344 155.902344 235.800781 155.773438 235.925781 C 155.640625 236.054688 155.492188 236.152344 155.324219 236.21875 L 139.121094 242.683594 C 137.460938 243.226562 135.960938 244.054688 134.613281 245.171875 C 131.875 247.917969 132.175781 252.761719 132.503906 257.03125 C 133.054688 261.300781 132.683594 265.488281 131.394531 269.59375 C 129.65625 274.234375 125.917969 277.585938 121.6875 278.121094 C 120.570312 278.210938 119.457031 278.210938 118.34375 278.121094 C 116.914062 277.921875 115.511719 278.050781 114.140625 278.503906 C 110.660156 280.058594 110.90625 285.671875 111.058594 287.359375 C 111.058594 287.8125 111.140625 288.265625 111.195312 288.734375 C 111.566406 292.34375 111.988281 296.4375 109.714844 299.71875 C 109.25 300.335938 108.714844 300.890625 108.113281 301.382812 C 107.511719 301.871094 106.859375 302.277344 106.15625 302.609375 C 105.457031 302.9375 104.722656 303.175781 103.964844 303.324219 C 103.203125 303.476562 102.4375 303.53125 101.664062 303.492188 Z M 101.664062 303.492188 " fill-opacity="1" fill-rule="nonzero"/></g><path fill="#eb1f2a" d="M 99.292969 273.410156 C 99.121094 273.414062 98.957031 273.382812 98.800781 273.316406 C 98.632812 273.25 98.480469 273.152344 98.351562 273.027344 C 98.222656 272.902344 98.117188 272.757812 98.046875 272.589844 C 97.972656 272.425781 97.933594 272.253906 97.929688 272.070312 C 97.925781 271.890625 97.953125 271.714844 98.019531 271.542969 C 98.839844 269.429688 101.003906 268.097656 104.277344 267.6875 L 105.265625 267.578125 C 106.808594 267.574219 108.242188 267.175781 109.566406 266.382812 C 111.113281 265.160156 111.375 262.703125 111.441406 260.699219 C 111.441406 259.324219 111.441406 257.953125 111.441406 256.578125 C 111.441406 252.214844 111.375 247.710938 113.015625 243.496094 C 114.214844 240.777344 115.734375 238.257812 117.578125 235.929688 C 117.683594 235.78125 117.8125 235.660156 117.964844 235.5625 C 118.121094 235.46875 118.285156 235.40625 118.464844 235.375 C 118.644531 235.34375 118.824219 235.351562 119 235.390625 C 119.175781 235.429688 119.339844 235.503906 119.484375 235.609375 C 119.632812 235.714844 119.757812 235.84375 119.851562 236 C 119.949219 236.152344 120.011719 236.320312 120.042969 236.5 C 120.074219 236.679688 120.066406 236.855469 120.027344 237.035156 C 119.988281 237.210938 119.914062 237.375 119.808594 237.523438 C 118.109375 239.660156 116.703125 241.972656 115.589844 244.46875 C 114.125 248.191406 114.222656 252.242188 114.222656 256.539062 C 114.222656 257.910156 114.222656 259.351562 114.222656 260.753906 C 114.140625 263.140625 113.769531 266.546875 111.304688 268.496094 C 109.574219 269.652344 107.671875 270.242188 105.59375 270.269531 L 104.664062 270.378906 C 103.386719 270.527344 101.183594 271.007812 100.621094 272.492188 C 100.523438 272.773438 100.351562 273 100.109375 273.167969 C 99.863281 273.339844 99.589844 273.417969 99.292969 273.410156 Z M 99.292969 273.410156 " fill-opacity="1" fill-rule="nonzero"/><path fill="#ffffff" d="M 149.585938 203.363281 C 149.585938 203.363281 161.199219 209.5 177.167969 203.363281 " fill-opacity="1" fill-rule="nonzero"/><path fill="#eb1f2a" d="M 162.882812 207.480469 C 158.015625 207.585938 153.375 206.613281 148.953125 204.570312 C 148.796875 204.484375 148.664062 204.371094 148.550781 204.230469 C 148.441406 204.089844 148.359375 203.9375 148.308594 203.765625 C 148.253906 203.59375 148.238281 203.417969 148.257812 203.238281 C 148.273438 203.058594 148.324219 202.890625 148.40625 202.734375 C 148.488281 202.574219 148.601562 202.4375 148.738281 202.320312 C 148.875 202.207031 149.027344 202.121094 149.195312 202.066406 C 149.367188 202.011719 149.542969 201.988281 149.71875 202.003906 C 149.898438 202.015625 150.066406 202.0625 150.226562 202.140625 C 150.417969 202.238281 161.582031 207.878906 176.675781 202.140625 C 176.84375 202.078125 177.019531 202.046875 177.203125 202.050781 C 177.382812 202.054688 177.554688 202.09375 177.722656 202.167969 C 177.886719 202.242188 178.035156 202.347656 178.160156 202.480469 C 178.285156 202.609375 178.378906 202.761719 178.445312 202.933594 C 178.511719 203.101562 178.539062 203.277344 178.535156 203.460938 C 178.53125 203.640625 178.492188 203.816406 178.417969 203.984375 C 178.34375 204.148438 178.242188 204.296875 178.113281 204.421875 C 177.980469 204.546875 177.828125 204.644531 177.660156 204.707031 C 172.90625 206.550781 167.980469 207.476562 162.882812 207.480469 Z M 162.882812 207.480469 " fill-opacity="1" fill-rule="nonzero"/><path fill="#ffffff" d="M 110.8125 211.71875 C 111.210938 211.949219 111.566406 212.246094 111.878906 212.609375 C 112.191406 212.972656 112.457031 213.390625 112.671875 213.871094 C 112.886719 214.351562 113.046875 214.878906 113.15625 215.460938 C 113.265625 216.039062 113.320312 216.65625 113.316406 217.3125 C 113.316406 217.964844 113.257812 218.648438 113.148438 219.355469 C 113.035156 220.0625 112.871094 220.78125 112.652344 221.511719 C 112.433594 222.246094 112.167969 222.976562 111.851562 223.703125 C 111.535156 224.429688 111.179688 225.144531 110.777344 225.839844 C 110.375 226.535156 109.941406 227.203125 109.46875 227.839844 C 108.996094 228.480469 108.5 229.074219 107.976562 229.632812 C 107.453125 230.1875 106.914062 230.6875 106.359375 231.140625 C 105.804688 231.589844 105.246094 231.980469 104.679688 232.308594 C 104.113281 232.640625 103.554688 232.902344 103 233.097656 C 102.445312 233.292969 101.90625 233.414062 101.382812 233.46875 C 100.863281 233.523438 100.367188 233.503906 99.898438 233.414062 C 99.429688 233.324219 98.996094 233.160156 98.597656 232.929688 C 98.195312 232.699219 97.839844 232.402344 97.527344 232.042969 C 97.214844 231.679688 96.953125 231.257812 96.738281 230.777344 C 96.523438 230.300781 96.359375 229.769531 96.25 229.191406 C 96.144531 228.613281 96.089844 227.996094 96.089844 227.339844 C 96.09375 226.683594 96.148438 226.003906 96.261719 225.296875 C 96.375 224.589844 96.539062 223.867188 96.757812 223.136719 C 96.972656 222.40625 97.242188 221.675781 97.554688 220.945312 C 97.871094 220.21875 98.230469 219.507812 98.632812 218.808594 C 99.03125 218.113281 99.46875 217.445312 99.941406 216.808594 C 100.410156 216.171875 100.90625 215.574219 101.429688 215.019531 C 101.953125 214.464844 102.492188 213.960938 103.046875 213.511719 C 103.601562 213.058594 104.164062 212.667969 104.730469 212.339844 C 105.292969 212.011719 105.855469 211.75 106.410156 211.554688 C 106.964844 211.359375 107.5 211.234375 108.023438 211.179688 C 108.546875 211.128906 109.039062 211.148438 109.511719 211.238281 C 109.980469 211.328125 110.414062 211.488281 110.8125 211.71875 Z M 110.8125 211.71875 " fill-opacity="1" fill-rule="nonzero"/><path fill="#eb1f2a" d="M 100.773438 234.871094 C 99.738281 234.882812 98.769531 234.632812 97.871094 234.117188 C 95.800781 232.921875 94.679688 230.519531 94.679688 227.335938 C 94.800781 224.027344 95.714844 220.957031 97.417969 218.121094 C 101.238281 211.503906 107.402344 208.167969 111.46875 210.53125 C 113.539062 211.726562 114.675781 214.128906 114.660156 217.3125 C 114.539062 220.621094 113.625 223.691406 111.921875 226.523438 C 110.320312 229.421875 108.121094 231.746094 105.320312 233.5 C 103.925781 234.367188 102.410156 234.824219 100.773438 234.871094 Z M 108.550781 212.519531 C 106.019531 212.519531 102.417969 214.910156 99.785156 219.496094 C 98.316406 221.90625 97.527344 224.527344 97.417969 227.347656 C 97.417969 228.585938 97.648438 230.824219 99.238281 231.742188 C 100.828125 232.664062 102.867188 231.742188 103.949219 231.125 C 106.339844 229.625 108.222656 227.636719 109.59375 225.167969 C 111.050781 222.75 111.835938 220.132812 111.949219 217.3125 C 111.949219 216.0625 111.714844 213.839844 110.125 212.917969 C 109.652344 212.644531 109.140625 212.511719 108.59375 212.519531 Z M 108.550781 212.519531 " fill-opacity="1" fill-rule="nonzero"/><path fill="#ffffff" d="M 128.242188 218.015625 C 128.433594 218.125 128.605469 218.269531 128.757812 218.441406 C 128.910156 218.617188 129.035156 218.820312 129.140625 219.050781 C 129.242188 219.285156 129.320312 219.539062 129.375 219.816406 C 129.425781 220.097656 129.453125 220.394531 129.453125 220.710938 C 129.453125 221.027344 129.425781 221.355469 129.371094 221.695312 C 129.316406 222.039062 129.238281 222.382812 129.132812 222.738281 C 129.027344 223.089844 128.898438 223.441406 128.746094 223.792969 C 128.59375 224.144531 128.421875 224.488281 128.226562 224.824219 C 128.035156 225.160156 127.824219 225.480469 127.597656 225.789062 C 127.371094 226.09375 127.128906 226.382812 126.878906 226.648438 C 126.625 226.917969 126.367188 227.160156 126.097656 227.378906 C 125.832031 227.59375 125.558594 227.78125 125.289062 227.941406 C 125.015625 228.101562 124.746094 228.226562 124.476562 228.320312 C 124.210938 228.414062 123.949219 228.472656 123.699219 228.5 C 123.445312 228.523438 123.207031 228.515625 122.980469 228.472656 C 122.753906 228.429688 122.546875 228.351562 122.355469 228.238281 C 122.160156 228.128906 121.988281 227.984375 121.839844 227.8125 C 121.6875 227.636719 121.558594 227.433594 121.457031 227.203125 C 121.351562 226.96875 121.273438 226.714844 121.222656 226.4375 C 121.167969 226.15625 121.144531 225.859375 121.144531 225.542969 C 121.144531 225.226562 121.171875 224.898438 121.226562 224.558594 C 121.28125 224.214844 121.359375 223.871094 121.464844 223.515625 C 121.570312 223.164062 121.699219 222.8125 121.851562 222.460938 C 122.003906 222.109375 122.175781 221.765625 122.367188 221.429688 C 122.5625 221.097656 122.773438 220.773438 123 220.464844 C 123.226562 220.160156 123.464844 219.871094 123.71875 219.605469 C 123.96875 219.335938 124.230469 219.09375 124.5 218.875 C 124.765625 218.660156 125.035156 218.472656 125.308594 218.3125 C 125.582031 218.152344 125.851562 218.027344 126.117188 217.933594 C 126.386719 217.839844 126.644531 217.78125 126.898438 217.753906 C 127.148438 217.730469 127.386719 217.738281 127.613281 217.78125 C 127.839844 217.824219 128.050781 217.902344 128.242188 218.015625 Z M 128.242188 218.015625 " fill-opacity="1" fill-rule="nonzero"/><path fill="#eb1f2a" d="M 123.410156 229.875 C 122.785156 229.882812 122.199219 229.726562 121.660156 229.410156 C 121.015625 228.980469 120.523438 228.421875 120.183594 227.722656 C 119.847656 227.027344 119.707031 226.292969 119.769531 225.523438 C 119.820312 223.808594 120.273438 222.210938 121.136719 220.730469 C 121.972656 219.230469 123.117188 218.027344 124.574219 217.121094 C 124.878906 216.882812 125.207031 216.691406 125.566406 216.554688 C 125.925781 216.414062 126.296875 216.332031 126.679688 216.304688 C 127.066406 216.273438 127.445312 216.304688 127.820312 216.390625 C 128.195312 216.476562 128.546875 216.617188 128.882812 216.808594 C 129.214844 217.003906 129.511719 217.242188 129.773438 217.523438 C 130.039062 217.804688 130.253906 218.121094 130.421875 218.46875 C 130.589844 218.8125 130.703125 219.179688 130.761719 219.558594 C 130.820312 219.941406 130.820312 220.320312 130.765625 220.703125 C 130.726562 222.421875 130.269531 224.019531 129.398438 225.496094 C 128.5625 227 127.417969 228.210938 125.960938 229.121094 C 125.175781 229.597656 124.328125 229.847656 123.410156 229.875 Z M 127.164062 219.109375 C 126.738281 219.132812 126.34375 219.261719 125.988281 219.496094 C 124.953125 220.160156 124.140625 221.027344 123.546875 222.105469 C 122.917969 223.164062 122.570312 224.304688 122.507812 225.535156 C 122.507812 226.292969 122.699219 226.839844 123.027344 227.035156 C 123.597656 227.207031 124.117188 227.109375 124.589844 226.746094 C 125.621094 226.078125 126.433594 225.203125 127.027344 224.121094 C 127.667969 223.066406 128.015625 221.921875 128.066406 220.691406 C 128.148438 220.101562 127.976562 219.605469 127.546875 219.195312 C 127.425781 219.136719 127.296875 219.109375 127.164062 219.109375 Z M 127.164062 219.109375 " fill-opacity="1" fill-rule="nonzero"/><path fill="#ffffff" d="M 236.125 329.539062 C 236.125 329.539062 243.46875 297.597656 260.105469 297.597656 C 272.828125 297.597656 274.539062 311.007812 274.539062 321.488281 C 274.539062 331.972656 267.441406 373.515625 221.691406 373.515625 C 203.84375 373.515625 198.949219 359 198.949219 349.765625 C 198.949219 337.097656 214.609375 319.785156 236.125 329.539062 Z M 236.125 329.539062 " fill-opacity="1" fill-rule="nonzero"/><g clip-path="url(#3e6f7c0d7b)"><path fill="#e66363" d="M 221.691406 374.855469 C 202.707031 374.855469 197.644531 359.105469 197.644531 349.804688 C 197.644531 342.300781 202.511719 334.195312 209.753906 329.476562 C 217.203125 324.703125 226.195312 324.105469 235.238281 327.746094 C 236.972656 321.242188 244.59375 296.296875 260.105469 296.296875 C 275.84375 296.296875 275.84375 315.257812 275.84375 321.488281 C 275.632812 326.925781 274.726562 332.242188 273.121094 337.441406 C 271.511719 342.640625 269.261719 347.546875 266.371094 352.160156 C 256.84375 367.011719 241.421875 374.855469 221.691406 374.855469 Z M 223.714844 328.03125 C 221.492188 328.019531 219.316406 328.320312 217.179688 328.9375 C 215.046875 329.554688 213.046875 330.464844 211.175781 331.660156 C 204.742188 335.796875 200.253906 343.25 200.253906 349.871094 C 200.253906 352.160156 200.855469 372.316406 221.691406 372.316406 C 271.824219 372.316406 273.234375 322.0625 273.234375 321.59375 C 273.234375 306.179688 269.058594 299 260.105469 299 C 244.695312 299 237.46875 329.632812 237.402344 329.929688 L 237.039062 331.492188 L 235.589844 330.738281 C 231.828125 328.96875 227.871094 328.058594 223.714844 328.003906 Z M 223.714844 328.03125 " fill-opacity="1" fill-rule="nonzero"/></g><path fill="#e66363" d="M 225.019531 366.867188 C 221.980469 366.914062 218.976562 366.597656 216.011719 365.917969 C 213.050781 365.238281 210.210938 364.214844 207.496094 362.847656 C 207.328125 362.773438 207.183594 362.667969 207.058594 362.53125 C 206.9375 362.390625 206.847656 362.234375 206.789062 362.0625 C 206.734375 361.886719 206.714844 361.707031 206.738281 361.523438 C 206.757812 361.339844 206.8125 361.167969 206.90625 361.011719 C 207 360.851562 207.121094 360.71875 207.269531 360.609375 C 207.417969 360.503906 207.582031 360.429688 207.765625 360.390625 C 207.945312 360.355469 208.125 360.355469 208.304688 360.390625 C 208.488281 360.429688 208.652344 360.503906 208.800781 360.613281 C 209.804688 361.199219 233.851562 374.816406 260.863281 346.824219 C 260.984375 346.703125 261.128906 346.609375 261.289062 346.542969 C 261.449219 346.472656 261.617188 346.441406 261.789062 346.441406 C 261.964844 346.441406 262.128906 346.472656 262.292969 346.542969 C 262.453125 346.609375 262.59375 346.703125 262.714844 346.824219 C 262.835938 346.949219 262.929688 347.089844 262.996094 347.246094 C 263.0625 347.40625 263.09375 347.570312 263.09375 347.742188 C 263.09375 347.914062 263.0625 348.078125 262.996094 348.238281 C 262.929688 348.398438 262.835938 348.539062 262.714844 348.660156 C 248.753906 363.160156 235.199219 366.867188 225.019531 366.867188 Z M 225.019531 366.867188 " fill-opacity="1" fill-rule="nonzero"/><path fill="#ffffff" d="M 264.007812 314.660156 C 264.007812 315.605469 263.914062 316.539062 263.730469 317.460938 C 263.546875 318.386719 263.273438 319.285156 262.910156 320.15625 C 262.550781 321.027344 262.105469 321.855469 261.582031 322.640625 C 261.054688 323.421875 260.457031 324.148438 259.789062 324.816406 C 259.121094 325.480469 258.390625 326.078125 257.605469 326.601562 C 256.820312 327.125 255.988281 327.566406 255.117188 327.925781 C 254.242188 328.289062 253.339844 328.558594 252.414062 328.746094 C 251.484375 328.929688 250.546875 329.019531 249.601562 329.019531 C 248.65625 329.019531 247.71875 328.929688 246.792969 328.746094 C 245.863281 328.558594 244.964844 328.289062 244.089844 327.925781 C 243.214844 327.566406 242.386719 327.125 241.597656 326.601562 C 240.8125 326.078125 240.085938 325.480469 239.417969 324.816406 C 238.746094 324.148438 238.152344 323.421875 237.625 322.640625 C 237.101562 321.855469 236.65625 321.027344 236.292969 320.15625 C 235.933594 319.285156 235.660156 318.386719 235.472656 317.460938 C 235.289062 316.539062 235.199219 315.605469 235.199219 314.660156 C 235.199219 313.71875 235.289062 312.785156 235.472656 311.859375 C 235.660156 310.933594 235.933594 310.039062 236.292969 309.167969 C 236.65625 308.296875 237.101562 307.46875 237.625 306.683594 C 238.152344 305.898438 238.746094 305.175781 239.417969 304.507812 C 240.085938 303.839844 240.8125 303.246094 241.597656 302.722656 C 242.386719 302.199219 243.214844 301.757812 244.089844 301.394531 C 244.964844 301.035156 245.863281 300.761719 246.792969 300.578125 C 247.71875 300.394531 248.65625 300.300781 249.601562 300.300781 C 250.546875 300.300781 251.484375 300.394531 252.414062 300.578125 C 253.339844 300.761719 254.242188 301.035156 255.117188 301.394531 C 255.988281 301.757812 256.820312 302.199219 257.605469 302.722656 C 258.390625 303.246094 259.121094 303.839844 259.789062 304.507812 C 260.457031 305.175781 261.054688 305.898438 261.582031 306.683594 C 262.105469 307.46875 262.550781 308.296875 262.910156 309.167969 C 263.273438 310.039062 263.546875 310.933594 263.730469 311.859375 C 263.914062 312.785156 264.007812 313.71875 264.007812 314.660156 Z M 264.007812 314.660156 " fill-opacity="1" fill-rule="nonzero"/><path fill="#e66363" d="M 249.601562 330.320312 C 248.574219 330.320312 247.554688 330.222656 246.546875 330.019531 C 245.539062 329.820312 244.558594 329.523438 243.609375 329.132812 C 242.660156 328.742188 241.757812 328.261719 240.902344 327.691406 C 240.046875 327.121094 239.257812 326.472656 238.53125 325.75 C 237.804688 325.023438 237.15625 324.238281 236.582031 323.382812 C 236.011719 322.53125 235.53125 321.632812 235.136719 320.6875 C 234.742188 319.738281 234.445312 318.761719 234.246094 317.757812 C 234.046875 316.753906 233.945312 315.738281 233.945312 314.714844 C 233.945312 313.6875 234.046875 312.671875 234.246094 311.667969 C 234.445312 310.664062 234.742188 309.6875 235.136719 308.742188 C 235.53125 307.792969 236.011719 306.894531 236.582031 306.042969 C 237.15625 305.191406 237.804688 304.402344 238.53125 303.675781 C 239.257812 302.953125 240.046875 302.304688 240.902344 301.734375 C 241.757812 301.167969 242.660156 300.6875 243.609375 300.292969 C 244.558594 299.902344 245.539062 299.605469 246.546875 299.40625 C 247.554688 299.207031 248.574219 299.105469 249.601562 299.105469 C 250.628906 299.105469 251.648438 299.207031 252.65625 299.40625 C 253.664062 299.605469 254.644531 299.902344 255.59375 300.292969 C 256.542969 300.6875 257.445312 301.167969 258.300781 301.734375 C 259.15625 302.304688 259.949219 302.953125 260.675781 303.675781 C 261.402344 304.402344 262.050781 305.191406 262.621094 306.042969 C 263.191406 306.894531 263.675781 307.792969 264.070312 308.742188 C 264.460938 309.6875 264.757812 310.664062 264.960938 311.667969 C 265.160156 312.671875 265.261719 313.6875 265.261719 314.714844 C 265.257812 315.738281 265.152344 316.75 264.949219 317.753906 C 264.746094 318.757812 264.445312 319.730469 264.050781 320.675781 C 263.65625 321.621094 263.171875 322.519531 262.601562 323.371094 C 262.03125 324.21875 261.382812 325.007812 260.65625 325.730469 C 259.929688 326.453125 259.140625 327.101562 258.285156 327.671875 C 257.433594 328.242188 256.53125 328.722656 255.585938 329.117188 C 254.636719 329.507812 253.660156 329.808594 252.652344 330.011719 C 251.644531 330.214844 250.628906 330.316406 249.601562 330.320312 Z M 249.601562 301.589844 C 248.746094 301.589844 247.898438 301.671875 247.058594 301.839844 C 246.214844 302.007812 245.402344 302.253906 244.609375 302.582031 C 243.816406 302.90625 243.066406 303.308594 242.351562 303.78125 C 241.640625 304.257812 240.980469 304.796875 240.375 305.398438 C 239.769531 306.003906 239.230469 306.660156 238.753906 307.371094 C 238.277344 308.082031 237.875 308.828125 237.546875 309.617188 C 237.21875 310.40625 236.972656 311.222656 236.804688 312.058594 C 236.636719 312.898438 236.554688 313.742188 236.554688 314.597656 C 236.554688 315.449219 236.636719 316.296875 236.804688 317.132812 C 236.972656 317.972656 237.21875 318.785156 237.546875 319.574219 C 237.875 320.363281 238.277344 321.113281 238.753906 321.820312 C 239.230469 322.53125 239.769531 323.1875 240.375 323.792969 C 240.980469 324.398438 241.640625 324.9375 242.351562 325.410156 C 243.066406 325.886719 243.816406 326.285156 244.609375 326.613281 C 245.402344 326.9375 246.214844 327.1875 247.058594 327.351562 C 247.898438 327.519531 248.746094 327.601562 249.601562 327.601562 C 250.460938 327.601562 251.308594 327.519531 252.148438 327.351562 C 252.988281 327.1875 253.804688 326.9375 254.597656 326.613281 C 255.386719 326.285156 256.140625 325.886719 256.851562 325.410156 C 257.5625 324.9375 258.222656 324.398438 258.828125 323.792969 C 259.433594 323.1875 259.976562 322.53125 260.453125 321.820312 C 260.929688 321.113281 261.328125 320.363281 261.65625 319.574219 C 261.984375 318.785156 262.234375 317.972656 262.398438 317.132812 C 262.566406 316.296875 262.652344 315.449219 262.652344 314.597656 C 262.648438 313.742188 262.558594 312.898438 262.390625 312.0625 C 262.21875 311.226562 261.96875 310.417969 261.640625 309.628906 C 261.3125 308.84375 260.90625 308.09375 260.433594 307.386719 C 259.957031 306.675781 259.414062 306.019531 258.808594 305.417969 C 258.207031 304.816406 257.546875 304.277344 256.835938 303.800781 C 256.125 303.328125 255.375 302.925781 254.585938 302.597656 C 253.796875 302.269531 252.980469 302.019531 252.144531 301.851562 C 251.304688 301.679688 250.457031 301.59375 249.601562 301.589844 Z M 249.601562 301.589844 " fill-opacity="1" fill-rule="nonzero"/><path fill="#e66363" d="M 249.601562 349.023438 C 249.429688 349.023438 249.261719 348.992188 249.101562 348.925781 C 248.945312 348.859375 248.800781 348.765625 248.679688 348.644531 C 248.558594 348.519531 248.464844 348.378906 248.398438 348.222656 C 248.332031 348.0625 248.296875 347.894531 248.296875 347.722656 C 248.296875 335.640625 236.1875 330.945312 235.667969 330.816406 C 235.503906 330.753906 235.359375 330.664062 235.234375 330.546875 C 235.105469 330.429688 235.003906 330.292969 234.933594 330.136719 C 234.863281 329.976562 234.820312 329.8125 234.816406 329.640625 C 234.808594 329.46875 234.835938 329.300781 234.898438 329.136719 C 234.957031 328.976562 235.046875 328.832031 235.164062 328.703125 C 235.285156 328.578125 235.421875 328.476562 235.578125 328.40625 C 235.738281 328.335938 235.902344 328.296875 236.078125 328.289062 C 236.25 328.28125 236.417969 328.308594 236.582031 328.371094 C 236.722656 328.371094 250.933594 333.871094 250.933594 347.773438 C 250.925781 347.945312 250.886719 348.109375 250.816406 348.261719 C 250.746094 348.417969 250.648438 348.554688 250.523438 348.671875 C 250.398438 348.789062 250.257812 348.875 250.097656 348.9375 C 249.9375 349 249.773438 349.027344 249.601562 349.023438 Z M 249.601562 349.023438 " fill-opacity="1" fill-rule="nonzero"/><g clip-path="url(#78f970eb4f)"><path fill="#e66363" d="M 242.492188 323.660156 C 222.214844 323.660156 203.242188 312.113281 187.167969 289.84375 C 178.882812 278.171875 172.253906 265.628906 167.28125 252.21875 C 167.109375 251.695312 166.992188 251.164062 166.925781 250.617188 C 166.859375 250.074219 166.84375 249.527344 166.882812 248.980469 C 166.921875 248.433594 167.015625 247.894531 167.160156 247.367188 C 167.304688 246.835938 167.5 246.324219 167.746094 245.835938 C 167.988281 245.34375 168.28125 244.878906 168.613281 244.445312 C 168.949219 244.007812 169.324219 243.609375 169.738281 243.246094 C 170.148438 242.882812 170.59375 242.566406 171.070312 242.289062 C 171.546875 242.011719 172.042969 241.785156 172.5625 241.605469 C 173.082031 241.421875 173.617188 241.296875 174.160156 241.21875 C 174.707031 241.144531 175.253906 241.121094 175.804688 241.148438 C 176.351562 241.179688 176.894531 241.261719 177.429688 241.394531 C 177.960938 241.53125 178.476562 241.714844 178.976562 241.949219 C 179.472656 242.1875 179.941406 242.464844 180.386719 242.792969 C 180.828125 243.121094 181.234375 243.484375 181.605469 243.890625 C 181.976562 244.296875 182.304688 244.734375 182.589844 245.203125 C 182.878906 245.671875 183.113281 246.164062 183.304688 246.675781 C 183.605469 247.535156 206.921875 312.683594 248.296875 306.296875 C 248.847656 306.214844 249.402344 306.183594 249.957031 306.207031 C 250.515625 306.230469 251.0625 306.308594 251.605469 306.4375 C 252.144531 306.570312 252.667969 306.753906 253.171875 306.984375 C 253.679688 307.21875 254.15625 307.5 254.605469 307.828125 C 255.054688 308.15625 255.46875 308.523438 255.84375 308.933594 C 256.222656 309.339844 256.554688 309.78125 256.84375 310.257812 C 257.132812 310.730469 257.375 311.230469 257.566406 311.75 C 257.757812 312.273438 257.894531 312.804688 257.980469 313.355469 C 258.066406 313.902344 258.097656 314.453125 258.074219 315.007812 C 258.050781 315.5625 257.972656 316.109375 257.84375 316.652344 C 257.710938 317.191406 257.527344 317.710938 257.292969 318.214844 C 257.058594 318.71875 256.777344 319.195312 256.449219 319.644531 C 256.121094 320.089844 255.753906 320.503906 255.34375 320.878906 C 254.933594 321.253906 254.488281 321.585938 254.015625 321.875 C 253.539062 322.164062 253.039062 322.40625 252.515625 322.597656 C 251.996094 322.789062 251.457031 322.925781 250.90625 323.011719 C 248.117188 323.441406 245.3125 323.65625 242.492188 323.660156 Z M 242.492188 323.660156 " fill-opacity="1" fill-rule="nonzero"/></g><g clip-path="url(#055c1fa5aa)"><path fill="#e66363" d="M 253.578125 212.484375 C 248.535156 212.515625 243.542969 212.019531 238.601562 211 C 233.660156 209.984375 228.875 208.460938 224.25 206.4375 C 223.78125 206.195312 223.335938 205.910156 222.917969 205.582031 C 222.503906 205.257812 222.121094 204.890625 221.773438 204.492188 C 221.425781 204.089844 221.121094 203.660156 220.855469 203.199219 C 220.589844 202.742188 220.371094 202.257812 220.195312 201.757812 C 220.023438 201.253906 219.898438 200.742188 219.824219 200.214844 C 219.746094 199.6875 219.722656 199.160156 219.75 198.628906 C 219.773438 198.097656 219.851562 197.574219 219.976562 197.058594 C 220.101562 196.542969 220.273438 196.042969 220.496094 195.558594 C 220.71875 195.078125 220.980469 194.621094 221.289062 194.1875 C 221.597656 193.757812 221.945312 193.359375 222.332031 192.992188 C 222.714844 192.628906 223.128906 192.304688 223.578125 192.019531 C 224.023438 191.734375 224.492188 191.496094 224.984375 191.300781 C 225.476562 191.105469 225.984375 190.960938 226.503906 190.863281 C 227.023438 190.765625 227.550781 190.71875 228.078125 190.726562 C 228.605469 190.730469 229.128906 190.785156 229.648438 190.890625 C 230.167969 190.996094 230.671875 191.148438 231.160156 191.351562 C 232.710938 192.066406 268.71875 207.894531 294.875 176.011719 C 295.234375 175.632812 295.621094 175.289062 296.042969 174.984375 C 296.464844 174.679688 296.910156 174.417969 297.382812 174.195312 C 297.851562 173.976562 298.339844 173.800781 298.84375 173.671875 C 299.347656 173.542969 299.859375 173.460938 300.375 173.429688 C 300.894531 173.398438 301.410156 173.414062 301.925781 173.480469 C 302.441406 173.546875 302.945312 173.660156 303.441406 173.824219 C 303.933594 173.984375 304.410156 174.191406 304.863281 174.441406 C 305.320312 174.695312 305.75 174.984375 306.148438 175.316406 C 306.550781 175.648438 306.914062 176.015625 307.246094 176.417969 C 307.578125 176.820312 307.871094 177.25 308.121094 177.707031 C 308.371094 178.164062 308.578125 178.640625 308.742188 179.136719 C 308.902344 179.632812 309.015625 180.140625 309.082031 180.65625 C 309.148438 181.175781 309.167969 181.695312 309.136719 182.214844 C 309.105469 182.734375 309.027344 183.25 308.902344 183.753906 C 308.773438 184.261719 308.601562 184.75 308.382812 185.226562 C 308.164062 185.699219 307.902344 186.148438 307.597656 186.570312 C 291.339844 206.4375 270.96875 212.484375 253.578125 212.484375 Z M 253.578125 212.484375 " fill-opacity="1" fill-rule="nonzero"/></g><path fill="#ffffff" d="M 295.398438 164.878906 C 295.398438 164.878906 283.351562 172.164062 301.261719 181.238281 C 319.175781 190.316406 323.058594 180.128906 322.179688 174.476562 C 322.179688 174.476562 346.035156 177.136719 345.4375 151.785156 C 345.4375 151.785156 367.816406 120.953125 349.253906 111.582031 C 341.773438 107.746094 339.074219 123.304688 339.074219 123.304688 C 339.074219 123.304688 333.59375 120.097656 329.457031 124.878906 C 329.457031 124.878906 327.066406 112.644531 317.015625 118.574219 C 317.015625 118.574219 320.753906 99.65625 308.78125 93.597656 C 304.445312 91.398438 301.148438 93.429688 299.875 96.078125 C 296.328125 103.3125 302.535156 118.730469 298.324219 127.179688 C 298.324219 127.179688 290.691406 126.960938 286.25 135.808594 C 281.808594 144.652344 286.277344 158.472656 295.398438 164.878906 Z M 295.398438 164.878906 " fill-opacity="1" fill-rule="nonzero"/><g clip-path="url(#671f7e498d)"><path fill="#e66363" d="M 313.414062 186.125 C 310.296875 186.125 306.160156 185.152344 300.691406 182.378906 C 293.847656 178.914062 290.308594 175.179688 290.167969 171.28125 C 290.191406 170.035156 290.476562 168.851562 291.023438 167.734375 C 291.574219 166.617188 292.332031 165.667969 293.300781 164.890625 C 284.570312 157.730469 280.652344 144.066406 285.066406 135.246094 C 288.972656 127.472656 295.167969 126.167969 297.460938 125.953125 C 299.125 121.910156 298.566406 116.183594 298.019531 110.609375 C 297.445312 104.792969 296.914062 99.3125 298.820312 95.5 C 300.449219 92.265625 304.46875 89.925781 309.457031 92.457031 C 319.636719 97.570312 319.316406 110.839844 318.71875 116.363281 C 319.730469 115.917969 320.789062 115.6875 321.894531 115.675781 C 323 115.667969 324.0625 115.875 325.082031 116.300781 C 327.917969 117.578125 329.445312 120.53125 330.171875 122.550781 C 330.75 122.144531 331.371094 121.816406 332.03125 121.558594 C 332.6875 121.304688 333.367188 121.132812 334.070312 121.039062 C 334.769531 120.949219 335.472656 120.941406 336.175781 121.019531 C 336.875 121.097656 337.558594 121.257812 338.222656 121.503906 C 338.9375 118.460938 340.769531 112.210938 344.585938 110.292969 C 345.417969 109.878906 346.300781 109.683594 347.230469 109.707031 C 348.160156 109.730469 349.03125 109.972656 349.839844 110.433594 C 350.777344 110.871094 351.65625 111.410156 352.476562 112.046875 C 353.292969 112.6875 354.027344 113.410156 354.679688 114.21875 C 355.335938 115.023438 355.890625 115.894531 356.347656 116.832031 C 356.800781 117.765625 357.148438 118.738281 357.382812 119.75 C 360.347656 132.0625 348.617188 149.410156 346.660156 152.183594 C 346.761719 160.058594 344.574219 166.128906 340.121094 170.21875 C 334.433594 175.460938 326.734375 175.894531 323.578125 175.84375 C 323.621094 176.652344 323.5625 177.449219 323.414062 178.242188 C 323.261719 179.03125 323.023438 179.796875 322.691406 180.527344 C 322.359375 181.261719 321.945312 181.945312 321.449219 182.582031 C 320.953125 183.214844 320.390625 183.78125 319.761719 184.28125 C 318.832031 184.929688 317.824219 185.410156 316.738281 185.726562 C 315.652344 186.039062 314.542969 186.171875 313.414062 186.125 Z M 296.058594 165.964844 C 296.058594 165.964844 292.585938 168.136719 292.714844 171.191406 C 292.839844 174.246094 295.984375 177.136719 301.835938 180.140625 C 311.238281 184.894531 315.921875 183.976562 318.210938 182.25 C 318.75 181.796875 319.21875 181.285156 319.621094 180.707031 C 320.023438 180.128906 320.34375 179.511719 320.585938 178.847656 C 320.824219 178.183594 320.972656 177.503906 321.03125 176.800781 C 321.089844 176.097656 321.058594 175.402344 320.933594 174.707031 L 320.679688 173.070312 L 322.320312 173.25 C 322.421875 173.25 332.105469 174.234375 338.464844 168.355469 C 342.421875 164.671875 344.332031 159.136719 344.128906 151.8125 L 344.128906 151.378906 L 344.382812 151.03125 C 344.507812 150.839844 357.816406 132.332031 354.941406 120.351562 C 354.75 119.515625 354.46875 118.710938 354.09375 117.941406 C 353.722656 117.167969 353.265625 116.449219 352.722656 115.785156 C 352.183594 115.121094 351.578125 114.527344 350.902344 114 C 350.222656 113.476562 349.496094 113.039062 348.71875 112.683594 C 348.269531 112.40625 347.785156 112.25 347.257812 112.226562 C 346.730469 112.199219 346.230469 112.296875 345.753906 112.527344 C 342.652344 114.101562 340.84375 120.980469 340.410156 123.484375 L 340.09375 125.300781 L 338.515625 124.378906 C 337.878906 124 337.195312 123.738281 336.464844 123.597656 C 335.738281 123.457031 335.003906 123.445312 334.273438 123.5625 C 333.539062 123.679688 332.847656 123.917969 332.199219 124.277344 C 331.546875 124.636719 330.976562 125.097656 330.488281 125.65625 L 328.859375 127.691406 L 328.351562 125.132812 C 328.351562 125.132812 327.308594 120.019531 324.089844 118.625 C 322.382812 117.859375 320.273438 118.21875 317.726562 119.675781 L 315.296875 121.121094 L 315.84375 118.320312 C 315.84375 118.140625 319.242188 100.296875 308.285156 94.734375 C 304.6875 92.867188 302.140625 94.605469 301.085938 96.652344 C 299.507812 99.796875 300.015625 104.921875 300.550781 110.367188 C 301.160156 116.59375 301.824219 123.035156 299.429688 127.753906 L 299.0625 128.484375 L 298.324219 128.457031 C 298.058594 128.457031 291.402344 128.457031 287.410156 136.382812 C 283.273438 144.617188 287.410156 157.691406 296.199219 163.828125 L 297.804688 164.953125 Z M 296.058594 165.964844 " fill-opacity="1" fill-rule="nonzero"/></g><path fill="#e66363" d="M 312.726562 131.628906 C 312.523438 131.632812 312.332031 131.585938 312.15625 131.488281 C 312 131.410156 311.863281 131.308594 311.75 131.175781 C 311.636719 131.046875 311.550781 130.898438 311.496094 130.734375 C 311.441406 130.566406 311.421875 130.398438 311.4375 130.226562 C 311.453125 130.050781 311.5 129.890625 311.582031 129.734375 C 313.347656 126.027344 314.78125 122.191406 315.882812 118.230469 C 315.921875 118.0625 315.992188 117.90625 316.09375 117.765625 C 316.195312 117.625 316.320312 117.511719 316.46875 117.421875 C 316.617188 117.335938 316.773438 117.277344 316.945312 117.253906 C 317.117188 117.230469 317.285156 117.242188 317.453125 117.285156 C 317.617188 117.332031 317.769531 117.40625 317.90625 117.515625 C 318.042969 117.621094 318.152344 117.75 318.234375 117.902344 C 318.316406 118.054688 318.367188 118.214844 318.386719 118.386719 C 318.40625 118.558594 318.386719 118.730469 318.335938 118.894531 C 317.195312 123.03125 315.703125 127.039062 313.859375 130.910156 C 313.753906 131.128906 313.597656 131.300781 313.394531 131.429688 C 313.191406 131.558594 312.96875 131.625 312.726562 131.628906 Z M 312.726562 131.628906 " fill-opacity="1" fill-rule="nonzero"/><path fill="#e66363" d="M 340.132812 122.460938 C 340.023438 122.324219 339.890625 122.21875 339.738281 122.136719 C 339.585938 122.054688 339.421875 122.003906 339.25 121.988281 C 339.078125 121.976562 338.90625 121.996094 338.742188 122.050781 C 338.578125 122.105469 338.429688 122.1875 338.300781 122.304688 C 338.171875 122.417969 338.066406 122.554688 337.992188 122.710938 C 337.917969 122.871094 337.878906 123.035156 337.871094 123.210938 C 337.863281 123.382812 337.890625 123.550781 337.953125 123.714844 C 338.011719 123.878906 338.101562 124.023438 338.222656 124.148438 C 338.515625 124.480469 345.347656 132.558594 340.566406 142.046875 C 338.289062 146.597656 334.953125 149.253906 331.199219 149.535156 C 329.875 149.621094 328.59375 149.417969 327.355469 148.925781 C 326.121094 148.433594 325.046875 147.699219 324.140625 146.722656 C 326.539062 145.390625 328.339844 143.480469 329.535156 140.996094 C 333.007812 134.09375 330.882812 124.914062 330.804688 124.53125 C 330.777344 124.355469 330.71875 124.191406 330.621094 124.042969 C 330.527344 123.890625 330.40625 123.765625 330.257812 123.667969 C 330.113281 123.566406 329.949219 123.503906 329.777344 123.472656 C 329.601562 123.4375 329.429688 123.445312 329.253906 123.484375 C 329.082031 123.527344 328.925781 123.601562 328.785156 123.707031 C 328.640625 123.8125 328.527344 123.945312 328.441406 124.101562 C 328.351562 124.257812 328.300781 124.421875 328.28125 124.601562 C 328.265625 124.777344 328.285156 124.949219 328.335938 125.121094 C 328.335938 125.210938 330.324219 133.789062 327.28125 139.847656 C 326.964844 140.542969 326.574219 141.191406 326.109375 141.792969 C 325.640625 142.394531 325.109375 142.9375 324.515625 143.414062 C 323.925781 143.890625 323.285156 144.292969 322.597656 144.617188 C 321.910156 144.945312 321.195312 145.1875 320.449219 145.34375 C 319.65625 145.488281 318.863281 145.480469 318.074219 145.3125 C 317.28125 145.148438 316.550781 144.839844 315.882812 144.386719 C 316.507812 143.832031 317.019531 143.183594 317.410156 142.441406 C 320.082031 137.125 318.414062 131.820312 313.273438 129.210938 C 310.953125 127.96875 308.503906 127.0625 305.933594 126.5 C 303.359375 125.9375 300.761719 125.738281 298.132812 125.898438 C 297.964844 125.921875 297.808594 125.972656 297.660156 126.058594 C 297.511719 126.144531 297.386719 126.253906 297.28125 126.386719 C 297.175781 126.523438 297.101562 126.671875 297.054688 126.835938 C 297.011719 127 297 127.167969 297.019531 127.339844 C 297.042969 127.507812 297.09375 127.667969 297.179688 127.816406 C 297.261719 127.964844 297.371094 128.089844 297.503906 128.195312 C 297.640625 128.300781 297.789062 128.375 297.953125 128.421875 C 298.117188 128.464844 298.28125 128.476562 298.453125 128.457031 C 300.828125 128.335938 303.183594 128.535156 305.507812 129.050781 C 307.832031 129.566406 310.046875 130.382812 312.15625 131.5 C 316.8125 133.863281 316.761719 138.109375 315.167969 141.292969 C 314.277344 143.070312 311.964844 144.257812 309.125 144.371094 C 303.832031 144.601562 298.503906 141.253906 294.914062 135.425781 C 294.824219 135.277344 294.710938 135.15625 294.574219 135.058594 C 294.4375 134.957031 294.285156 134.886719 294.121094 134.847656 C 293.953125 134.8125 293.789062 134.804688 293.621094 134.832031 C 293.453125 134.859375 293.296875 134.917969 293.152344 135.007812 C 293.007812 135.097656 292.886719 135.210938 292.789062 135.351562 C 292.6875 135.488281 292.621094 135.640625 292.582031 135.808594 C 292.542969 135.972656 292.535156 136.140625 292.5625 136.308594 C 292.589844 136.476562 292.648438 136.632812 292.738281 136.777344 C 296.199219 142.390625 301.148438 145.96875 306.367188 146.777344 C 307.445312 147.875 311.339844 152.375 308.644531 158.164062 C 308.570312 158.320312 308.53125 158.480469 308.523438 158.648438 C 308.515625 158.820312 308.539062 158.984375 308.597656 159.144531 C 308.65625 159.300781 308.742188 159.445312 308.855469 159.570312 C 308.96875 159.695312 309.101562 159.792969 309.253906 159.867188 C 309.429688 159.941406 309.609375 159.980469 309.800781 159.980469 C 310.046875 159.980469 310.273438 159.910156 310.480469 159.777344 C 310.6875 159.644531 310.84375 159.464844 310.945312 159.238281 C 311.410156 158.25 311.734375 157.21875 311.921875 156.140625 C 312.109375 155.0625 312.148438 153.980469 312.046875 152.890625 C 311.945312 151.804688 311.699219 150.746094 311.316406 149.726562 C 310.929688 148.703125 310.414062 147.75 309.773438 146.863281 C 311.101562 146.761719 312.375 146.4375 313.59375 145.894531 C 314.375 146.597656 315.253906 147.132812 316.234375 147.503906 C 317.214844 147.878906 318.230469 148.0625 319.277344 148.054688 C 319.800781 148.050781 320.316406 148.007812 320.832031 147.925781 L 321.582031 147.746094 C 322.664062 149.117188 323.980469 150.1875 325.542969 150.960938 C 327.101562 151.738281 328.75 152.140625 330.488281 152.171875 L 331.328125 152.171875 C 335.945312 151.824219 340.105469 148.589844 342.777344 143.222656 C 348.414062 132.152344 340.222656 122.5625 340.132812 122.460938 Z M 340.132812 122.460938 " fill-opacity="1" fill-rule="nonzero"/><path fill="#e66363" d="M 306.761719 166.105469 C 304.910156 166.296875 303.074219 166.199219 301.253906 165.808594 C 299.4375 165.417969 297.722656 164.753906 296.109375 163.816406 C 295.972656 163.722656 295.816406 163.65625 295.652344 163.621094 C 295.488281 163.589844 295.320312 163.585938 295.15625 163.621094 C 294.988281 163.652344 294.835938 163.714844 294.695312 163.808594 C 294.554688 163.902344 294.4375 164.019531 294.34375 164.160156 C 294.25 164.300781 294.183594 164.457031 294.152344 164.625 C 294.117188 164.789062 294.121094 164.957031 294.152344 165.125 C 294.1875 165.289062 294.25 165.445312 294.34375 165.585938 C 294.4375 165.726562 294.558594 165.84375 294.699219 165.9375 C 296.550781 167.050781 298.535156 167.835938 300.644531 168.300781 C 302.753906 168.765625 304.878906 168.878906 307.027344 168.648438 C 307.195312 168.628906 307.355469 168.582031 307.503906 168.5 C 307.652344 168.417969 307.78125 168.3125 307.886719 168.179688 C 307.992188 168.046875 308.070312 167.898438 308.117188 167.734375 C 308.167969 167.570312 308.183594 167.40625 308.164062 167.234375 C 308.144531 167.066406 308.097656 166.90625 308.015625 166.757812 C 307.933594 166.609375 307.828125 166.480469 307.699219 166.371094 C 307.566406 166.265625 307.417969 166.1875 307.257812 166.136719 C 307.09375 166.089844 306.929688 166.074219 306.761719 166.089844 Z M 306.761719 166.105469 " fill-opacity="1" fill-rule="nonzero"/><path fill="#e66363" d="M 322.394531 173.199219 C 319.375 172.539062 316.792969 171.089844 314.648438 168.851562 C 314.53125 168.726562 314.390625 168.628906 314.234375 168.558594 C 314.078125 168.488281 313.914062 168.449219 313.742188 168.445312 C 313.570312 168.441406 313.40625 168.46875 313.242188 168.53125 C 313.082031 168.59375 312.941406 168.683594 312.816406 168.800781 C 312.691406 168.921875 312.59375 169.058594 312.523438 169.214844 C 312.453125 169.375 312.414062 169.539062 312.410156 169.710938 C 312.40625 169.882812 312.433594 170.050781 312.496094 170.210938 C 312.558594 170.375 312.648438 170.515625 312.765625 170.640625 C 314.007812 171.945312 315.414062 173.03125 316.984375 173.902344 C 318.554688 174.777344 320.21875 175.394531 321.976562 175.753906 L 322.179688 175.753906 C 322.347656 175.769531 322.515625 175.75 322.675781 175.699219 C 322.835938 175.648438 322.980469 175.566406 323.109375 175.457031 C 323.242188 175.347656 323.34375 175.21875 323.421875 175.066406 C 323.5 174.914062 323.546875 174.753906 323.558594 174.585938 C 323.574219 174.417969 323.554688 174.25 323.503906 174.089844 C 323.453125 173.925781 323.375 173.78125 323.265625 173.652344 C 323.15625 173.519531 323.023438 173.417969 322.875 173.339844 C 322.722656 173.261719 322.566406 173.214844 322.394531 173.199219 Z M 322.394531 173.199219 " fill-opacity="1" fill-rule="nonzero"/><path fill="#ffffff" d="M 173.046875 102.296875 C 173.046875 127.484375 159.632812 147.886719 143.082031 147.886719 L 142.742188 147.886719 C 126.367188 147.617188 113.148438 127.3125 113.148438 102.296875 C 113.148438 77.28125 126.550781 56.707031 143.082031 56.707031 C 155.4375 56.707031 166.035156 68.105469 170.613281 84.316406 C 172.257812 90.195312 173.070312 96.191406 173.046875 102.296875 Z M 173.046875 102.296875 " fill-opacity="1" fill-rule="nonzero"/><g clip-path="url(#8a0d048a1d)"><path fill="#e66363" d="M 143.082031 149.324219 L 142.617188 149.324219 C 125.613281 149.039062 111.730469 127.957031 111.730469 102.3125 C 111.730469 76.398438 125.796875 55.296875 143.082031 55.296875 C 155.722656 55.296875 167.070312 66.539062 171.984375 83.949219 C 173.664062 89.953125 174.492188 96.074219 174.464844 102.3125 C 174.464844 128.226562 160.382812 149.324219 143.082031 149.324219 Z M 143.082031 58.148438 C 127.316406 58.132812 114.5625 77.949219 114.5625 102.296875 C 114.5625 126.386719 127.214844 146.207031 142.773438 146.460938 L 143.082031 146.460938 C 158.824219 146.460938 171.632812 126.644531 171.632812 102.296875 C 171.652344 96.324219 170.859375 90.464844 169.25 84.714844 C 164.691406 68.5625 154.433594 58.132812 143.082031 58.132812 Z M 143.082031 58.148438 " fill-opacity="1" fill-rule="nonzero"/></g><path fill="#e66363" d="M 170.613281 84.316406 C 169.125 83.308594 167.523438 82.539062 165.8125 82.003906 C 164.097656 81.46875 162.347656 81.195312 160.550781 81.183594 C 150.636719 81.183594 142.132812 89.730469 137.882812 102.324219 L 156.414062 109.832031 L 135.164062 117.214844 C 135.164062 118.152344 135.078125 119.09375 135.078125 120.0625 C 135.078125 130.976562 138.039062 140.835938 142.800781 147.886719 L 143.140625 147.886719 C 159.6875 147.886719 173.105469 127.472656 173.105469 102.296875 C 173.109375 96.1875 172.277344 90.195312 170.613281 84.316406 Z M 170.613281 84.316406 " fill-opacity="1" fill-rule="nonzero"/><path fill="#ffffff" d="M 236.097656 96.828125 C 236.097656 126.429688 220.339844 150.40625 200.902344 150.40625 L 200.492188 150.40625 C 181.238281 150.109375 165.710938 126.21875 165.710938 96.828125 C 165.710938 67.433594 181.464844 43.257812 200.902344 43.257812 C 215.410156 43.257812 227.820312 56.609375 233.246094 75.699219 C 235.175781 82.609375 236.125 89.652344 236.097656 96.828125 Z M 236.097656 96.828125 " fill-opacity="1" fill-rule="nonzero"/><g clip-path="url(#5132ecc9bb)"><path fill="#e66363" d="M 200.902344 151.832031 L 200.378906 151.832031 C 180.527344 151.535156 164.292969 126.816406 164.292969 96.828125 C 164.292969 66.507812 180.714844 41.835938 200.902344 41.835938 C 215.636719 41.835938 228.871094 54.96875 234.609375 75.3125 C 236.550781 82.351562 237.496094 89.523438 237.441406 96.828125 C 237.511719 127.15625 221.09375 151.832031 200.902344 151.832031 Z M 200.902344 44.683594 C 182.285156 44.683594 167.125 68.078125 167.125 96.828125 C 167.125 125.320312 182.101562 148.671875 200.519531 148.984375 L 200.902344 148.984375 C 219.535156 148.984375 234.679688 125.589844 234.679688 96.828125 C 234.695312 89.785156 233.753906 82.875 231.84375 76.097656 C 226.488281 57.007812 214.332031 44.683594 200.902344 44.683594 Z M 200.902344 44.683594 " fill-opacity="1" fill-rule="nonzero"/></g><path fill="#e66363" d="M 233.246094 75.699219 C 231.5 74.511719 229.621094 73.605469 227.609375 72.976562 C 225.597656 72.347656 223.539062 72.027344 221.433594 72.007812 C 209.785156 72.007812 199.710938 82.109375 194.726562 96.867188 L 216.574219 105.671875 L 191.523438 114.351562 C 191.523438 115.460938 191.425781 116.574219 191.425781 117.699219 C 191.425781 130.519531 194.894531 142.101562 200.492188 150.464844 L 200.902344 150.464844 C 220.339844 150.464844 236.097656 126.488281 236.097656 96.882812 C 236.128906 89.6875 235.179688 82.625 233.246094 75.699219 Z M 233.246094 75.699219 " fill-opacity="1" fill-rule="nonzero"/><path fill="#e66363" d="M 162.945312 169.570312 C 158.375 169.558594 153.832031 169.179688 149.316406 168.429688 C 142.542969 167.371094 136 165.503906 129.679688 162.832031 C 129.507812 162.753906 129.359375 162.644531 129.230469 162.507812 C 129.105469 162.367188 129.007812 162.210938 128.941406 162.035156 C 128.875 161.855469 128.847656 161.671875 128.851562 161.484375 C 128.859375 161.296875 128.902344 161.117188 128.980469 160.945312 C 129.058594 160.773438 129.164062 160.621094 129.300781 160.492188 C 129.441406 160.363281 129.597656 160.265625 129.773438 160.199219 C 129.949219 160.132812 130.128906 160.105469 130.320312 160.109375 C 130.507812 160.117188 130.6875 160.160156 130.855469 160.238281 C 136.949219 162.789062 143.253906 164.578125 149.769531 165.609375 C 161.53125 167.5625 178.898438 167.902344 194.996094 158.386719 C 196.128906 157.746094 197.316406 156.960938 198.75 155.992188 C 198.902344 155.886719 199.074219 155.8125 199.257812 155.773438 C 199.441406 155.734375 199.625 155.734375 199.808594 155.769531 C 199.996094 155.804688 200.164062 155.871094 200.324219 155.976562 C 200.480469 156.078125 200.613281 156.207031 200.71875 156.363281 C 200.824219 156.519531 200.898438 156.6875 200.9375 156.871094 C 200.976562 157.054688 200.980469 157.242188 200.949219 157.425781 C 200.914062 157.613281 200.847656 157.785156 200.746094 157.945312 C 200.644531 158.101562 200.519531 158.234375 200.363281 158.34375 C 198.847656 159.382812 197.53125 160.179688 196.410156 160.867188 C 191.320312 163.792969 185.9375 166 180.261719 167.476562 C 174.582031 168.953125 168.8125 169.648438 162.945312 169.570312 Z M 162.945312 169.570312 " fill-opacity="1" fill-rule="nonzero"/><path fill="#e66363" d="M 198.011719 180.167969 C 193.761719 189.886719 184.328125 198.292969 167.15625 198.292969 C 158.511719 198.292969 152.730469 195.828125 149.304688 192.050781 C 143.464844 185.613281 144.429688 175.367188 149.542969 167.019531 C 162.296875 169.144531 182.128906 168.859375 199.558594 157.160156 C 201.609375 162.929688 201.640625 172.007812 198.011719 180.167969 Z M 198.011719 180.167969 " fill-opacity="1" fill-rule="nonzero"/><g clip-path="url(#ce11fb6de1)"><path fill="#e66363" d="M 167.15625 199.714844 C 158.78125 199.714844 152.234375 197.394531 148.253906 193.003906 C 142.445312 186.59375 142.472656 175.910156 148.339844 166.265625 C 148.488281 166.023438 148.691406 165.84375 148.949219 165.722656 C 149.207031 165.605469 149.476562 165.566406 149.757812 165.609375 C 158.101562 167.035156 179.609375 168.84375 198.734375 155.980469 C 198.917969 155.855469 199.113281 155.777344 199.332031 155.75 C 199.546875 155.71875 199.757812 155.738281 199.96875 155.804688 C 200.175781 155.875 200.355469 155.984375 200.515625 156.136719 C 200.671875 156.289062 200.785156 156.46875 200.859375 156.675781 C 201.460938 158.644531 201.878906 160.652344 202.117188 162.699219 C 202.355469 164.746094 202.40625 166.796875 202.273438 168.851562 C 202.140625 170.90625 201.824219 172.933594 201.324219 174.929688 C 200.824219 176.929688 200.152344 178.863281 199.300781 180.738281 C 196.183594 187.835938 187.855469 199.714844 167.15625 199.714844 Z M 150.28125 168.628906 C 146.300781 175.625 144.839844 185.070312 150.351562 191.152344 C 153.78125 194.929688 159.589844 196.851562 167.15625 196.851562 C 175.359375 196.851562 190.09375 194.617188 196.710938 179.570312 C 198.117188 176.402344 198.992188 173.089844 199.339844 169.632812 C 199.683594 166.179688 199.484375 162.757812 198.734375 159.371094 C 179.890625 171.238281 159.304688 169.941406 150.28125 168.628906 Z M 150.28125 168.628906 " fill-opacity="1" fill-rule="nonzero"/></g><path fill="#ffffff" d="M 198.011719 180.167969 C 193.761719 189.886719 184.328125 198.292969 167.15625 198.292969 C 158.511719 198.292969 152.730469 195.828125 149.304688 192.050781 C 155.835938 184.371094 169.675781 179.085938 185.714844 179.085938 C 189.847656 179.074219 193.945312 179.4375 198.011719 180.167969 Z M 198.011719 180.167969 " fill-opacity="1" fill-rule="nonzero"/><g clip-path="url(#4b28684a06)"><path fill="#e66363" d="M 167.15625 199.714844 C 158.78125 199.714844 152.234375 197.394531 148.253906 193.003906 L 147.417969 192.078125 L 148.226562 191.125 C 155.308594 182.820312 169.648438 177.664062 185.699219 177.664062 C 189.921875 177.652344 194.113281 178.023438 198.265625 178.773438 L 200.039062 179.085938 L 199.300781 180.738281 C 196.183594 187.835938 187.855469 199.714844 167.15625 199.714844 Z M 151.257812 192.007812 C 154.773438 195.1875 160.226562 196.867188 167.15625 196.867188 C 175.03125 196.867188 188.972656 194.785156 195.914062 181.265625 C 192.527344 180.757812 189.125 180.507812 185.699219 180.511719 C 171.335938 180.511719 158.03125 184.984375 151.257812 192.007812 Z M 151.257812 192.007812 " fill-opacity="1" fill-rule="nonzero"/></g></svg>